{"glyphs":{"0":{"ha":739,"x_min":70,"x_max":668,"o":"m 369 -12 q 147 110 224 -12 q 70 514 70 233 q 106 820 70 704 q 207 989 141 937 q 369 1040 273 1040 q 532 989 466 1040 q 633 820 597 937 q 668 514 668 704 q 592 110 668 233 q 369 -12 515 -12 m 369 60 q 486 102 439 60 q 560 243 534 144 q 585 512 585 343 q 560 783 585 683 q 486 925 534 883 q 369 967 439 967 q 252 926 300 967 q 179 784 205 884 q 153 516 153 685 q 179 245 153 345 q 252 102 205 144 q 369 60 300 60 z "},"1":{"ha":401,"x_min":13,"x_max":288,"o":"m 241 1031 l 288 1031 l 288 0 l 208 0 l 208 924 l 13 778 l 13 860 l 241 1031 z "},"2":{"ha":577,"x_min":22,"x_max":538,"o":"m 538 74 l 538 0 l 34 0 l 34 47 l 293 463 q 383 636 356 563 q 410 777 410 709 q 360 923 410 879 q 208 967 309 967 q 22 929 110 967 l 22 1003 q 111 1030 58 1020 q 214 1040 164 1040 q 420 979 347 1040 q 492 788 492 918 q 464 625 492 707 q 363 428 435 543 l 139 74 l 538 74 z "},"3":{"ha":609,"x_min":31,"x_max":560,"o":"m 341 535 q 505 443 449 511 q 560 269 560 374 q 522 116 560 179 q 413 20 484 53 q 243 -12 342 -12 q 31 24 129 -12 l 31 96 q 135 68 81 77 q 241 58 190 58 q 417 112 355 58 q 480 270 480 166 q 416 434 480 376 q 221 492 351 492 l 140 492 l 140 564 l 178 564 q 326 591 266 564 q 418 666 387 617 q 449 783 449 715 q 396 923 449 876 q 239 969 344 969 q 49 931 136 969 l 49 1003 q 139 1030 85 1020 q 244 1040 192 1040 q 456 975 383 1040 q 529 787 529 910 q 480 628 529 695 q 341 535 431 562 z "},"4":{"ha":709,"x_min":32,"x_max":682,"o":"m 682 326 l 682 256 l 548 256 l 548 0 l 472 0 l 472 256 l 32 256 l 32 303 l 386 1028 l 469 1028 l 126 326 l 472 326 l 483 681 l 548 681 l 548 326 l 682 326 z "},"5":{"ha":610,"x_min":49,"x_max":577,"o":"m 222 582 q 489 498 401 571 q 577 283 577 424 q 496 63 577 138 q 262 -12 415 -12 q 49 24 142 -12 l 49 96 q 154 68 99 78 q 260 58 208 58 q 437 114 378 58 q 497 280 497 170 q 465 405 497 356 q 367 480 434 453 q 192 512 301 506 l 82 519 l 114 1028 l 535 1028 l 535 956 l 189 956 l 164 585 l 222 582 z "},"6":{"ha":683,"x_min":81,"x_max":650,"o":"m 376 584 q 515 551 453 584 q 614 452 577 519 q 650 289 650 386 q 615 123 650 190 q 519 21 580 55 q 383 -12 459 -12 q 161 101 242 -12 q 81 481 81 214 q 124 804 81 681 q 250 984 167 928 q 455 1040 333 1040 q 607 1013 545 1040 l 607 940 q 453 969 538 969 q 293 923 357 969 q 196 775 229 878 q 163 503 163 673 q 256 563 199 541 q 376 584 312 584 m 385 57 q 480 81 438 57 q 547 156 522 104 q 572 285 572 207 q 515 459 572 403 q 365 515 458 515 q 253 493 307 515 q 163 426 200 472 q 197 205 167 286 q 273 90 226 123 q 385 57 321 57 z "},"7":{"ha":560,"x_min":6,"x_max":521,"o":"m 6 1028 l 521 1028 l 521 981 l 186 0 l 102 0 l 432 954 l 6 954 l 6 1028 z "},"8":{"ha":739,"x_min":59,"x_max":680,"o":"m 482 519 q 598 451 554 488 q 660 366 641 414 q 680 254 680 319 q 643 114 680 174 q 538 21 606 54 q 376 -12 469 -12 q 205 20 276 -12 q 96 112 133 52 q 59 256 59 172 q 109 421 59 348 q 247 531 159 494 q 125 635 163 575 q 88 781 88 695 q 122 918 88 859 q 220 1008 156 976 q 369 1040 283 1040 q 518 1009 454 1040 q 616 919 581 977 q 650 782 650 860 q 607 629 650 696 q 482 519 565 563 m 169 783 q 190 684 169 724 q 258 611 210 643 q 395 551 307 580 q 413 546 410 547 q 538 643 499 589 q 576 779 576 697 q 521 922 576 872 q 369 972 467 972 q 222 922 274 972 q 169 783 169 872 m 376 56 q 541 107 482 56 q 599 249 599 158 q 578 352 599 311 q 508 423 558 393 q 369 481 459 453 q 312 501 342 490 q 185 408 231 471 q 140 259 140 344 q 199 108 140 160 q 376 56 258 56 z "},"9":{"ha":683,"x_min":33,"x_max":603,"o":"m 300 1040 q 522 927 442 1040 q 603 547 603 814 q 559 224 603 347 q 433 44 516 100 q 228 -12 351 -12 q 76 15 138 -12 l 76 88 q 230 59 146 59 q 390 105 326 59 q 488 252 454 150 q 521 525 521 355 q 428 465 484 487 q 308 444 372 444 q 168 476 231 444 q 70 575 106 509 q 33 739 33 642 q 68 905 33 838 q 164 1007 103 973 q 300 1040 224 1040 m 319 513 q 430 535 376 513 q 520 601 483 556 q 487 823 516 742 q 410 938 458 905 q 298 971 363 971 q 203 947 245 971 q 137 872 162 924 q 112 742 112 821 q 169 569 112 625 q 319 513 226 513 z "},"\u0000":{"ha":0,"x_min":0,"x_max":0,"o":""},"\r":{"ha":290,"x_min":0,"x_max":0,"o":""}," ":{"ha":290,"x_min":0,"x_max":0,"o":""},"A":{"ha":803,"x_min":15,"x_max":788,"o":"m 704 0 l 594 347 l 206 347 l 97 0 l 15 0 l 345 1028 l 458 1028 l 788 0 l 704 0 m 230 421 l 571 421 l 400 958 l 230 421 z "},"Á":{"ha":803,"x_min":15,"x_max":788,"o":"m 704 0 l 594 347 l 206 347 l 97 0 l 15 0 l 345 1028 l 458 1028 l 788 0 l 704 0 m 230 421 l 571 421 l 400 958 l 230 421 m 367 1119 l 460 1313 l 544 1313 l 437 1119 l 367 1119 z "},"Ă":{"ha":803,"x_min":15,"x_max":788,"o":"m 704 0 l 594 347 l 206 347 l 97 0 l 15 0 l 345 1028 l 458 1028 l 788 0 l 704 0 m 230 421 l 571 421 l 400 958 l 230 421 m 403 1126 q 274 1169 322 1126 q 221 1296 227 1213 l 278 1296 q 315 1207 285 1234 q 403 1180 344 1180 q 492 1207 463 1180 q 526 1296 521 1234 l 583 1296 q 531 1169 577 1212 q 403 1126 485 1126 z "},"Ắ":{"ha":803,"x_min":15,"x_max":788,"o":"m 704 0 l 594 347 l 206 347 l 97 0 l 15 0 l 345 1028 l 458 1028 l 788 0 l 704 0 m 230 421 l 571 421 l 400 958 l 230 421 m 376 1281 l 460 1455 l 528 1455 l 428 1281 l 376 1281 m 402 1126 q 273 1168 319 1126 q 221 1292 227 1210 l 276 1292 q 311 1204 281 1231 q 402 1177 340 1177 q 493 1204 464 1177 q 530 1292 522 1231 l 584 1292 q 531 1169 578 1211 q 402 1126 484 1126 z "},"Ặ":{"ha":803,"x_min":15,"x_max":788,"o":"m 704 0 l 594 347 l 206 347 l 97 0 l 15 0 l 345 1028 l 458 1028 l 788 0 l 704 0 m 230 421 l 571 421 l 400 958 l 230 421 m 402 -231 q 358 -217 374 -231 q 341 -176 341 -202 q 358 -135 341 -150 q 402 -119 375 -119 q 447 -135 430 -119 q 463 -176 463 -150 q 447 -217 463 -202 q 402 -231 430 -231 m 403 1126 q 274 1169 322 1126 q 221 1296 227 1213 l 278 1296 q 315 1207 285 1234 q 403 1180 344 1180 q 492 1207 463 1180 q 526 1296 521 1234 l 583 1296 q 531 1169 577 1212 q 403 1126 485 1126 z "},"Ằ":{"ha":803,"x_min":15,"x_max":788,"o":"m 704 0 l 594 347 l 206 347 l 97 0 l 15 0 l 345 1028 l 458 1028 l 788 0 l 704 0 m 230 421 l 571 421 l 400 958 l 230 421 m 376 1281 l 276 1455 l 344 1455 l 428 1281 l 376 1281 m 402 1126 q 273 1168 319 1126 q 221 1292 227 1210 l 275 1292 q 311 1204 281 1231 q 402 1177 340 1177 q 492 1204 464 1177 q 528 1292 521 1231 l 584 1292 q 531 1169 578 1211 q 402 1126 484 1126 z "},"Ẳ":{"ha":803,"x_min":15,"x_max":788,"o":"m 704 0 l 594 347 l 206 347 l 97 0 l 15 0 l 345 1028 l 458 1028 l 788 0 l 704 0 m 230 421 l 571 421 l 400 958 l 230 421 m 375 1281 q 385 1315 376 1301 q 406 1336 394 1328 q 438 1353 418 1344 q 470 1372 460 1364 q 480 1394 480 1380 q 463 1419 480 1410 q 404 1428 447 1428 q 341 1422 374 1428 q 281 1403 309 1415 l 281 1449 q 340 1467 305 1460 q 408 1473 374 1473 q 504 1452 471 1473 q 537 1398 537 1432 q 522 1357 537 1372 q 478 1329 507 1343 q 443 1308 455 1317 q 430 1281 432 1298 l 375 1281 m 401 1126 q 273 1168 319 1126 q 221 1292 227 1210 l 276 1292 q 311 1204 281 1231 q 401 1177 340 1177 q 492 1204 462 1177 q 530 1292 522 1231 l 584 1292 q 531 1169 578 1211 q 401 1126 483 1126 z "},"Ẵ":{"ha":803,"x_min":15,"x_max":788,"o":"m 704 0 l 594 347 l 206 347 l 97 0 l 15 0 l 345 1028 l 458 1028 l 788 0 l 704 0 m 230 421 l 571 421 l 400 958 l 230 421 m 485 1340 q 444 1347 463 1340 q 394 1367 424 1353 q 352 1385 369 1379 q 319 1392 335 1392 q 267 1380 290 1392 q 221 1342 244 1367 l 221 1399 q 319 1442 260 1442 q 363 1434 342 1442 q 412 1413 383 1427 q 455 1395 439 1401 q 485 1390 470 1390 q 538 1402 515 1390 q 584 1440 561 1414 l 584 1383 q 485 1340 545 1340 m 401 1126 q 273 1168 319 1126 q 221 1292 227 1210 l 276 1292 q 311 1204 281 1231 q 401 1177 340 1177 q 491 1204 462 1177 q 528 1292 521 1231 l 584 1292 q 531 1169 578 1211 q 401 1126 483 1126 z "},"Â":{"ha":803,"x_min":15,"x_max":788,"o":"m 704 0 l 594 347 l 206 347 l 97 0 l 15 0 l 345 1028 l 458 1028 l 788 0 l 704 0 m 230 421 l 571 421 l 400 958 l 230 421 m 577 1119 l 509 1119 l 402 1274 l 295 1119 l 227 1119 l 363 1313 l 442 1313 l 577 1119 z "},"Ấ":{"ha":803,"x_min":15,"x_max":788,"o":"m 704 0 l 594 347 l 206 347 l 97 0 l 15 0 l 345 1028 l 458 1028 l 788 0 l 704 0 m 230 421 l 571 421 l 400 958 l 230 421 m 617 1433 l 685 1433 l 585 1248 l 533 1248 l 617 1433 m 363 1308 l 442 1308 l 577 1119 l 509 1119 l 402 1272 l 295 1119 l 227 1119 l 363 1308 z "},"Ậ":{"ha":803,"x_min":15,"x_max":788,"o":"m 704 0 l 594 347 l 206 347 l 97 0 l 15 0 l 345 1028 l 458 1028 l 788 0 l 704 0 m 230 421 l 571 421 l 400 958 l 230 421 m 402 -231 q 358 -217 374 -231 q 341 -176 341 -202 q 358 -135 341 -150 q 402 -119 375 -119 q 447 -135 430 -119 q 463 -176 463 -150 q 447 -217 463 -202 q 402 -231 430 -231 m 577 1119 l 509 1119 l 402 1274 l 295 1119 l 227 1119 l 363 1313 l 442 1313 l 577 1119 z "},"Ầ":{"ha":803,"x_min":15,"x_max":788,"o":"m 704 0 l 594 347 l 206 347 l 97 0 l 15 0 l 345 1028 l 458 1028 l 788 0 l 704 0 m 230 421 l 571 421 l 400 958 l 230 421 m 601 1248 l 549 1248 l 449 1433 l 516 1433 l 601 1248 m 363 1308 l 442 1308 l 577 1119 l 509 1119 l 402 1272 l 295 1119 l 227 1119 l 363 1308 z "},"Ẩ":{"ha":803,"x_min":15,"x_max":788,"o":"m 704 0 l 594 347 l 206 347 l 97 0 l 15 0 l 345 1028 l 458 1028 l 788 0 l 704 0 m 230 421 l 571 421 l 400 958 l 230 421 m 565 1440 q 661 1419 628 1440 q 694 1365 694 1399 q 686 1334 694 1347 q 667 1314 678 1321 q 636 1296 656 1306 q 601 1275 613 1285 q 587 1248 589 1265 l 531 1248 q 550 1292 533 1277 q 595 1320 566 1306 q 627 1339 617 1331 q 637 1361 637 1347 q 620 1386 637 1377 q 561 1394 603 1394 q 499 1389 531 1394 q 438 1371 467 1383 l 438 1416 q 497 1433 462 1427 q 565 1440 531 1440 m 363 1308 l 442 1308 l 577 1119 l 509 1119 l 402 1272 l 295 1119 l 227 1119 l 363 1308 z "},"Ẫ":{"ha":803,"x_min":15,"x_max":788,"o":"m 704 0 l 594 347 l 206 347 l 97 0 l 15 0 l 345 1028 l 458 1028 l 788 0 l 704 0 m 230 421 l 571 421 l 400 958 l 230 421 m 483 1390 q 533 1402 510 1390 q 577 1440 555 1414 l 577 1383 q 482 1340 542 1340 q 440 1347 460 1340 q 392 1368 420 1354 q 352 1386 367 1380 q 322 1392 337 1392 q 272 1380 294 1392 q 227 1342 249 1367 l 227 1399 q 322 1442 263 1442 q 365 1434 344 1442 q 412 1413 385 1427 q 453 1395 439 1401 q 483 1390 467 1390 m 363 1308 l 442 1308 l 577 1119 l 509 1119 l 402 1272 l 295 1119 l 227 1119 l 363 1308 z "},"Ȁ":{"ha":803,"x_min":15,"x_max":788,"o":"m 704 0 l 594 347 l 206 347 l 97 0 l 15 0 l 345 1028 l 458 1028 l 788 0 l 704 0 m 230 421 l 571 421 l 400 958 l 230 421 m 273 1119 l 202 1313 l 273 1313 l 336 1119 l 273 1119 m 468 1119 l 397 1313 l 468 1313 l 531 1119 l 468 1119 z "},"Ä":{"ha":803,"x_min":15,"x_max":788,"o":"m 704 0 l 594 347 l 206 347 l 97 0 l 15 0 l 345 1028 l 458 1028 l 788 0 l 704 0 m 230 421 l 571 421 l 400 958 l 230 421 m 270 1161 q 227 1176 243 1161 q 212 1217 212 1191 q 228 1258 212 1242 q 270 1273 244 1273 q 313 1258 297 1273 q 328 1217 328 1242 q 313 1176 328 1191 q 270 1161 297 1161 m 535 1161 q 492 1176 508 1161 q 476 1217 476 1191 q 492 1258 476 1242 q 535 1273 508 1273 q 577 1258 561 1273 q 593 1217 593 1242 q 577 1176 593 1191 q 535 1161 561 1161 z "},"Ạ":{"ha":803,"x_min":15,"x_max":788,"o":"m 704 0 l 594 347 l 206 347 l 97 0 l 15 0 l 345 1028 l 458 1028 l 788 0 l 704 0 m 230 421 l 571 421 l 400 958 l 230 421 m 402 -231 q 358 -217 374 -231 q 341 -176 341 -202 q 358 -135 341 -150 q 402 -119 375 -119 q 447 -135 430 -119 q 463 -176 463 -150 q 447 -217 463 -202 q 402 -231 430 -231 z "},"À":{"ha":803,"x_min":15,"x_max":788,"o":"m 704 0 l 594 347 l 206 347 l 97 0 l 15 0 l 345 1028 l 458 1028 l 788 0 l 704 0 m 230 421 l 571 421 l 400 958 l 230 421 m 367 1119 l 260 1313 l 344 1313 l 437 1119 l 367 1119 z "},"Ả":{"ha":803,"x_min":15,"x_max":788,"o":"m 704 0 l 594 347 l 206 347 l 97 0 l 15 0 l 345 1028 l 458 1028 l 788 0 l 704 0 m 230 421 l 571 421 l 400 958 l 230 421 m 375 1119 q 393 1163 376 1148 q 438 1193 409 1178 q 469 1211 459 1203 q 480 1234 480 1220 q 463 1259 480 1251 q 404 1268 447 1268 q 341 1262 374 1268 q 281 1244 309 1256 l 281 1292 q 340 1309 305 1303 q 408 1315 374 1315 q 504 1295 472 1315 q 537 1239 537 1274 q 522 1198 537 1212 q 479 1169 508 1184 q 444 1146 456 1156 q 430 1119 432 1136 l 375 1119 z "},"Ȃ":{"ha":803,"x_min":15,"x_max":788,"o":"m 704 0 l 594 347 l 206 347 l 97 0 l 15 0 l 345 1028 l 458 1028 l 788 0 l 704 0 m 230 421 l 571 421 l 400 958 l 230 421 m 221 1135 q 273 1263 227 1219 q 401 1306 319 1306 q 530 1263 483 1306 q 583 1135 577 1219 l 526 1135 q 490 1225 519 1198 q 401 1252 460 1252 q 313 1225 342 1252 q 278 1135 283 1197 l 221 1135 z "},"Ā":{"ha":803,"x_min":15,"x_max":788,"o":"m 704 0 l 594 347 l 206 347 l 97 0 l 15 0 l 345 1028 l 458 1028 l 788 0 l 704 0 m 230 421 l 571 421 l 400 958 l 230 421 m 222 1187 l 222 1247 l 583 1247 l 583 1187 l 222 1187 z "},"Ą":{"ha":803,"x_min":15,"x_max":855,"o":"m 754 -237 q 855 -211 799 -237 l 855 -258 q 750 -284 803 -284 q 641 -252 678 -284 q 603 -162 603 -221 q 627 -75 603 -115 q 703 1 651 -35 l 594 347 l 206 347 l 97 0 l 15 0 l 345 1028 l 458 1028 l 788 0 q 688 -77 717 -40 q 658 -157 658 -114 q 754 -237 658 -237 m 230 421 l 571 421 l 400 958 l 230 421 z "},"Å":{"ha":803,"x_min":15,"x_max":788,"o":"m 704 0 l 594 347 l 206 347 l 97 0 l 15 0 l 345 1028 l 458 1028 l 788 0 l 704 0 m 230 421 l 571 421 l 400 958 l 230 421 m 402 1114 q 334 1131 365 1114 q 287 1178 304 1148 q 270 1245 270 1208 q 287 1313 270 1283 q 334 1360 304 1343 q 402 1377 365 1377 q 470 1360 440 1377 q 517 1313 500 1343 q 535 1245 535 1283 q 517 1178 535 1208 q 470 1131 500 1148 q 402 1114 440 1114 m 402 1159 q 464 1182 440 1159 q 487 1245 487 1206 q 464 1309 487 1285 q 402 1332 440 1332 q 341 1309 365 1332 q 317 1245 317 1285 q 341 1182 317 1206 q 402 1159 365 1159 z "},"Ǻ":{"ha":803,"x_min":15,"x_max":788,"o":"m 704 0 l 594 347 l 206 347 l 97 0 l 15 0 l 345 1028 l 458 1028 l 788 0 l 704 0 m 230 421 l 571 421 l 400 958 l 230 421 m 509 1328 q 535 1247 535 1292 q 517 1179 535 1209 q 470 1132 500 1149 q 402 1115 440 1115 q 334 1132 365 1115 q 287 1179 304 1149 q 270 1247 270 1209 q 287 1314 270 1284 q 334 1361 304 1344 q 402 1378 365 1378 q 467 1363 439 1378 l 557 1455 l 635 1455 l 509 1328 m 402 1160 q 464 1184 440 1160 q 487 1247 487 1207 q 464 1310 487 1286 q 402 1333 440 1333 q 341 1310 365 1333 q 317 1247 317 1286 q 341 1184 317 1207 q 402 1160 365 1160 z "},"Ã":{"ha":803,"x_min":15,"x_max":788,"o":"m 704 0 l 594 347 l 206 347 l 97 0 l 15 0 l 345 1028 l 458 1028 l 788 0 l 704 0 m 230 421 l 571 421 l 400 958 l 230 421 m 496 1166 q 449 1173 470 1166 q 392 1195 427 1180 q 346 1215 365 1208 q 308 1221 327 1221 q 255 1208 278 1221 q 208 1170 231 1196 l 208 1233 q 309 1278 246 1278 q 357 1271 335 1278 q 412 1249 378 1264 q 458 1230 440 1236 q 496 1224 477 1224 q 550 1236 526 1224 q 596 1274 574 1249 l 596 1211 q 496 1166 560 1166 z "},"Æ":{"ha":1105,"x_min":15,"x_max":1078,"o":"m 651 74 l 1078 74 l 1078 0 l 576 0 l 559 347 l 210 347 l 97 0 l 15 0 l 352 1028 l 1072 1028 l 1072 954 l 609 954 l 628 565 l 1008 565 l 1008 491 l 631 491 l 651 74 m 235 421 l 556 421 l 530 954 l 409 954 l 235 421 z "},"Ǽ":{"ha":1105,"x_min":15,"x_max":1078,"o":"m 651 74 l 1078 74 l 1078 0 l 576 0 l 559 347 l 210 347 l 97 0 l 15 0 l 352 1028 l 1072 1028 l 1072 954 l 609 954 l 628 565 l 1008 565 l 1008 491 l 631 491 l 651 74 m 235 421 l 556 421 l 530 954 l 409 954 l 235 421 m 531 1119 l 624 1313 l 708 1313 l 601 1119 l 531 1119 z "},"B":{"ha":773,"x_min":106,"x_max":725,"o":"m 516 531 q 672 444 619 512 q 725 274 725 377 q 627 62 725 132 q 317 -8 530 -8 q 106 4 208 -8 l 106 1017 q 338 1038 217 1038 q 542 1010 463 1038 q 658 922 621 981 q 696 770 696 863 q 653 618 696 682 q 516 531 610 553 m 343 968 q 186 956 256 968 l 186 564 l 350 564 q 509 587 450 564 q 592 655 567 610 q 617 767 617 699 q 590 883 617 840 q 503 948 563 927 q 343 968 443 968 m 329 63 q 514 85 444 63 q 614 154 583 108 q 646 274 646 200 q 581 438 646 383 q 376 492 515 492 l 186 492 l 186 69 q 329 63 247 63 z "},"C":{"ha":664,"x_min":63,"x_max":650,"o":"m 455 -12 q 243 38 329 -12 q 110 204 156 88 q 63 513 63 320 q 110 819 63 702 q 245 988 157 935 q 465 1040 334 1040 q 650 1014 559 1040 l 650 940 q 558 961 602 955 q 464 967 514 967 q 289 925 358 967 q 184 783 220 883 q 149 515 149 684 q 185 243 149 343 q 289 102 221 143 q 460 61 357 61 q 551 69 506 61 q 650 97 597 78 l 650 22 q 455 -12 556 -12 z "},"Ć":{"ha":664,"x_min":63,"x_max":650,"o":"m 455 -12 q 243 38 329 -12 q 110 204 156 88 q 63 513 63 320 q 110 819 63 702 q 245 988 157 935 q 465 1040 334 1040 q 650 1014 559 1040 l 650 940 q 558 961 602 955 q 464 967 514 967 q 289 925 358 967 q 184 783 220 883 q 149 515 149 684 q 185 243 149 343 q 289 102 221 143 q 460 61 357 61 q 551 69 506 61 q 650 97 597 78 l 650 22 q 455 -12 556 -12 m 384 1119 l 477 1313 l 561 1313 l 453 1119 l 384 1119 z "},"Č":{"ha":664,"x_min":63,"x_max":650,"o":"m 455 -12 q 243 38 329 -12 q 110 204 156 88 q 63 513 63 320 q 110 819 63 702 q 245 988 157 935 q 465 1040 334 1040 q 650 1014 559 1040 l 650 940 q 558 961 602 955 q 464 967 514 967 q 289 925 358 967 q 184 783 220 883 q 149 515 149 684 q 185 243 149 343 q 289 102 221 143 q 460 61 357 61 q 551 69 506 61 q 650 97 597 78 l 650 22 q 455 -12 556 -12 m 526 1313 l 594 1313 l 458 1119 l 379 1119 l 244 1313 l 312 1313 l 419 1158 l 526 1313 z "},"Ç":{"ha":664,"x_min":63,"x_max":650,"o":"m 464 967 q 289 925 358 967 q 184 783 220 883 q 149 515 149 684 q 185 243 149 343 q 289 102 221 143 q 460 61 357 61 q 551 69 506 61 q 650 97 597 78 l 650 22 q 455 -12 556 -12 l 449 -12 l 449 -74 q 531 -105 501 -78 q 562 -178 562 -132 q 526 -257 562 -229 q 427 -284 490 -284 q 306 -259 362 -284 l 306 -210 q 424 -237 366 -237 q 507 -176 507 -237 q 485 -131 507 -146 q 423 -115 463 -115 l 396 -115 l 396 -10 q 148 130 233 7 q 63 513 63 252 q 110 819 63 702 q 245 988 157 935 q 465 1040 334 1040 q 650 1014 559 1040 l 650 940 q 558 961 602 955 q 464 967 514 967 z "},"Ḉ":{"ha":664,"x_min":63,"x_max":650,"o":"m 561 1313 l 453 1119 l 384 1119 l 477 1313 l 561 1313 m 464 967 q 289 925 358 967 q 184 783 220 883 q 149 515 149 684 q 185 243 149 343 q 289 102 221 143 q 460 61 357 61 q 551 69 506 61 q 650 97 597 78 l 650 22 q 455 -12 556 -12 l 449 -12 l 449 -74 q 531 -105 501 -78 q 562 -178 562 -132 q 526 -257 562 -229 q 427 -284 490 -284 q 306 -259 362 -284 l 306 -210 q 424 -237 366 -237 q 507 -176 507 -237 q 485 -131 507 -146 q 423 -115 463 -115 l 396 -115 l 396 -10 q 148 130 233 7 q 63 513 63 252 q 110 819 63 702 q 245 988 157 935 q 465 1040 334 1040 q 650 1014 559 1040 l 650 940 q 558 961 602 955 q 464 967 514 967 z "},"Ĉ":{"ha":664,"x_min":63,"x_max":650,"o":"m 455 -12 q 243 38 329 -12 q 110 204 156 88 q 63 513 63 320 q 110 819 63 702 q 245 988 157 935 q 465 1040 334 1040 q 650 1014 559 1040 l 650 940 q 558 961 602 955 q 464 967 514 967 q 289 925 358 967 q 184 783 220 883 q 149 515 149 684 q 185 243 149 343 q 289 102 221 143 q 460 61 357 61 q 551 69 506 61 q 650 97 597 78 l 650 22 q 455 -12 556 -12 m 594 1119 l 526 1119 l 419 1274 l 312 1119 l 244 1119 l 379 1313 l 458 1313 l 594 1119 z "},"Ċ":{"ha":664,"x_min":63,"x_max":650,"o":"m 455 -12 q 243 38 329 -12 q 110 204 156 88 q 63 513 63 320 q 110 819 63 702 q 245 988 157 935 q 465 1040 334 1040 q 650 1014 559 1040 l 650 940 q 558 961 602 955 q 464 967 514 967 q 289 925 358 967 q 184 783 220 883 q 149 515 149 684 q 185 243 149 343 q 289 102 221 143 q 460 61 357 61 q 551 69 506 61 q 650 97 597 78 l 650 22 q 455 -12 556 -12 m 419 1161 q 374 1176 391 1161 q 358 1217 358 1190 q 375 1258 358 1242 q 419 1273 392 1273 q 463 1258 447 1273 q 480 1217 480 1242 q 463 1176 480 1190 q 419 1161 447 1161 z "},"D":{"ha":822,"x_min":106,"x_max":758,"o":"m 294 -8 q 106 3 213 -8 l 106 1017 q 316 1038 220 1038 q 648 910 539 1038 q 758 514 758 782 q 706 215 758 331 q 551 46 653 100 q 294 -8 449 -8 m 306 65 q 512 110 431 65 q 633 253 592 155 q 673 514 673 352 q 635 774 673 674 q 519 919 597 873 q 319 965 441 965 q 187 955 260 965 l 187 72 q 306 65 236 65 z "},"Ǳ":{"ha":1470,"x_min":106,"x_max":1434,"o":"m 294 -8 q 106 3 213 -8 l 106 1017 q 316 1038 220 1038 q 648 910 539 1038 q 758 514 758 782 q 706 215 758 331 q 551 46 653 100 q 294 -8 449 -8 m 306 65 q 512 110 431 65 q 633 253 592 155 q 673 514 673 352 q 635 774 673 674 q 519 919 597 873 q 319 965 441 965 q 187 955 260 965 l 187 72 q 306 65 236 65 m 935 74 l 1434 74 l 1434 0 l 830 0 l 830 47 l 1322 953 l 837 953 l 837 1028 l 1427 1028 l 1427 981 l 935 74 z "},"Ǆ":{"ha":1470,"x_min":106,"x_max":1434,"o":"m 294 -8 q 106 3 213 -8 l 106 1017 q 316 1038 220 1038 q 648 910 539 1038 q 758 514 758 782 q 706 215 758 331 q 551 46 653 100 q 294 -8 449 -8 m 306 65 q 512 110 431 65 q 633 253 592 155 q 673 514 673 352 q 635 774 673 674 q 519 919 597 873 q 319 965 441 965 q 187 955 260 965 l 187 72 q 306 65 236 65 m 935 74 l 1434 74 l 1434 0 l 830 0 l 830 47 l 1322 953 l 837 953 l 837 1028 l 1427 1028 l 1427 981 l 935 74 m 1240 1313 l 1308 1313 l 1172 1119 l 1093 1119 l 958 1313 l 1026 1313 l 1133 1158 l 1240 1313 z "},"Ð":{"ha":822,"x_min":-2,"x_max":758,"o":"m 316 1038 q 648 910 539 1038 q 758 514 758 782 q 706 215 758 331 q 551 46 653 100 q 294 -8 449 -8 q 106 3 213 -8 l 106 498 l -2 498 l -2 560 l 106 560 l 106 1017 q 316 1038 220 1038 m 306 65 q 512 110 431 65 q 633 253 592 155 q 673 514 673 352 q 635 774 673 674 q 519 919 597 873 q 319 965 441 965 q 187 955 260 965 l 187 560 l 385 560 l 385 498 l 187 498 l 187 72 q 306 65 236 65 z "},"Ď":{"ha":822,"x_min":106,"x_max":758,"o":"m 294 -8 q 106 3 213 -8 l 106 1017 q 316 1038 220 1038 q 648 910 539 1038 q 758 514 758 782 q 706 215 758 331 q 551 46 653 100 q 294 -8 449 -8 m 306 65 q 512 110 431 65 q 633 253 592 155 q 673 514 673 352 q 635 774 673 674 q 519 919 597 873 q 319 965 441 965 q 187 955 260 965 l 187 72 q 306 65 236 65 m 476 1313 l 544 1313 l 408 1119 l 329 1119 l 194 1313 l 262 1313 l 369 1158 l 476 1313 z "},"Đ":{"ha":822,"x_min":-2,"x_max":758,"o":"m 316 1038 q 648 910 539 1038 q 758 514 758 782 q 706 215 758 331 q 551 46 653 100 q 294 -8 449 -8 q 106 3 213 -8 l 106 498 l -2 498 l -2 560 l 106 560 l 106 1017 q 316 1038 220 1038 m 306 65 q 512 110 431 65 q 633 253 592 155 q 673 514 673 352 q 635 774 673 674 q 519 919 597 873 q 319 965 441 965 q 187 955 260 965 l 187 560 l 385 560 l 385 498 l 187 498 l 187 72 q 306 65 236 65 z "},"Ḍ":{"ha":822,"x_min":106,"x_max":758,"o":"m 294 -8 q 106 3 213 -8 l 106 1017 q 316 1038 220 1038 q 648 910 539 1038 q 758 514 758 782 q 706 215 758 331 q 551 46 653 100 q 294 -8 449 -8 m 306 65 q 512 110 431 65 q 633 253 592 155 q 673 514 673 352 q 635 774 673 674 q 519 919 597 873 q 319 965 441 965 q 187 955 260 965 l 187 72 q 306 65 236 65 m 371 -231 q 326 -217 343 -231 q 310 -176 310 -202 q 327 -135 310 -150 q 371 -119 344 -119 q 415 -135 399 -119 q 432 -176 432 -150 q 415 -217 432 -202 q 371 -231 399 -231 z "},"Ḏ":{"ha":822,"x_min":106,"x_max":758,"o":"m 294 -8 q 106 3 213 -8 l 106 1017 q 316 1038 220 1038 q 648 910 539 1038 q 758 514 758 782 q 706 215 758 331 q 551 46 653 100 q 294 -8 449 -8 m 306 65 q 512 110 431 65 q 633 253 592 155 q 673 514 673 352 q 635 774 673 674 q 519 919 597 873 q 319 965 441 965 q 187 955 260 965 l 187 72 q 306 65 236 65 m 190 -204 l 190 -144 l 552 -144 l 552 -204 l 190 -204 z "},"ǲ":{"ha":1351,"x_min":106,"x_max":1319,"o":"m 294 -8 q 106 3 213 -8 l 106 1017 q 316 1038 220 1038 q 648 910 539 1038 q 758 514 758 782 q 706 215 758 331 q 551 46 653 100 q 294 -8 449 -8 m 306 65 q 512 110 431 65 q 633 253 592 155 q 673 514 673 352 q 635 774 673 674 q 519 919 597 873 q 319 965 441 965 q 187 955 260 965 l 187 72 q 306 65 236 65 m 953 69 l 1319 69 l 1319 0 l 858 0 l 858 49 l 1216 683 l 865 683 l 865 752 l 1312 752 l 1312 703 l 953 69 z "},"ǅ":{"ha":1351,"x_min":106,"x_max":1319,"o":"m 294 -8 q 106 3 213 -8 l 106 1017 q 316 1038 220 1038 q 648 910 539 1038 q 758 514 758 782 q 706 215 758 331 q 551 46 653 100 q 294 -8 449 -8 m 306 65 q 512 110 431 65 q 633 253 592 155 q 673 514 673 352 q 635 774 673 674 q 519 919 597 873 q 319 965 441 965 q 187 955 260 965 l 187 72 q 306 65 236 65 m 953 69 l 1319 69 l 1319 0 l 858 0 l 858 49 l 1216 683 l 865 683 l 865 752 l 1312 752 l 1312 703 l 953 69 m 1196 1090 l 1264 1090 l 1128 897 l 1049 897 l 914 1090 l 982 1090 l 1089 935 l 1196 1090 z "},"E":{"ha":676,"x_min":106,"x_max":650,"o":"m 187 74 l 650 74 l 650 0 l 106 0 l 106 1028 l 643 1028 l 643 954 l 187 954 l 187 565 l 579 565 l 579 491 l 187 491 l 187 74 z "},"É":{"ha":676,"x_min":106,"x_max":650,"o":"m 187 74 l 650 74 l 650 0 l 106 0 l 106 1028 l 643 1028 l 643 954 l 187 954 l 187 565 l 579 565 l 579 491 l 187 491 l 187 74 m 356 1119 l 449 1313 l 533 1313 l 425 1119 l 356 1119 z "},"Ĕ":{"ha":676,"x_min":106,"x_max":650,"o":"m 187 74 l 650 74 l 650 0 l 106 0 l 106 1028 l 643 1028 l 643 954 l 187 954 l 187 565 l 579 565 l 579 491 l 187 491 l 187 74 m 392 1126 q 263 1169 310 1126 q 209 1296 215 1213 l 267 1296 q 303 1207 274 1234 q 392 1180 332 1180 q 480 1207 451 1180 q 514 1296 509 1234 l 572 1296 q 519 1169 565 1212 q 392 1126 474 1126 z "},"Ě":{"ha":676,"x_min":106,"x_max":650,"o":"m 187 74 l 650 74 l 650 0 l 106 0 l 106 1028 l 643 1028 l 643 954 l 187 954 l 187 565 l 579 565 l 579 491 l 187 491 l 187 74 m 497 1313 l 565 1313 l 430 1119 l 351 1119 l 215 1313 l 283 1313 l 390 1158 l 497 1313 z "},"Ḝ":{"ha":676,"x_min":106,"x_max":650,"o":"m 392 1126 q 263 1169 310 1126 q 209 1296 215 1213 l 267 1296 q 303 1207 274 1234 q 392 1180 332 1180 q 480 1207 451 1180 q 514 1296 509 1234 l 572 1296 q 519 1169 565 1212 q 392 1126 474 1126 m 414 0 l 414 -74 q 497 -105 466 -78 q 527 -178 527 -132 q 491 -257 527 -229 q 392 -284 455 -284 q 271 -259 327 -284 l 271 -210 q 390 -237 331 -237 q 472 -176 472 -237 q 450 -131 472 -146 q 388 -115 428 -115 l 361 -115 l 361 0 l 106 0 l 106 1028 l 643 1028 l 643 954 l 187 954 l 187 565 l 579 565 l 579 491 l 187 491 l 187 74 l 650 74 l 650 0 l 414 0 z "},"Ê":{"ha":676,"x_min":106,"x_max":650,"o":"m 187 74 l 650 74 l 650 0 l 106 0 l 106 1028 l 643 1028 l 643 954 l 187 954 l 187 565 l 579 565 l 579 491 l 187 491 l 187 74 m 565 1119 l 497 1119 l 390 1274 l 283 1119 l 215 1119 l 351 1313 l 430 1313 l 565 1119 z "},"Ế":{"ha":676,"x_min":106,"x_max":673,"o":"m 187 74 l 650 74 l 650 0 l 106 0 l 106 1028 l 643 1028 l 643 954 l 187 954 l 187 565 l 579 565 l 579 491 l 187 491 l 187 74 m 606 1433 l 673 1433 l 573 1248 l 521 1248 l 606 1433 m 351 1308 l 430 1308 l 565 1119 l 497 1119 l 390 1272 l 283 1119 l 215 1119 l 351 1308 z "},"Ệ":{"ha":676,"x_min":106,"x_max":650,"o":"m 187 74 l 650 74 l 650 0 l 106 0 l 106 1028 l 643 1028 l 643 954 l 187 954 l 187 565 l 579 565 l 579 491 l 187 491 l 187 74 m 390 -231 q 346 -217 363 -231 q 329 -176 329 -202 q 346 -135 329 -150 q 390 -119 363 -119 q 435 -135 418 -119 q 451 -176 451 -150 q 435 -217 451 -202 q 390 -231 418 -231 m 565 1119 l 497 1119 l 390 1274 l 283 1119 l 215 1119 l 351 1313 l 430 1313 l 565 1119 z "},"Ề":{"ha":676,"x_min":106,"x_max":650,"o":"m 187 74 l 650 74 l 650 0 l 106 0 l 106 1028 l 643 1028 l 643 954 l 187 954 l 187 565 l 579 565 l 579 491 l 187 491 l 187 74 m 589 1248 l 537 1248 l 437 1433 l 504 1433 l 589 1248 m 351 1308 l 430 1308 l 565 1119 l 497 1119 l 390 1272 l 283 1119 l 215 1119 l 351 1308 z "},"Ể":{"ha":676,"x_min":106,"x_max":682,"o":"m 187 74 l 650 74 l 650 0 l 106 0 l 106 1028 l 643 1028 l 643 954 l 187 954 l 187 565 l 579 565 l 579 491 l 187 491 l 187 74 m 553 1440 q 649 1419 617 1440 q 682 1365 682 1399 q 674 1334 682 1347 q 655 1314 666 1321 q 624 1296 644 1306 q 589 1275 601 1285 q 575 1248 577 1265 l 519 1248 q 538 1292 522 1277 q 583 1320 554 1306 q 615 1339 606 1331 q 625 1361 625 1347 q 608 1386 625 1377 q 549 1394 592 1394 q 487 1389 519 1394 q 426 1371 455 1383 l 426 1416 q 485 1433 450 1427 q 553 1440 519 1440 m 351 1308 l 430 1308 l 565 1119 l 497 1119 l 390 1272 l 283 1119 l 215 1119 l 351 1308 z "},"Ễ":{"ha":676,"x_min":106,"x_max":650,"o":"m 187 74 l 650 74 l 650 0 l 106 0 l 106 1028 l 643 1028 l 643 954 l 187 954 l 187 565 l 579 565 l 579 491 l 187 491 l 187 74 m 471 1390 q 521 1402 499 1390 q 565 1440 543 1414 l 565 1383 q 470 1340 530 1340 q 428 1347 449 1340 q 381 1368 408 1354 q 340 1386 356 1380 q 310 1392 325 1392 q 260 1380 283 1392 q 215 1342 238 1367 l 215 1399 q 310 1442 251 1442 q 353 1434 332 1442 q 400 1413 374 1427 q 441 1395 427 1401 q 471 1390 456 1390 m 351 1308 l 430 1308 l 565 1119 l 497 1119 l 390 1272 l 283 1119 l 215 1119 l 351 1308 z "},"Ȅ":{"ha":676,"x_min":106,"x_max":650,"o":"m 187 74 l 650 74 l 650 0 l 106 0 l 106 1028 l 643 1028 l 643 954 l 187 954 l 187 565 l 579 565 l 579 491 l 187 491 l 187 74 m 261 1119 l 190 1313 l 261 1313 l 324 1119 l 261 1119 m 456 1119 l 385 1313 l 456 1313 l 519 1119 l 456 1119 z "},"Ë":{"ha":676,"x_min":106,"x_max":650,"o":"m 187 74 l 650 74 l 650 0 l 106 0 l 106 1028 l 643 1028 l 643 954 l 187 954 l 187 565 l 579 565 l 579 491 l 187 491 l 187 74 m 258 1161 q 216 1176 231 1161 q 200 1217 200 1191 q 216 1258 200 1242 q 258 1273 232 1273 q 301 1258 285 1273 q 317 1217 317 1242 q 301 1176 317 1191 q 258 1161 285 1161 m 523 1161 q 480 1176 496 1161 q 465 1217 465 1191 q 481 1258 465 1242 q 523 1273 497 1273 q 565 1258 549 1273 q 581 1217 581 1242 q 565 1176 581 1191 q 523 1161 549 1161 z "},"Ė":{"ha":676,"x_min":106,"x_max":650,"o":"m 187 74 l 650 74 l 650 0 l 106 0 l 106 1028 l 643 1028 l 643 954 l 187 954 l 187 565 l 579 565 l 579 491 l 187 491 l 187 74 m 390 1161 q 346 1176 363 1161 q 329 1217 329 1190 q 346 1258 329 1242 q 390 1273 363 1273 q 435 1258 418 1273 q 451 1217 451 1242 q 435 1176 451 1190 q 390 1161 418 1161 z "},"Ẹ":{"ha":676,"x_min":106,"x_max":650,"o":"m 187 74 l 650 74 l 650 0 l 106 0 l 106 1028 l 643 1028 l 643 954 l 187 954 l 187 565 l 579 565 l 579 491 l 187 491 l 187 74 m 390 -231 q 346 -217 363 -231 q 329 -176 329 -202 q 346 -135 329 -150 q 390 -119 363 -119 q 435 -135 418 -119 q 451 -176 451 -150 q 435 -217 451 -202 q 390 -231 418 -231 z "},"È":{"ha":676,"x_min":106,"x_max":650,"o":"m 187 74 l 650 74 l 650 0 l 106 0 l 106 1028 l 643 1028 l 643 954 l 187 954 l 187 565 l 579 565 l 579 491 l 187 491 l 187 74 m 356 1119 l 248 1313 l 333 1313 l 425 1119 l 356 1119 z "},"Ẻ":{"ha":676,"x_min":106,"x_max":650,"o":"m 187 74 l 650 74 l 650 0 l 106 0 l 106 1028 l 643 1028 l 643 954 l 187 954 l 187 565 l 579 565 l 579 491 l 187 491 l 187 74 m 363 1119 q 381 1163 365 1148 q 426 1193 397 1178 q 458 1211 447 1203 q 468 1234 468 1220 q 451 1259 468 1251 q 392 1268 435 1268 q 330 1262 362 1268 q 269 1244 297 1256 l 269 1292 q 328 1309 293 1303 q 396 1315 363 1315 q 492 1295 460 1315 q 525 1239 525 1274 q 510 1198 525 1212 q 467 1169 496 1184 q 432 1146 444 1156 q 418 1119 420 1136 l 363 1119 z "},"Ȇ":{"ha":676,"x_min":106,"x_max":650,"o":"m 187 74 l 650 74 l 650 0 l 106 0 l 106 1028 l 643 1028 l 643 954 l 187 954 l 187 565 l 579 565 l 579 491 l 187 491 l 187 74 m 209 1135 q 261 1263 215 1219 q 389 1306 307 1306 q 518 1263 472 1306 q 572 1135 565 1219 l 514 1135 q 478 1225 507 1198 q 389 1252 449 1252 q 301 1225 330 1252 q 267 1135 272 1197 l 209 1135 z "},"Ē":{"ha":676,"x_min":106,"x_max":650,"o":"m 187 74 l 650 74 l 650 0 l 106 0 l 106 1028 l 643 1028 l 643 954 l 187 954 l 187 565 l 579 565 l 579 491 l 187 491 l 187 74 m 210 1187 l 210 1247 l 572 1247 l 572 1187 l 210 1187 z "},"Ḗ":{"ha":676,"x_min":106,"x_max":650,"o":"m 187 74 l 650 74 l 650 0 l 106 0 l 106 1028 l 643 1028 l 643 954 l 187 954 l 187 565 l 579 565 l 579 491 l 187 491 l 187 74 m 354 1319 l 447 1480 l 535 1480 l 427 1319 l 354 1319 m 210 1187 l 210 1247 l 572 1247 l 572 1187 l 210 1187 z "},"Ḕ":{"ha":676,"x_min":106,"x_max":650,"o":"m 187 74 l 650 74 l 650 0 l 106 0 l 106 1028 l 643 1028 l 643 954 l 187 954 l 187 565 l 579 565 l 579 491 l 187 491 l 187 74 m 354 1319 l 247 1480 l 335 1480 l 427 1319 l 354 1319 m 210 1187 l 210 1247 l 572 1247 l 572 1187 l 210 1187 z "},"Ę":{"ha":676,"x_min":106,"x_max":661,"o":"m 560 -237 q 661 -211 606 -237 l 661 -258 q 556 -284 610 -284 q 447 -252 485 -284 q 409 -162 409 -221 q 433 -76 409 -115 q 508 0 456 -37 l 106 0 l 106 1028 l 643 1028 l 643 954 l 187 954 l 187 565 l 579 565 l 579 491 l 187 491 l 187 74 l 650 74 l 650 0 l 594 0 q 494 -77 523 -40 q 465 -157 465 -114 q 560 -237 465 -237 z "},"Ẽ":{"ha":676,"x_min":106,"x_max":650,"o":"m 187 74 l 650 74 l 650 0 l 106 0 l 106 1028 l 643 1028 l 643 954 l 187 954 l 187 565 l 579 565 l 579 491 l 187 491 l 187 74 m 484 1166 q 437 1173 458 1166 q 381 1195 415 1180 q 334 1215 353 1208 q 297 1221 315 1221 q 243 1208 266 1221 q 197 1170 219 1196 l 197 1233 q 297 1278 234 1278 q 345 1271 323 1278 q 400 1249 367 1264 q 447 1230 428 1236 q 484 1224 465 1224 q 538 1236 515 1224 q 584 1274 562 1249 l 584 1211 q 484 1166 548 1166 z "},"F":{"ha":649,"x_min":106,"x_max":637,"o":"m 637 953 l 187 953 l 187 560 l 574 560 l 574 485 l 187 485 l 187 0 l 106 0 l 106 1028 l 637 1028 l 637 953 z "},"G":{"ha":786,"x_min":63,"x_max":702,"o":"m 702 500 l 702 9 q 521 -8 605 -8 q 266 43 367 -8 q 115 209 166 94 q 63 513 63 324 q 114 820 63 703 q 259 989 165 937 q 492 1040 353 1040 q 688 1013 597 1040 l 688 939 q 494 967 596 967 q 303 925 379 967 q 188 783 228 883 q 149 512 149 683 q 189 247 149 344 q 309 107 229 149 q 516 65 390 65 q 624 74 572 65 l 624 500 l 702 500 z "},"Ǵ":{"ha":786,"x_min":63,"x_max":702,"o":"m 702 500 l 702 9 q 521 -8 605 -8 q 266 43 367 -8 q 115 209 166 94 q 63 513 63 324 q 114 820 63 703 q 259 989 165 937 q 492 1040 353 1040 q 688 1013 597 1040 l 688 939 q 494 967 596 967 q 303 925 379 967 q 188 783 228 883 q 149 512 149 683 q 189 247 149 344 q 309 107 229 149 q 516 65 390 65 q 624 74 572 65 l 624 500 l 702 500 m 408 1119 l 501 1313 l 585 1313 l 478 1119 l 408 1119 z "},"Ğ":{"ha":786,"x_min":63,"x_max":702,"o":"m 702 500 l 702 9 q 521 -8 605 -8 q 266 43 367 -8 q 115 209 166 94 q 63 513 63 324 q 114 820 63 703 q 259 989 165 937 q 492 1040 353 1040 q 688 1013 597 1040 l 688 939 q 494 967 596 967 q 303 925 379 967 q 188 783 228 883 q 149 512 149 683 q 189 247 149 344 q 309 107 229 149 q 516 65 390 65 q 624 74 572 65 l 624 500 l 702 500 m 444 1126 q 315 1169 363 1126 q 262 1296 268 1213 l 319 1296 q 356 1207 326 1234 q 444 1180 385 1180 q 533 1207 504 1180 q 567 1296 562 1234 l 624 1296 q 572 1169 618 1212 q 444 1126 526 1126 z "},"Ǧ":{"ha":786,"x_min":63,"x_max":702,"o":"m 702 500 l 702 9 q 521 -8 605 -8 q 266 43 367 -8 q 115 209 166 94 q 63 513 63 324 q 114 820 63 703 q 259 989 165 937 q 492 1040 353 1040 q 688 1013 597 1040 l 688 939 q 494 967 596 967 q 303 925 379 967 q 188 783 228 883 q 149 512 149 683 q 189 247 149 344 q 309 107 229 149 q 516 65 390 65 q 624 74 572 65 l 624 500 l 702 500 m 550 1313 l 618 1313 l 483 1119 l 403 1119 l 268 1313 l 336 1313 l 443 1158 l 550 1313 z "},"Ĝ":{"ha":786,"x_min":63,"x_max":702,"o":"m 702 500 l 702 9 q 521 -8 605 -8 q 266 43 367 -8 q 115 209 166 94 q 63 513 63 324 q 114 820 63 703 q 259 989 165 937 q 492 1040 353 1040 q 688 1013 597 1040 l 688 939 q 494 967 596 967 q 303 925 379 967 q 188 783 228 883 q 149 512 149 683 q 189 247 149 344 q 309 107 229 149 q 516 65 390 65 q 624 74 572 65 l 624 500 l 702 500 m 618 1119 l 550 1119 l 443 1274 l 336 1119 l 268 1119 l 403 1313 l 483 1313 l 618 1119 z "},"Ģ":{"ha":786,"x_min":63,"x_max":702,"o":"m 702 500 l 702 9 q 521 -8 605 -8 q 266 43 367 -8 q 115 209 166 94 q 63 513 63 324 q 114 820 63 703 q 259 989 165 937 q 492 1040 353 1040 q 688 1013 597 1040 l 688 939 q 494 967 596 967 q 303 925 379 967 q 188 783 228 883 q 149 512 149 683 q 189 247 149 344 q 309 107 229 149 q 516 65 390 65 q 624 74 572 65 l 624 500 l 702 500 m 441 -119 q 486 -137 470 -119 q 501 -188 501 -154 q 492 -252 501 -217 q 467 -318 483 -287 l 415 -318 q 441 -222 438 -264 q 400 -207 415 -221 q 385 -169 385 -192 q 400 -133 385 -147 q 441 -119 415 -119 z "},"Ġ":{"ha":786,"x_min":63,"x_max":702,"o":"m 702 500 l 702 9 q 521 -8 605 -8 q 266 43 367 -8 q 115 209 166 94 q 63 513 63 324 q 114 820 63 703 q 259 989 165 937 q 492 1040 353 1040 q 688 1013 597 1040 l 688 939 q 494 967 596 967 q 303 925 379 967 q 188 783 228 883 q 149 512 149 683 q 189 247 149 344 q 309 107 229 149 q 516 65 390 65 q 624 74 572 65 l 624 500 l 702 500 m 443 1161 q 399 1176 415 1161 q 382 1217 382 1190 q 399 1258 382 1242 q 443 1273 416 1273 q 488 1258 471 1273 q 504 1217 504 1242 q 488 1176 504 1190 q 443 1161 471 1161 z "},"Ḡ":{"ha":786,"x_min":63,"x_max":702,"o":"m 702 500 l 702 9 q 521 -8 605 -8 q 266 43 367 -8 q 115 209 166 94 q 63 513 63 324 q 114 820 63 703 q 259 989 165 937 q 492 1040 353 1040 q 688 1013 597 1040 l 688 939 q 494 967 596 967 q 303 925 379 967 q 188 783 228 883 q 149 512 149 683 q 189 247 149 344 q 309 107 229 149 q 516 65 390 65 q 624 74 572 65 l 624 500 l 702 500 m 263 1187 l 263 1247 l 624 1247 l 624 1187 l 263 1187 z "},"H":{"ha":863,"x_min":106,"x_max":757,"o":"m 106 0 l 106 1028 l 187 1028 l 187 566 l 676 566 l 676 1028 l 757 1028 l 757 0 l 676 0 l 676 490 l 187 490 l 187 0 l 106 0 z "},"Ħ":{"ha":863,"x_min":-3,"x_max":865,"o":"m 865 828 l 865 767 l 757 767 l 757 0 l 676 0 l 676 490 l 187 490 l 187 0 l 106 0 l 106 767 l -3 767 l -3 828 l 106 828 l 106 1028 l 187 1028 l 187 828 l 676 828 l 676 1028 l 757 1028 l 757 828 l 865 828 m 676 566 l 676 767 l 187 767 l 187 566 l 676 566 z "},"Ḫ":{"ha":863,"x_min":106,"x_max":757,"o":"m 106 0 l 106 1028 l 187 1028 l 187 566 l 676 566 l 676 1028 l 757 1028 l 757 0 l 676 0 l 676 490 l 187 490 l 187 0 l 106 0 m 433 -283 q 301 -238 349 -283 q 250 -108 253 -192 l 308 -108 q 342 -200 311 -170 q 433 -229 373 -229 q 523 -200 492 -229 q 555 -108 553 -170 l 613 -108 q 563 -239 610 -194 q 433 -283 517 -283 z "},"Ĥ":{"ha":863,"x_min":106,"x_max":757,"o":"m 106 0 l 106 1028 l 187 1028 l 187 566 l 676 566 l 676 1028 l 757 1028 l 757 0 l 676 0 l 676 490 l 187 490 l 187 0 l 106 0 m 606 1119 l 538 1119 l 431 1274 l 324 1119 l 256 1119 l 392 1313 l 471 1313 l 606 1119 z "},"Ḥ":{"ha":863,"x_min":106,"x_max":757,"o":"m 106 0 l 106 1028 l 187 1028 l 187 566 l 676 566 l 676 1028 l 757 1028 l 757 0 l 676 0 l 676 490 l 187 490 l 187 0 l 106 0 m 431 -231 q 387 -217 403 -231 q 370 -176 370 -202 q 387 -135 370 -150 q 431 -119 404 -119 q 476 -135 459 -119 q 492 -176 492 -150 q 476 -217 492 -202 q 431 -231 459 -231 z "},"I":{"ha":293,"x_min":106,"x_max":187,"o":"m 106 0 l 106 1028 l 187 1028 l 187 0 l 106 0 z "},"Í":{"ha":293,"x_min":106,"x_max":289,"o":"m 106 0 l 106 1028 l 187 1028 l 187 0 l 106 0 m 112 1119 l 205 1313 l 289 1313 l 181 1119 l 112 1119 z "},"Ĭ":{"ha":293,"x_min":-35,"x_max":328,"o":"m 106 0 l 106 1028 l 187 1028 l 187 0 l 106 0 m 148 1126 q 19 1169 66 1126 q -35 1296 -28 1213 l 23 1296 q 59 1207 30 1234 q 148 1180 88 1180 q 236 1207 208 1180 q 270 1296 265 1234 l 328 1296 q 276 1169 322 1212 q 148 1126 230 1126 z "},"Î":{"ha":293,"x_min":-28,"x_max":322,"o":"m 106 0 l 106 1028 l 187 1028 l 187 0 l 106 0 m 322 1119 l 253 1119 l 147 1274 l 40 1119 l -28 1119 l 107 1313 l 186 1313 l 322 1119 z "},"Ȉ":{"ha":293,"x_min":-53,"x_max":276,"o":"m 106 0 l 106 1028 l 187 1028 l 187 0 l 106 0 m 17 1119 l -53 1313 l 17 1313 l 81 1119 l 17 1119 m 213 1119 l 142 1313 l 213 1313 l 276 1119 l 213 1119 z "},"Ï":{"ha":293,"x_min":-44,"x_max":338,"o":"m 106 0 l 106 1028 l 187 1028 l 187 0 l 106 0 m 15 1161 q -28 1176 -12 1161 q -44 1217 -44 1191 q -28 1258 -44 1242 q 15 1273 -12 1273 q 57 1258 41 1273 q 73 1217 73 1242 q 57 1176 73 1191 q 15 1161 41 1161 m 279 1161 q 236 1176 252 1161 q 221 1217 221 1191 q 237 1258 221 1242 q 279 1273 253 1273 q 322 1258 306 1273 q 338 1217 338 1242 q 322 1176 338 1191 q 279 1161 306 1161 z "},"Ḯ":{"ha":293,"x_min":-44,"x_max":338,"o":"m 106 0 l 106 1028 l 187 1028 l 187 0 l 106 0 m 110 1319 l 203 1480 l 291 1480 l 183 1319 l 110 1319 m 15 1161 q -28 1176 -12 1161 q -44 1217 -44 1191 q -28 1258 -44 1242 q 15 1273 -12 1273 q 57 1258 41 1273 q 73 1217 73 1242 q 57 1176 73 1191 q 15 1161 41 1161 m 279 1161 q 236 1176 252 1161 q 221 1217 221 1191 q 237 1258 221 1242 q 279 1273 253 1273 q 322 1258 306 1273 q 338 1217 338 1242 q 322 1176 338 1191 q 279 1161 306 1161 z "},"İ":{"ha":293,"x_min":85,"x_max":208,"o":"m 106 0 l 106 1028 l 187 1028 l 187 0 l 106 0 m 147 1161 q 102 1176 119 1161 q 85 1217 85 1190 q 102 1258 85 1242 q 147 1273 119 1273 q 191 1258 174 1273 q 208 1217 208 1242 q 191 1176 208 1190 q 147 1161 174 1161 z "},"Ị":{"ha":293,"x_min":85,"x_max":208,"o":"m 106 0 l 106 1028 l 187 1028 l 187 0 l 106 0 m 147 -231 q 102 -217 119 -231 q 85 -176 85 -202 q 102 -135 85 -150 q 147 -119 119 -119 q 191 -135 174 -119 q 208 -176 208 -150 q 191 -217 208 -202 q 147 -231 174 -231 z "},"Ì":{"ha":293,"x_min":4,"x_max":187,"o":"m 106 0 l 106 1028 l 187 1028 l 187 0 l 106 0 m 112 1119 l 4 1313 l 89 1313 l 181 1119 l 112 1119 z "},"Ỉ":{"ha":293,"x_min":25,"x_max":281,"o":"m 106 0 l 106 1028 l 187 1028 l 187 0 l 106 0 m 119 1119 q 137 1163 121 1148 q 183 1193 153 1178 q 214 1211 203 1203 q 224 1234 224 1220 q 208 1259 224 1251 q 149 1268 191 1268 q 86 1262 118 1268 q 25 1244 53 1256 l 25 1292 q 84 1309 49 1303 q 152 1315 119 1315 q 249 1295 216 1315 q 281 1239 281 1274 q 267 1198 281 1212 q 224 1169 252 1184 q 188 1146 200 1156 q 174 1119 176 1136 l 119 1119 z "},"Ȋ":{"ha":293,"x_min":-35,"x_max":328,"o":"m 106 0 l 106 1028 l 187 1028 l 187 0 l 106 0 m -35 1135 q 17 1263 -28 1219 q 145 1306 63 1306 q 275 1263 228 1306 q 328 1135 322 1219 l 270 1135 q 234 1225 263 1198 q 145 1252 205 1252 q 57 1225 86 1252 q 23 1135 28 1197 l -35 1135 z "},"Ī":{"ha":293,"x_min":-34,"x_max":328,"o":"m 106 0 l 106 1028 l 187 1028 l 187 0 l 106 0 m -34 1187 l -34 1247 l 328 1247 l 328 1187 l -34 1187 z "},"Į":{"ha":293,"x_min":1,"x_max":253,"o":"m 153 -237 q 253 -211 198 -237 l 253 -258 q 149 -284 202 -284 q 39 -252 77 -284 q 1 -162 1 -221 q 26 -74 1 -114 q 106 4 51 -34 l 106 1028 l 187 1028 l 187 0 q 86 -77 115 -40 q 57 -157 57 -114 q 153 -237 57 -237 z "},"Ĩ":{"ha":293,"x_min":-47,"x_max":340,"o":"m 106 0 l 106 1028 l 187 1028 l 187 0 l 106 0 m 240 1166 q 193 1173 215 1166 q 137 1195 172 1180 q 90 1215 109 1208 q 53 1221 72 1221 q -1 1208 22 1221 q -47 1170 -24 1196 l -47 1233 q 53 1278 -10 1278 q 101 1271 79 1278 q 156 1249 123 1264 q 203 1230 184 1236 q 240 1224 222 1224 q 294 1236 271 1224 q 340 1274 318 1249 l 340 1211 q 240 1166 304 1166 z "},"J":{"ha":293,"x_min":-9,"x_max":187,"o":"m -9 -199 q 80 -12 54 -101 q 106 201 106 76 l 106 1028 l 187 1028 l 187 185 q 152 -35 183 61 q 47 -237 121 -131 l -9 -199 z "},"Ĵ":{"ha":293,"x_min":-28,"x_max":322,"o":"m -9 -199 q 80 -12 54 -101 q 106 201 106 76 l 106 1028 l 187 1028 l 187 185 q 152 -35 183 61 q 47 -237 121 -131 l -9 -199 m 322 1119 l 253 1119 l 147 1274 l 40 1119 l -28 1119 l 107 1313 l 186 1313 l 322 1119 z "},"K":{"ha":743,"x_min":106,"x_max":773,"o":"m 681 0 l 313 490 l 187 490 l 187 0 l 106 0 l 106 1028 l 187 1028 l 187 565 l 314 565 l 654 1028 l 744 1028 l 376 529 l 773 0 l 681 0 z "},"Ķ":{"ha":743,"x_min":106,"x_max":773,"o":"m 681 0 l 313 490 l 187 490 l 187 0 l 106 0 l 106 1028 l 187 1028 l 187 565 l 314 565 l 654 1028 l 744 1028 l 376 529 l 773 0 l 681 0 m 394 -119 q 439 -137 423 -119 q 454 -188 454 -154 q 445 -252 454 -217 q 419 -318 435 -287 l 367 -318 q 394 -222 390 -264 q 353 -207 368 -221 q 338 -169 338 -192 q 352 -133 338 -147 q 394 -119 367 -119 z "},"L":{"ha":633,"x_min":106,"x_max":631,"o":"m 106 0 l 106 1028 l 187 1028 l 187 75 l 631 75 l 631 0 l 106 0 z "},"Ǉ":{"ha":926,"x_min":106,"x_max":820,"o":"m 106 0 l 106 1028 l 187 1028 l 187 75 l 631 75 l 631 0 l 106 0 m 624 -199 q 714 -12 688 -101 q 740 201 740 76 l 740 1028 l 820 1028 l 820 185 q 785 -35 817 61 q 681 -237 754 -131 l 624 -199 z "},"Ĺ":{"ha":633,"x_min":106,"x_max":631,"o":"m 106 0 l 106 1028 l 187 1028 l 187 75 l 631 75 l 631 0 l 106 0 m 113 1119 l 206 1313 l 290 1313 l 182 1119 l 113 1119 z "},"Ľ":{"ha":633,"x_min":106,"x_max":631,"o":"m 106 0 l 106 1028 l 187 1028 l 187 75 l 631 75 l 631 0 l 106 0 m 398 792 q 409 940 406 860 q 412 1122 412 1019 l 476 1122 q 447 792 476 921 l 398 792 z "},"Ļ":{"ha":633,"x_min":106,"x_max":631,"o":"m 106 0 l 106 1028 l 187 1028 l 187 75 l 631 75 l 631 0 l 106 0 m 367 -119 q 411 -137 396 -119 q 427 -188 427 -154 q 418 -252 427 -217 q 392 -318 408 -287 l 340 -318 q 367 -222 363 -264 q 326 -207 341 -221 q 310 -169 310 -192 q 325 -133 310 -147 q 367 -119 340 -119 z "},"Ŀ":{"ha":633,"x_min":106,"x_max":631,"o":"m 106 0 l 106 1028 l 187 1028 l 187 75 l 631 75 l 631 0 l 106 0 m 461 490 q 416 506 433 490 q 400 549 400 522 q 416 592 400 576 q 461 608 433 608 q 506 592 490 608 q 522 549 522 576 q 506 506 522 522 q 461 490 490 490 z "},"Ḷ":{"ha":633,"x_min":106,"x_max":631,"o":"m 106 0 l 106 1028 l 187 1028 l 187 75 l 631 75 l 631 0 l 106 0 m 369 -231 q 324 -217 341 -231 q 308 -176 308 -202 q 325 -135 308 -150 q 369 -119 342 -119 q 413 -135 397 -119 q 430 -176 430 -150 q 413 -217 430 -202 q 369 -231 397 -231 z "},"ǈ":{"ha":900,"x_min":106,"x_max":828,"o":"m 106 0 l 106 1028 l 187 1028 l 187 75 l 631 75 l 631 0 l 106 0 m 612 -283 q 700 -97 674 -185 q 726 117 726 -8 l 726 752 l 807 752 l 807 124 q 793 -42 807 31 q 749 -181 778 -115 q 668 -321 719 -247 l 612 -283 m 767 928 q 722 944 738 928 q 706 987 706 960 q 722 1030 706 1014 q 767 1047 738 1047 q 811 1030 795 1047 q 828 987 828 1014 q 811 944 828 960 q 767 928 795 928 z "},"Ḻ":{"ha":633,"x_min":106,"x_max":631,"o":"m 106 0 l 106 1028 l 187 1028 l 187 75 l 631 75 l 631 0 l 106 0 m 188 -204 l 188 -144 l 550 -144 l 550 -204 l 188 -204 z "},"Ł":{"ha":638,"x_min":-6,"x_max":635,"o":"m 191 75 l 635 75 l 635 0 l 110 0 l 110 468 l 29 397 l -6 446 l 110 549 l 110 1028 l 191 1028 l 191 619 l 355 763 l 390 713 l 191 538 l 191 75 z "},"M":{"ha":1076,"x_min":109,"x_max":967,"o":"m 872 1028 l 967 1028 l 967 0 l 890 0 l 890 890 l 576 141 l 499 141 l 186 882 l 186 0 l 109 0 l 109 1028 l 204 1028 l 540 227 l 872 1028 z "},"Ṃ":{"ha":1076,"x_min":109,"x_max":967,"o":"m 872 1028 l 967 1028 l 967 0 l 890 0 l 890 890 l 576 141 l 499 141 l 186 882 l 186 0 l 109 0 l 109 1028 l 204 1028 l 540 227 l 872 1028 m 541 -231 q 497 -217 513 -231 q 480 -176 480 -202 q 497 -135 480 -150 q 541 -119 514 -119 q 585 -135 569 -119 q 602 -176 602 -150 q 585 -217 602 -202 q 541 -231 569 -231 z "},"N":{"ha":881,"x_min":106,"x_max":774,"o":"m 697 1028 l 774 1028 l 774 0 l 689 0 l 183 891 l 183 0 l 106 0 l 106 1028 l 192 1028 l 697 137 l 697 1028 z "},"Ǌ":{"ha":1174,"x_min":106,"x_max":1067,"o":"m 697 1028 l 774 1028 l 774 0 l 689 0 l 183 891 l 183 0 l 106 0 l 106 1028 l 192 1028 l 697 137 l 697 1028 m 872 -199 q 961 -12 935 -101 q 987 201 987 76 l 987 1028 l 1067 1028 l 1067 185 q 1033 -35 1064 61 q 928 -237 1001 -131 l 872 -199 z "},"Ń":{"ha":881,"x_min":106,"x_max":774,"o":"m 697 1028 l 774 1028 l 774 0 l 689 0 l 183 891 l 183 0 l 106 0 l 106 1028 l 192 1028 l 697 137 l 697 1028 m 406 1119 l 499 1313 l 583 1313 l 475 1119 l 406 1119 z "},"Ň":{"ha":881,"x_min":106,"x_max":774,"o":"m 697 1028 l 774 1028 l 774 0 l 689 0 l 183 891 l 183 0 l 106 0 l 106 1028 l 192 1028 l 697 137 l 697 1028 m 547 1313 l 615 1313 l 480 1119 l 401 1119 l 265 1313 l 333 1313 l 440 1158 l 547 1313 z "},"Ņ":{"ha":881,"x_min":106,"x_max":774,"o":"m 697 1028 l 774 1028 l 774 0 l 689 0 l 183 891 l 183 0 l 106 0 l 106 1028 l 192 1028 l 697 137 l 697 1028 m 438 -119 q 483 -137 467 -119 q 499 -188 499 -154 q 489 -252 499 -217 q 464 -318 480 -287 l 412 -318 q 438 -222 435 -264 q 397 -207 413 -221 q 382 -169 382 -192 q 397 -133 382 -147 q 438 -119 412 -119 z "},"Ṅ":{"ha":881,"x_min":106,"x_max":774,"o":"m 697 1028 l 774 1028 l 774 0 l 689 0 l 183 891 l 183 0 l 106 0 l 106 1028 l 192 1028 l 697 137 l 697 1028 m 440 1161 q 396 1176 413 1161 q 379 1217 379 1190 q 396 1258 379 1242 q 440 1273 413 1273 q 485 1258 468 1273 q 501 1217 501 1242 q 485 1176 501 1190 q 440 1161 468 1161 z "},"Ṇ":{"ha":881,"x_min":106,"x_max":774,"o":"m 697 1028 l 774 1028 l 774 0 l 689 0 l 183 891 l 183 0 l 106 0 l 106 1028 l 192 1028 l 697 137 l 697 1028 m 440 -231 q 396 -217 413 -231 q 379 -176 379 -202 q 396 -135 379 -150 q 440 -119 413 -119 q 485 -135 468 -119 q 501 -176 501 -150 q 485 -217 501 -202 q 440 -231 468 -231 z "},"Ŋ":{"ha":881,"x_min":106,"x_max":774,"o":"m 774 1028 l 774 128 q 760 -41 774 33 q 716 -181 746 -115 q 635 -321 686 -247 l 579 -283 q 653 -144 627 -210 q 690 -3 680 -79 l 183 891 l 183 0 l 106 0 l 106 1028 l 192 1028 l 697 138 l 697 1028 l 774 1028 z "},"ǋ":{"ha":1147,"x_min":106,"x_max":1075,"o":"m 697 1028 l 774 1028 l 774 0 l 689 0 l 183 891 l 183 0 l 106 0 l 106 1028 l 192 1028 l 697 137 l 697 1028 m 859 -283 q 948 -97 922 -185 q 974 117 974 -8 l 974 752 l 1054 752 l 1054 124 q 1040 -42 1054 31 q 996 -181 1026 -115 q 915 -321 966 -247 l 859 -283 m 1014 928 q 969 944 985 928 q 953 987 953 960 q 969 1030 953 1014 q 1014 1047 985 1047 q 1059 1030 1042 1047 q 1075 987 1075 1014 q 1059 944 1075 960 q 1014 928 1042 928 z "},"Ṉ":{"ha":881,"x_min":106,"x_max":774,"o":"m 697 1028 l 774 1028 l 774 0 l 689 0 l 183 891 l 183 0 l 106 0 l 106 1028 l 192 1028 l 697 137 l 697 1028 m 260 -204 l 260 -144 l 622 -144 l 622 -204 l 260 -204 z "},"Ñ":{"ha":881,"x_min":106,"x_max":774,"o":"m 697 1028 l 774 1028 l 774 0 l 689 0 l 183 891 l 183 0 l 106 0 l 106 1028 l 192 1028 l 697 137 l 697 1028 m 534 1166 q 487 1173 508 1166 q 431 1195 465 1180 q 384 1215 403 1208 q 347 1221 365 1221 q 293 1208 316 1221 q 247 1170 269 1196 l 247 1233 q 347 1278 284 1278 q 395 1271 373 1278 q 450 1249 417 1264 q 497 1230 478 1236 q 534 1224 515 1224 q 588 1236 565 1224 q 634 1274 612 1249 l 634 1211 q 534 1166 598 1166 z "},"O":{"ha":833,"x_min":63,"x_max":769,"o":"m 417 -12 q 155 112 247 -12 q 63 514 63 237 q 155 916 63 791 q 417 1040 247 1040 q 678 916 586 1040 q 769 514 769 791 q 678 112 769 237 q 417 -12 586 -12 m 417 60 q 561 102 502 60 q 652 244 620 144 q 685 510 685 343 q 652 782 685 681 q 561 925 620 883 q 417 967 502 967 q 272 925 331 967 q 180 784 213 883 q 148 517 148 685 q 180 246 148 347 q 272 103 213 145 q 417 60 331 60 z "},"Ó":{"ha":833,"x_min":63,"x_max":769,"o":"m 417 -12 q 155 112 247 -12 q 63 514 63 237 q 155 916 63 791 q 417 1040 247 1040 q 678 916 586 1040 q 769 514 769 791 q 678 112 769 237 q 417 -12 586 -12 m 417 60 q 561 102 502 60 q 652 244 620 144 q 685 510 685 343 q 652 782 685 681 q 561 925 620 883 q 417 967 502 967 q 272 925 331 967 q 180 784 213 883 q 148 517 148 685 q 180 246 148 347 q 272 103 213 145 q 417 60 331 60 m 382 1119 l 475 1313 l 559 1313 l 451 1119 l 382 1119 z "},"Ŏ":{"ha":833,"x_min":63,"x_max":769,"o":"m 417 -12 q 155 112 247 -12 q 63 514 63 237 q 155 916 63 791 q 417 1040 247 1040 q 678 916 586 1040 q 769 514 769 791 q 678 112 769 237 q 417 -12 586 -12 m 417 60 q 561 102 502 60 q 652 244 620 144 q 685 510 685 343 q 652 782 685 681 q 561 925 620 883 q 417 967 502 967 q 272 925 331 967 q 180 784 213 883 q 148 517 148 685 q 180 246 148 347 q 272 103 213 145 q 417 60 331 60 m 418 1126 q 289 1169 336 1126 q 235 1296 242 1213 l 293 1296 q 329 1207 300 1234 q 418 1180 358 1180 q 507 1207 478 1180 q 540 1296 535 1234 l 598 1296 q 546 1169 592 1212 q 418 1126 500 1126 z "},"Ô":{"ha":833,"x_min":63,"x_max":769,"o":"m 417 -12 q 155 112 247 -12 q 63 514 63 237 q 155 916 63 791 q 417 1040 247 1040 q 678 916 586 1040 q 769 514 769 791 q 678 112 769 237 q 417 -12 586 -12 m 417 60 q 561 102 502 60 q 652 244 620 144 q 685 510 685 343 q 652 782 685 681 q 561 925 620 883 q 417 967 502 967 q 272 925 331 967 q 180 784 213 883 q 148 517 148 685 q 180 246 148 347 q 272 103 213 145 q 417 60 331 60 m 592 1119 l 524 1119 l 417 1274 l 310 1119 l 242 1119 l 377 1313 l 456 1313 l 592 1119 z "},"Ố":{"ha":833,"x_min":63,"x_max":769,"o":"m 417 -12 q 155 112 247 -12 q 63 514 63 237 q 155 916 63 791 q 417 1040 247 1040 q 678 916 586 1040 q 769 514 769 791 q 678 112 769 237 q 417 -12 586 -12 m 417 60 q 561 102 502 60 q 652 244 620 144 q 685 510 685 343 q 652 782 685 681 q 561 925 620 883 q 417 967 502 967 q 272 925 331 967 q 180 784 213 883 q 148 517 148 685 q 180 246 148 347 q 272 103 213 145 q 417 60 331 60 m 632 1433 l 699 1433 l 599 1248 l 547 1248 l 632 1433 m 377 1308 l 456 1308 l 592 1119 l 524 1119 l 417 1272 l 310 1119 l 242 1119 l 377 1308 z "},"Ộ":{"ha":833,"x_min":63,"x_max":769,"o":"m 417 -12 q 155 112 247 -12 q 63 514 63 237 q 155 916 63 791 q 417 1040 247 1040 q 678 916 586 1040 q 769 514 769 791 q 678 112 769 237 q 417 -12 586 -12 m 417 60 q 561 102 502 60 q 652 244 620 144 q 685 510 685 343 q 652 782 685 681 q 561 925 620 883 q 417 967 502 967 q 272 925 331 967 q 180 784 213 883 q 148 517 148 685 q 180 246 148 347 q 272 103 213 145 q 417 60 331 60 m 417 -231 q 372 -217 389 -231 q 356 -176 356 -202 q 373 -135 356 -150 q 417 -119 390 -119 q 461 -135 444 -119 q 478 -176 478 -150 q 461 -217 478 -202 q 417 -231 444 -231 m 592 1119 l 524 1119 l 417 1274 l 310 1119 l 242 1119 l 377 1313 l 456 1313 l 592 1119 z "},"Ồ":{"ha":833,"x_min":63,"x_max":769,"o":"m 417 -12 q 155 112 247 -12 q 63 514 63 237 q 155 916 63 791 q 417 1040 247 1040 q 678 916 586 1040 q 769 514 769 791 q 678 112 769 237 q 417 -12 586 -12 m 417 60 q 561 102 502 60 q 652 244 620 144 q 685 510 685 343 q 652 782 685 681 q 561 925 620 883 q 417 967 502 967 q 272 925 331 967 q 180 784 213 883 q 148 517 148 685 q 180 246 148 347 q 272 103 213 145 q 417 60 331 60 m 615 1248 l 563 1248 l 463 1433 l 531 1433 l 615 1248 m 377 1308 l 456 1308 l 592 1119 l 524 1119 l 417 1272 l 310 1119 l 242 1119 l 377 1308 z "},"Ổ":{"ha":833,"x_min":63,"x_max":769,"o":"m 417 -12 q 155 112 247 -12 q 63 514 63 237 q 155 916 63 791 q 417 1040 247 1040 q 678 916 586 1040 q 769 514 769 791 q 678 112 769 237 q 417 -12 586 -12 m 417 60 q 561 102 502 60 q 652 244 620 144 q 685 510 685 343 q 652 782 685 681 q 561 925 620 883 q 417 967 502 967 q 272 925 331 967 q 180 784 213 883 q 148 517 148 685 q 180 246 148 347 q 272 103 213 145 q 417 60 331 60 m 579 1440 q 676 1419 643 1440 q 708 1365 708 1399 q 700 1334 708 1347 q 681 1314 692 1321 q 651 1296 670 1306 q 615 1275 627 1285 q 601 1248 603 1265 l 546 1248 q 564 1292 548 1277 q 610 1320 581 1306 q 642 1339 632 1331 q 651 1361 651 1347 q 635 1386 651 1377 q 576 1394 618 1394 q 514 1389 546 1394 q 452 1371 481 1383 l 452 1416 q 511 1433 476 1427 q 579 1440 546 1440 m 377 1308 l 456 1308 l 592 1119 l 524 1119 l 417 1272 l 310 1119 l 242 1119 l 377 1308 z "},"Ỗ":{"ha":833,"x_min":63,"x_max":769,"o":"m 417 -12 q 155 112 247 -12 q 63 514 63 237 q 155 916 63 791 q 417 1040 247 1040 q 678 916 586 1040 q 769 514 769 791 q 678 112 769 237 q 417 -12 586 -12 m 417 60 q 561 102 502 60 q 652 244 620 144 q 685 510 685 343 q 652 782 685 681 q 561 925 620 883 q 417 967 502 967 q 272 925 331 967 q 180 784 213 883 q 148 517 148 685 q 180 246 148 347 q 272 103 213 145 q 417 60 331 60 m 497 1390 q 547 1402 525 1390 q 592 1440 569 1414 l 592 1383 q 497 1340 556 1340 q 455 1347 475 1340 q 407 1368 435 1354 q 367 1386 382 1380 q 337 1392 351 1392 q 286 1380 309 1392 q 242 1342 264 1367 l 242 1399 q 337 1442 277 1442 q 379 1434 358 1442 q 426 1413 400 1427 q 468 1395 453 1401 q 497 1390 482 1390 m 377 1308 l 456 1308 l 592 1119 l 524 1119 l 417 1272 l 310 1119 l 242 1119 l 377 1308 z "},"Ȍ":{"ha":833,"x_min":63,"x_max":769,"o":"m 417 -12 q 155 112 247 -12 q 63 514 63 237 q 155 916 63 791 q 417 1040 247 1040 q 678 916 586 1040 q 769 514 769 791 q 678 112 769 237 q 417 -12 586 -12 m 417 60 q 561 102 502 60 q 652 244 620 144 q 685 510 685 343 q 652 782 685 681 q 561 925 620 883 q 417 967 502 967 q 272 925 331 967 q 180 784 213 883 q 148 517 148 685 q 180 246 148 347 q 272 103 213 145 q 417 60 331 60 m 288 1119 l 217 1313 l 288 1313 l 351 1119 l 288 1119 m 483 1119 l 412 1313 l 483 1313 l 546 1119 l 483 1119 z "},"Ö":{"ha":833,"x_min":63,"x_max":769,"o":"m 417 -12 q 155 112 247 -12 q 63 514 63 237 q 155 916 63 791 q 417 1040 247 1040 q 678 916 586 1040 q 769 514 769 791 q 678 112 769 237 q 417 -12 586 -12 m 417 60 q 561 102 502 60 q 652 244 620 144 q 685 510 685 343 q 652 782 685 681 q 561 925 620 883 q 417 967 502 967 q 272 925 331 967 q 180 784 213 883 q 148 517 148 685 q 180 246 148 347 q 272 103 213 145 q 417 60 331 60 m 285 1161 q 242 1176 258 1161 q 226 1217 226 1191 q 242 1258 226 1242 q 285 1273 258 1273 q 327 1258 311 1273 q 343 1217 343 1242 q 327 1176 343 1191 q 285 1161 311 1161 m 549 1161 q 507 1176 522 1161 q 491 1217 491 1191 q 507 1258 491 1242 q 549 1273 523 1273 q 592 1258 576 1273 q 608 1217 608 1242 q 592 1176 608 1191 q 549 1161 576 1161 z "},"Ȫ":{"ha":833,"x_min":63,"x_max":769,"o":"m 417 -12 q 155 112 247 -12 q 63 514 63 237 q 155 916 63 791 q 417 1040 247 1040 q 678 916 586 1040 q 769 514 769 791 q 678 112 769 237 q 417 -12 586 -12 m 417 60 q 561 102 502 60 q 652 244 620 144 q 685 510 685 343 q 652 782 685 681 q 561 925 620 883 q 417 967 502 967 q 272 925 331 967 q 180 784 213 883 q 148 517 148 685 q 180 246 148 347 q 272 103 213 145 q 417 60 331 60 m 285 1161 q 242 1176 258 1161 q 226 1217 226 1191 q 242 1258 226 1242 q 285 1273 258 1273 q 327 1258 311 1273 q 343 1217 343 1242 q 327 1176 343 1191 q 285 1161 311 1161 m 549 1161 q 507 1176 522 1161 q 491 1217 491 1191 q 507 1258 491 1242 q 549 1273 523 1273 q 592 1258 576 1273 q 608 1217 608 1242 q 592 1176 608 1191 q 549 1161 576 1161 m 236 1387 l 236 1447 l 598 1447 l 598 1387 l 236 1387 z "},"Ȱ":{"ha":833,"x_min":63,"x_max":769,"o":"m 417 -12 q 155 112 247 -12 q 63 514 63 237 q 155 916 63 791 q 417 1040 247 1040 q 678 916 586 1040 q 769 514 769 791 q 678 112 769 237 q 417 -12 586 -12 m 417 60 q 561 102 502 60 q 652 244 620 144 q 685 510 685 343 q 652 782 685 681 q 561 925 620 883 q 417 967 502 967 q 272 925 331 967 q 180 784 213 883 q 148 517 148 685 q 180 246 148 347 q 272 103 213 145 q 417 60 331 60 m 417 1161 q 372 1176 389 1161 q 356 1217 356 1190 q 373 1258 356 1242 q 417 1273 390 1273 q 461 1258 444 1273 q 478 1217 478 1242 q 461 1176 478 1190 q 417 1161 444 1161 m 236 1387 l 236 1447 l 598 1447 l 598 1387 l 236 1387 z "},"Ọ":{"ha":833,"x_min":63,"x_max":769,"o":"m 417 -12 q 155 112 247 -12 q 63 514 63 237 q 155 916 63 791 q 417 1040 247 1040 q 678 916 586 1040 q 769 514 769 791 q 678 112 769 237 q 417 -12 586 -12 m 417 60 q 561 102 502 60 q 652 244 620 144 q 685 510 685 343 q 652 782 685 681 q 561 925 620 883 q 417 967 502 967 q 272 925 331 967 q 180 784 213 883 q 148 517 148 685 q 180 246 148 347 q 272 103 213 145 q 417 60 331 60 m 417 -231 q 372 -217 389 -231 q 356 -176 356 -202 q 373 -135 356 -150 q 417 -119 390 -119 q 461 -135 444 -119 q 478 -176 478 -150 q 461 -217 478 -202 q 417 -231 444 -231 z "},"Ò":{"ha":833,"x_min":63,"x_max":769,"o":"m 417 -12 q 155 112 247 -12 q 63 514 63 237 q 155 916 63 791 q 417 1040 247 1040 q 678 916 586 1040 q 769 514 769 791 q 678 112 769 237 q 417 -12 586 -12 m 417 60 q 561 102 502 60 q 652 244 620 144 q 685 510 685 343 q 652 782 685 681 q 561 925 620 883 q 417 967 502 967 q 272 925 331 967 q 180 784 213 883 q 148 517 148 685 q 180 246 148 347 q 272 103 213 145 q 417 60 331 60 m 382 1119 l 274 1313 l 359 1313 l 451 1119 l 382 1119 z "},"Ỏ":{"ha":833,"x_min":63,"x_max":769,"o":"m 417 -12 q 155 112 247 -12 q 63 514 63 237 q 155 916 63 791 q 417 1040 247 1040 q 678 916 586 1040 q 769 514 769 791 q 678 112 769 237 q 417 -12 586 -12 m 417 60 q 561 102 502 60 q 652 244 620 144 q 685 510 685 343 q 652 782 685 681 q 561 925 620 883 q 417 967 502 967 q 272 925 331 967 q 180 784 213 883 q 148 517 148 685 q 180 246 148 347 q 272 103 213 145 q 417 60 331 60 m 390 1119 q 407 1163 391 1148 q 453 1193 424 1178 q 484 1211 474 1203 q 494 1234 494 1220 q 478 1259 494 1251 q 419 1268 461 1268 q 356 1262 388 1268 q 295 1244 324 1256 l 295 1292 q 354 1309 319 1303 q 422 1315 389 1315 q 519 1295 486 1315 q 551 1239 551 1274 q 537 1198 551 1212 q 494 1169 522 1184 q 458 1146 470 1156 q 444 1119 447 1136 l 390 1119 z "},"Ơ":{"ha":833,"x_min":63,"x_max":772,"o":"m 628 969 q 769 514 769 852 q 677 112 769 237 q 417 -12 585 -12 q 156 112 248 -12 q 63 514 63 237 q 155 916 63 791 q 417 1040 247 1040 q 513 1032 459 1040 q 584 1026 556 1026 q 672 1052 639 1026 q 704 1135 704 1079 q 700 1184 704 1161 q 688 1233 697 1206 l 755 1233 q 768 1184 764 1208 q 772 1131 772 1161 q 732 1019 772 1061 q 628 969 693 978 m 417 60 q 561 102 502 60 q 652 244 620 144 q 685 510 685 343 q 652 782 685 681 q 561 925 620 883 q 417 967 502 967 q 272 925 331 967 q 180 784 213 883 q 148 517 148 685 q 180 246 148 347 q 272 103 213 145 q 417 60 331 60 z "},"Ớ":{"ha":833,"x_min":63,"x_max":772,"o":"m 628 969 q 769 514 769 852 q 677 112 769 237 q 417 -12 585 -12 q 156 112 248 -12 q 63 514 63 237 q 155 916 63 791 q 417 1040 247 1040 q 513 1032 459 1040 q 584 1026 556 1026 q 672 1052 639 1026 q 704 1135 704 1079 q 700 1184 704 1161 q 688 1233 697 1206 l 755 1233 q 768 1184 764 1208 q 772 1131 772 1161 q 732 1019 772 1061 q 628 969 693 978 m 417 60 q 561 102 502 60 q 652 244 620 144 q 685 510 685 343 q 652 782 685 681 q 561 925 620 883 q 417 967 502 967 q 272 925 331 967 q 180 784 213 883 q 148 517 148 685 q 180 246 148 347 q 272 103 213 145 q 417 60 331 60 m 382 1119 l 475 1313 l 559 1313 l 451 1119 l 382 1119 z "},"Ợ":{"ha":833,"x_min":63,"x_max":772,"o":"m 628 969 q 769 514 769 852 q 677 112 769 237 q 417 -12 585 -12 q 156 112 248 -12 q 63 514 63 237 q 155 916 63 791 q 417 1040 247 1040 q 513 1032 459 1040 q 584 1026 556 1026 q 672 1052 639 1026 q 704 1135 704 1079 q 700 1184 704 1161 q 688 1233 697 1206 l 755 1233 q 768 1184 764 1208 q 772 1131 772 1161 q 732 1019 772 1061 q 628 969 693 978 m 417 60 q 561 102 502 60 q 652 244 620 144 q 685 510 685 343 q 652 782 685 681 q 561 925 620 883 q 417 967 502 967 q 272 925 331 967 q 180 784 213 883 q 148 517 148 685 q 180 246 148 347 q 272 103 213 145 q 417 60 331 60 m 417 -231 q 372 -217 389 -231 q 356 -176 356 -202 q 373 -135 356 -150 q 417 -119 390 -119 q 461 -135 444 -119 q 478 -176 478 -150 q 461 -217 478 -202 q 417 -231 444 -231 z "},"Ờ":{"ha":833,"x_min":63,"x_max":772,"o":"m 628 969 q 769 514 769 852 q 677 112 769 237 q 417 -12 585 -12 q 156 112 248 -12 q 63 514 63 237 q 155 916 63 791 q 417 1040 247 1040 q 513 1032 459 1040 q 584 1026 556 1026 q 672 1052 639 1026 q 704 1135 704 1079 q 700 1184 704 1161 q 688 1233 697 1206 l 755 1233 q 768 1184 764 1208 q 772 1131 772 1161 q 732 1019 772 1061 q 628 969 693 978 m 417 60 q 561 102 502 60 q 652 244 620 144 q 685 510 685 343 q 652 782 685 681 q 561 925 620 883 q 417 967 502 967 q 272 925 331 967 q 180 784 213 883 q 148 517 148 685 q 180 246 148 347 q 272 103 213 145 q 417 60 331 60 m 382 1119 l 274 1313 l 359 1313 l 451 1119 l 382 1119 z "},"Ở":{"ha":833,"x_min":63,"x_max":772,"o":"m 628 969 q 769 514 769 852 q 677 112 769 237 q 417 -12 585 -12 q 156 112 248 -12 q 63 514 63 237 q 155 916 63 791 q 417 1040 247 1040 q 513 1032 459 1040 q 584 1026 556 1026 q 672 1052 639 1026 q 704 1135 704 1079 q 700 1184 704 1161 q 688 1233 697 1206 l 755 1233 q 768 1184 764 1208 q 772 1131 772 1161 q 732 1019 772 1061 q 628 969 693 978 m 417 60 q 561 102 502 60 q 652 244 620 144 q 685 510 685 343 q 652 782 685 681 q 561 925 620 883 q 417 967 502 967 q 272 925 331 967 q 180 784 213 883 q 148 517 148 685 q 180 246 148 347 q 272 103 213 145 q 417 60 331 60 m 390 1119 q 407 1163 391 1148 q 453 1193 424 1178 q 484 1211 474 1203 q 494 1234 494 1220 q 478 1259 494 1251 q 419 1268 461 1268 q 356 1262 388 1268 q 295 1244 324 1256 l 295 1292 q 354 1309 319 1303 q 422 1315 389 1315 q 519 1295 486 1315 q 551 1239 551 1274 q 537 1198 551 1212 q 494 1169 522 1184 q 458 1146 470 1156 q 444 1119 447 1136 l 390 1119 z "},"Ỡ":{"ha":833,"x_min":63,"x_max":772,"o":"m 324 1221 q 272 1208 294 1221 q 226 1170 249 1196 l 226 1233 q 325 1278 263 1278 q 371 1272 350 1278 q 426 1249 392 1265 q 472 1230 453 1236 q 508 1224 490 1224 q 561 1236 538 1224 q 606 1274 584 1249 l 606 1211 q 508 1166 570 1166 q 461 1173 483 1166 q 407 1195 439 1181 q 361 1214 380 1208 q 324 1221 343 1221 m 628 969 q 769 514 769 852 q 677 112 769 237 q 417 -12 585 -12 q 156 112 248 -12 q 63 514 63 237 q 155 916 63 791 q 417 1040 247 1040 q 513 1032 459 1040 q 584 1026 556 1026 q 672 1052 639 1026 q 704 1135 704 1079 q 700 1184 704 1161 q 688 1233 697 1206 l 755 1233 q 768 1184 764 1208 q 772 1131 772 1161 q 732 1019 772 1061 q 628 969 693 978 m 417 60 q 561 102 502 60 q 652 244 620 144 q 685 510 685 343 q 652 782 685 681 q 561 925 620 883 q 417 967 502 967 q 272 925 331 967 q 180 784 213 883 q 148 517 148 685 q 180 246 148 347 q 272 103 213 145 q 417 60 331 60 z "},"Ő":{"ha":833,"x_min":63,"x_max":769,"o":"m 417 -12 q 155 112 247 -12 q 63 514 63 237 q 155 916 63 791 q 417 1040 247 1040 q 678 916 586 1040 q 769 514 769 791 q 678 112 769 237 q 417 -12 586 -12 m 417 60 q 561 102 502 60 q 652 244 620 144 q 685 510 685 343 q 652 782 685 681 q 561 925 620 883 q 417 967 502 967 q 272 925 331 967 q 180 784 213 883 q 148 517 148 685 q 180 246 148 347 q 272 103 213 145 q 417 60 331 60 m 288 1119 l 351 1313 l 422 1313 l 351 1119 l 288 1119 m 483 1119 l 546 1313 l 617 1313 l 546 1119 l 483 1119 z "},"Ȏ":{"ha":833,"x_min":63,"x_max":769,"o":"m 417 -12 q 155 112 247 -12 q 63 514 63 237 q 155 916 63 791 q 417 1040 247 1040 q 678 916 586 1040 q 769 514 769 791 q 678 112 769 237 q 417 -12 586 -12 m 417 60 q 561 102 502 60 q 652 244 620 144 q 685 510 685 343 q 652 782 685 681 q 561 925 620 883 q 417 967 502 967 q 272 925 331 967 q 180 784 213 883 q 148 517 148 685 q 180 246 148 347 q 272 103 213 145 q 417 60 331 60 m 235 1135 q 288 1263 242 1219 q 415 1306 333 1306 q 545 1263 498 1306 q 598 1135 592 1219 l 540 1135 q 504 1225 533 1198 q 415 1252 475 1252 q 327 1225 356 1252 q 293 1135 298 1197 l 235 1135 z "},"Ō":{"ha":833,"x_min":63,"x_max":769,"o":"m 417 -12 q 155 112 247 -12 q 63 514 63 237 q 155 916 63 791 q 417 1040 247 1040 q 678 916 586 1040 q 769 514 769 791 q 678 112 769 237 q 417 -12 586 -12 m 417 60 q 561 102 502 60 q 652 244 620 144 q 685 510 685 343 q 652 782 685 681 q 561 925 620 883 q 417 967 502 967 q 272 925 331 967 q 180 784 213 883 q 148 517 148 685 q 180 246 148 347 q 272 103 213 145 q 417 60 331 60 m 236 1187 l 236 1247 l 598 1247 l 598 1187 l 236 1187 z "},"Ṓ":{"ha":833,"x_min":63,"x_max":769,"o":"m 417 -12 q 155 112 247 -12 q 63 514 63 237 q 155 916 63 791 q 417 1040 247 1040 q 678 916 586 1040 q 769 514 769 791 q 678 112 769 237 q 417 -12 586 -12 m 417 60 q 561 102 502 60 q 652 244 620 144 q 685 510 685 343 q 652 782 685 681 q 561 925 620 883 q 417 967 502 967 q 272 925 331 967 q 180 784 213 883 q 148 517 148 685 q 180 246 148 347 q 272 103 213 145 q 417 60 331 60 m 381 1319 l 473 1480 l 561 1480 l 453 1319 l 381 1319 m 236 1187 l 236 1247 l 598 1247 l 598 1187 l 236 1187 z "},"Ṑ":{"ha":833,"x_min":63,"x_max":769,"o":"m 417 -12 q 155 112 247 -12 q 63 514 63 237 q 155 916 63 791 q 417 1040 247 1040 q 678 916 586 1040 q 769 514 769 791 q 678 112 769 237 q 417 -12 586 -12 m 417 60 q 561 102 502 60 q 652 244 620 144 q 685 510 685 343 q 652 782 685 681 q 561 925 620 883 q 417 967 502 967 q 272 925 331 967 q 180 784 213 883 q 148 517 148 685 q 180 246 148 347 q 272 103 213 145 q 417 60 331 60 m 381 1319 l 273 1480 l 361 1480 l 453 1319 l 381 1319 m 236 1187 l 236 1247 l 598 1247 l 598 1187 l 236 1187 z "},"Ǫ":{"ha":833,"x_min":63,"x_max":769,"o":"m 546 8 q 431 -67 467 -25 q 394 -157 394 -109 q 490 -237 394 -237 q 590 -211 534 -237 l 590 -258 q 485 -284 539 -284 q 375 -252 414 -284 q 337 -162 337 -221 q 424 -12 337 -73 l 417 -12 q 156 112 248 -12 q 63 514 63 237 q 155 916 63 791 q 417 1040 247 1040 q 678 916 586 1040 q 769 514 769 791 q 712 174 769 294 q 546 8 654 53 m 148 517 q 180 246 148 347 q 272 103 213 145 q 417 60 331 60 q 561 102 502 60 q 652 244 620 144 q 685 510 685 343 q 652 782 685 681 q 561 925 620 883 q 417 967 502 967 q 272 925 331 967 q 180 784 213 883 q 148 517 148 685 z "},"Ø":{"ha":833,"x_min":63,"x_max":769,"o":"m 688 900 q 769 514 769 771 q 678 112 769 237 q 417 -12 586 -12 q 183 77 269 -12 l 126 -16 l 76 15 l 145 127 q 63 514 63 258 q 155 916 63 791 q 417 1040 247 1040 q 649 950 565 1040 l 707 1044 l 757 1013 l 688 900 m 148 517 q 194 207 148 317 l 606 879 q 525 947 572 926 q 417 967 478 967 q 272 925 331 967 q 180 784 213 883 q 148 517 148 685 m 417 60 q 561 102 502 60 q 652 244 620 144 q 685 510 685 343 q 639 820 685 709 l 227 149 q 308 81 261 102 q 417 60 356 60 z "},"Ǿ":{"ha":833,"x_min":63,"x_max":769,"o":"m 688 900 q 769 514 769 771 q 678 112 769 237 q 417 -12 586 -12 q 183 77 269 -12 l 126 -16 l 76 15 l 145 127 q 63 514 63 258 q 155 916 63 791 q 417 1040 247 1040 q 649 950 565 1040 l 707 1044 l 757 1013 l 688 900 m 148 517 q 194 207 148 317 l 606 879 q 525 947 572 926 q 417 967 478 967 q 272 925 331 967 q 180 784 213 883 q 148 517 148 685 m 417 60 q 561 102 502 60 q 652 244 620 144 q 685 510 685 343 q 639 820 685 709 l 227 149 q 308 81 261 102 q 417 60 356 60 m 383 1119 l 476 1313 l 560 1313 l 453 1119 l 383 1119 z "},"Õ":{"ha":833,"x_min":63,"x_max":769,"o":"m 417 -12 q 155 112 247 -12 q 63 514 63 237 q 155 916 63 791 q 417 1040 247 1040 q 678 916 586 1040 q 769 514 769 791 q 678 112 769 237 q 417 -12 586 -12 m 417 60 q 561 102 502 60 q 652 244 620 144 q 685 510 685 343 q 652 782 685 681 q 561 925 620 883 q 417 967 502 967 q 272 925 331 967 q 180 784 213 883 q 148 517 148 685 q 180 246 148 347 q 272 103 213 145 q 417 60 331 60 m 510 1166 q 463 1173 485 1166 q 407 1195 442 1180 q 360 1215 379 1208 q 323 1221 342 1221 q 269 1208 292 1221 q 223 1170 246 1196 l 223 1233 q 324 1278 260 1278 q 371 1271 349 1278 q 426 1249 393 1264 q 473 1230 454 1236 q 510 1224 492 1224 q 565 1236 541 1224 q 610 1274 588 1249 l 610 1211 q 510 1166 574 1166 z "},"Ṍ":{"ha":833,"x_min":63,"x_max":769,"o":"m 417 -12 q 155 112 247 -12 q 63 514 63 237 q 155 916 63 791 q 417 1040 247 1040 q 678 916 586 1040 q 769 514 769 791 q 678 112 769 237 q 417 -12 586 -12 m 417 60 q 561 102 502 60 q 652 244 620 144 q 685 510 685 343 q 652 782 685 681 q 561 925 620 883 q 417 967 502 967 q 272 925 331 967 q 180 784 213 883 q 148 517 148 685 q 180 246 148 347 q 272 103 213 145 q 417 60 331 60 m 381 1319 l 473 1480 l 561 1480 l 453 1319 l 381 1319 m 510 1166 q 463 1173 485 1166 q 407 1195 442 1180 q 360 1215 379 1208 q 323 1221 342 1221 q 269 1208 292 1221 q 223 1170 246 1196 l 223 1233 q 324 1278 260 1278 q 371 1271 349 1278 q 426 1249 393 1264 q 473 1230 454 1236 q 510 1224 492 1224 q 565 1236 541 1224 q 610 1274 588 1249 l 610 1211 q 510 1166 574 1166 z "},"Ṏ":{"ha":833,"x_min":63,"x_max":769,"o":"m 417 -12 q 155 112 247 -12 q 63 514 63 237 q 155 916 63 791 q 417 1040 247 1040 q 678 916 586 1040 q 769 514 769 791 q 678 112 769 237 q 417 -12 586 -12 m 417 60 q 561 102 502 60 q 652 244 620 144 q 685 510 685 343 q 652 782 685 681 q 561 925 620 883 q 417 967 502 967 q 272 925 331 967 q 180 784 213 883 q 148 517 148 685 q 180 246 148 347 q 272 103 213 145 q 417 60 331 60 m 510 1166 q 463 1173 485 1166 q 407 1195 442 1180 q 360 1215 379 1208 q 323 1221 342 1221 q 269 1208 292 1221 q 223 1170 246 1196 l 223 1233 q 324 1278 260 1278 q 371 1271 349 1278 q 426 1249 393 1264 q 473 1230 454 1236 q 510 1224 492 1224 q 565 1236 541 1224 q 610 1274 588 1249 l 610 1211 q 510 1166 574 1166 m 285 1361 q 242 1376 258 1361 q 226 1417 226 1391 q 242 1458 226 1442 q 285 1473 258 1473 q 327 1458 311 1473 q 343 1417 343 1442 q 327 1376 343 1391 q 285 1361 311 1361 m 549 1361 q 507 1376 522 1361 q 491 1417 491 1391 q 507 1458 491 1442 q 549 1473 523 1473 q 592 1458 576 1473 q 608 1417 608 1442 q 592 1376 608 1391 q 549 1361 576 1361 z "},"Ȭ":{"ha":833,"x_min":63,"x_max":769,"o":"m 417 -12 q 155 112 247 -12 q 63 514 63 237 q 155 916 63 791 q 417 1040 247 1040 q 678 916 586 1040 q 769 514 769 791 q 678 112 769 237 q 417 -12 586 -12 m 417 60 q 561 102 502 60 q 652 244 620 144 q 685 510 685 343 q 652 782 685 681 q 561 925 620 883 q 417 967 502 967 q 272 925 331 967 q 180 784 213 883 q 148 517 148 685 q 180 246 148 347 q 272 103 213 145 q 417 60 331 60 m 510 1166 q 463 1173 485 1166 q 407 1195 442 1180 q 360 1215 379 1208 q 323 1221 342 1221 q 269 1208 292 1221 q 223 1170 246 1196 l 223 1233 q 324 1278 260 1278 q 371 1271 349 1278 q 426 1249 393 1264 q 473 1230 454 1236 q 510 1224 492 1224 q 565 1236 541 1224 q 610 1274 588 1249 l 610 1211 q 510 1166 574 1166 m 236 1387 l 236 1447 l 598 1447 l 598 1387 l 236 1387 z "},"Œ":{"ha":1173,"x_min":63,"x_max":1147,"o":"m 1147 74 l 1147 0 l 673 0 q 612 -3 655 0 q 513 -7 556 -7 q 176 118 290 -7 q 63 514 63 244 q 173 908 63 780 q 499 1037 283 1037 q 608 1031 547 1037 q 669 1028 646 1028 l 1140 1028 l 1140 954 l 700 954 l 700 565 l 1076 565 l 1076 491 l 700 491 l 700 74 l 1147 74 m 619 956 q 494 964 561 964 q 299 918 375 964 q 185 772 223 872 q 148 514 148 673 q 188 254 148 353 q 307 111 228 156 q 506 66 385 66 q 619 72 572 66 l 619 956 z "},"P":{"ha":749,"x_min":106,"x_max":690,"o":"m 106 1017 q 321 1038 220 1038 q 598 953 506 1038 q 690 691 690 868 q 301 347 690 347 q 187 351 240 347 l 187 0 l 106 0 l 106 1017 m 305 419 q 534 484 460 419 q 608 688 608 550 q 539 900 608 833 q 325 966 470 966 q 187 956 256 966 l 187 425 q 305 419 237 419 z "},"Þ":{"ha":756,"x_min":106,"x_max":690,"o":"m 106 1028 l 187 1028 l 187 864 q 322 874 252 874 q 599 789 507 874 q 690 526 690 704 q 301 182 690 182 q 187 187 240 182 l 187 0 l 106 0 l 106 1028 m 305 254 q 534 320 460 254 q 608 524 608 385 q 539 735 608 669 q 325 802 470 802 q 187 792 261 802 l 187 260 q 305 254 237 254 z "},"Q":{"ha":833,"x_min":63,"x_max":769,"o":"m 769 514 q 688 131 769 263 q 445 -6 606 -1 q 753 -71 572 -52 l 739 -143 q 331 -36 476 -107 q 125 165 186 35 q 63 514 63 294 q 155 916 63 791 q 417 1040 247 1040 q 678 916 586 1040 q 769 514 769 791 m 148 517 q 180 246 148 347 q 272 103 213 145 q 417 60 331 60 q 561 102 502 60 q 652 244 620 144 q 685 510 685 343 q 652 782 685 681 q 561 925 620 883 q 417 967 502 967 q 272 925 331 967 q 180 784 213 883 q 148 517 148 685 z "},"R":{"ha":795,"x_min":106,"x_max":770,"o":"m 680 0 l 372 440 q 301 437 342 437 q 187 441 235 437 l 187 0 l 106 0 l 106 1017 q 332 1038 224 1038 q 600 964 511 1038 q 688 742 688 890 q 630 551 690 624 q 452 452 570 478 l 770 0 l 680 0 m 297 507 q 535 564 460 507 q 610 740 610 620 q 544 912 610 857 q 335 967 479 967 q 187 956 255 967 l 187 511 q 297 507 252 507 z "},"Ŕ":{"ha":795,"x_min":106,"x_max":770,"o":"m 680 0 l 372 440 q 301 437 342 437 q 187 441 235 437 l 187 0 l 106 0 l 106 1017 q 332 1038 224 1038 q 600 964 511 1038 q 688 742 688 890 q 630 551 690 624 q 452 452 570 478 l 770 0 l 680 0 m 297 507 q 535 564 460 507 q 610 740 610 620 q 544 912 610 857 q 335 967 479 967 q 187 956 255 967 l 187 511 q 297 507 252 507 m 340 1119 l 433 1313 l 517 1313 l 410 1119 l 340 1119 z "},"Ř":{"ha":795,"x_min":106,"x_max":770,"o":"m 680 0 l 372 440 q 301 437 342 437 q 187 441 235 437 l 187 0 l 106 0 l 106 1017 q 332 1038 224 1038 q 600 964 511 1038 q 688 742 688 890 q 630 551 690 624 q 452 452 570 478 l 770 0 l 680 0 m 297 507 q 535 564 460 507 q 610 740 610 620 q 544 912 610 857 q 335 967 479 967 q 187 956 255 967 l 187 511 q 297 507 252 507 m 482 1313 l 550 1313 l 415 1119 l 335 1119 l 200 1313 l 268 1313 l 375 1158 l 482 1313 z "},"Ŗ":{"ha":795,"x_min":106,"x_max":770,"o":"m 680 0 l 372 440 q 301 437 342 437 q 187 441 235 437 l 187 0 l 106 0 l 106 1017 q 332 1038 224 1038 q 600 964 511 1038 q 688 742 688 890 q 630 551 690 624 q 452 452 570 478 l 770 0 l 680 0 m 297 507 q 535 564 460 507 q 610 740 610 620 q 544 912 610 857 q 335 967 479 967 q 187 956 255 967 l 187 511 q 297 507 252 507 m 421 -119 q 466 -137 450 -119 q 481 -188 481 -154 q 472 -252 481 -217 q 447 -318 463 -287 l 394 -318 q 421 -222 417 -264 q 380 -207 395 -221 q 365 -169 365 -192 q 380 -133 365 -147 q 421 -119 394 -119 z "},"Ȑ":{"ha":795,"x_min":106,"x_max":770,"o":"m 680 0 l 372 440 q 301 437 342 437 q 187 441 235 437 l 187 0 l 106 0 l 106 1017 q 332 1038 224 1038 q 600 964 511 1038 q 688 742 688 890 q 630 551 690 624 q 452 452 570 478 l 770 0 l 680 0 m 297 507 q 535 564 460 507 q 610 740 610 620 q 544 912 610 857 q 335 967 479 967 q 187 956 255 967 l 187 511 q 297 507 252 507 m 246 1119 l 175 1313 l 246 1313 l 309 1119 l 246 1119 m 441 1119 l 370 1313 l 441 1313 l 504 1119 l 441 1119 z "},"Ṛ":{"ha":795,"x_min":106,"x_max":770,"o":"m 680 0 l 372 440 q 301 437 342 437 q 187 441 235 437 l 187 0 l 106 0 l 106 1017 q 332 1038 224 1038 q 600 964 511 1038 q 688 742 688 890 q 630 551 690 624 q 452 452 570 478 l 770 0 l 680 0 m 297 507 q 535 564 460 507 q 610 740 610 620 q 544 912 610 857 q 335 967 479 967 q 187 956 255 967 l 187 511 q 297 507 252 507 m 423 -231 q 378 -217 395 -231 q 362 -176 362 -202 q 379 -135 362 -150 q 423 -119 396 -119 q 467 -135 451 -119 q 484 -176 484 -150 q 467 -217 484 -202 q 423 -231 451 -231 z "},"Ȓ":{"ha":795,"x_min":106,"x_max":770,"o":"m 680 0 l 372 440 q 301 437 342 437 q 187 441 235 437 l 187 0 l 106 0 l 106 1017 q 332 1038 224 1038 q 600 964 511 1038 q 688 742 688 890 q 630 551 690 624 q 452 452 570 478 l 770 0 l 680 0 m 297 507 q 535 564 460 507 q 610 740 610 620 q 544 912 610 857 q 335 967 479 967 q 187 956 255 967 l 187 511 q 297 507 252 507 m 194 1135 q 246 1263 200 1219 q 374 1306 292 1306 q 503 1263 456 1306 q 556 1135 550 1219 l 499 1135 q 463 1225 492 1198 q 374 1252 433 1252 q 285 1225 315 1252 q 251 1135 256 1197 l 194 1135 z "},"Ṟ":{"ha":795,"x_min":106,"x_max":770,"o":"m 680 0 l 372 440 q 301 437 342 437 q 187 441 235 437 l 187 0 l 106 0 l 106 1017 q 332 1038 224 1038 q 600 964 511 1038 q 688 742 688 890 q 630 551 690 624 q 452 452 570 478 l 770 0 l 680 0 m 297 507 q 535 564 460 507 q 610 740 610 620 q 544 912 610 857 q 335 967 479 967 q 187 956 255 967 l 187 511 q 297 507 252 507 m 242 -204 l 242 -144 l 604 -144 l 604 -204 l 242 -204 z "},"S":{"ha":621,"x_min":42,"x_max":578,"o":"m 261 -12 q 159 -3 213 -12 q 56 24 104 6 l 56 97 q 264 60 165 60 q 436 111 378 60 q 494 263 494 163 q 476 359 494 321 q 417 426 457 398 q 307 478 376 453 l 264 492 q 98 597 154 531 q 42 768 42 663 q 78 914 42 853 q 185 1008 115 975 q 359 1040 256 1040 q 454 1034 406 1040 q 538 1015 503 1027 l 538 941 q 361 967 455 967 q 184 917 242 967 q 126 773 126 867 q 143 681 126 718 q 200 617 161 644 q 306 567 239 590 l 349 551 q 521 445 463 513 q 578 269 578 377 q 496 61 578 135 q 261 -12 413 -12 z "},"Ś":{"ha":621,"x_min":42,"x_max":578,"o":"m 261 -12 q 159 -3 213 -12 q 56 24 104 6 l 56 97 q 264 60 165 60 q 436 111 378 60 q 494 263 494 163 q 476 359 494 321 q 417 426 457 398 q 307 478 376 453 l 264 492 q 98 597 154 531 q 42 768 42 663 q 78 914 42 853 q 185 1008 115 975 q 359 1040 256 1040 q 454 1034 406 1040 q 538 1015 503 1027 l 538 941 q 361 967 455 967 q 184 917 242 967 q 126 773 126 867 q 143 681 126 718 q 200 617 161 644 q 306 567 239 590 l 349 551 q 521 445 463 513 q 578 269 578 377 q 496 61 578 135 q 261 -12 413 -12 m 281 1119 l 374 1313 l 458 1313 l 350 1119 l 281 1119 z "},"Ṥ":{"ha":621,"x_min":42,"x_max":578,"o":"m 261 -12 q 159 -3 213 -12 q 56 24 104 6 l 56 97 q 264 60 165 60 q 436 111 378 60 q 494 263 494 163 q 476 359 494 321 q 417 426 457 398 q 307 478 376 453 l 264 492 q 98 597 154 531 q 42 768 42 663 q 78 914 42 853 q 185 1008 115 975 q 359 1040 256 1040 q 454 1034 406 1040 q 538 1015 503 1027 l 538 941 q 361 967 455 967 q 184 917 242 967 q 126 773 126 867 q 143 681 126 718 q 200 617 161 644 q 306 567 239 590 l 349 551 q 521 445 463 513 q 578 269 578 377 q 496 61 578 135 q 261 -12 413 -12 m 260 1285 q 219 1298 235 1285 q 204 1336 204 1312 q 220 1375 204 1361 q 260 1390 235 1390 q 301 1375 285 1390 q 317 1336 317 1361 q 301 1298 317 1312 q 260 1285 286 1285 m 281 1119 l 374 1313 l 458 1313 l 350 1119 l 281 1119 z "},"Š":{"ha":621,"x_min":42,"x_max":578,"o":"m 261 -12 q 159 -3 213 -12 q 56 24 104 6 l 56 97 q 264 60 165 60 q 436 111 378 60 q 494 263 494 163 q 476 359 494 321 q 417 426 457 398 q 307 478 376 453 l 264 492 q 98 597 154 531 q 42 768 42 663 q 78 914 42 853 q 185 1008 115 975 q 359 1040 256 1040 q 454 1034 406 1040 q 538 1015 503 1027 l 538 941 q 361 967 455 967 q 184 917 242 967 q 126 773 126 867 q 143 681 126 718 q 200 617 161 644 q 306 567 239 590 l 349 551 q 521 445 463 513 q 578 269 578 377 q 496 61 578 135 q 261 -12 413 -12 m 422 1313 l 490 1313 l 355 1119 l 276 1119 l 140 1313 l 208 1313 l 315 1158 l 422 1313 z "},"Ṧ":{"ha":621,"x_min":42,"x_max":578,"o":"m 261 -12 q 159 -3 213 -12 q 56 24 104 6 l 56 97 q 264 60 165 60 q 436 111 378 60 q 494 263 494 163 q 476 359 494 321 q 417 426 457 398 q 307 478 376 453 l 264 492 q 98 597 154 531 q 42 768 42 663 q 78 914 42 853 q 185 1008 115 975 q 359 1040 256 1040 q 454 1034 406 1040 q 538 1015 503 1027 l 538 941 q 361 967 455 967 q 184 917 242 967 q 126 773 126 867 q 143 681 126 718 q 200 617 161 644 q 306 567 239 590 l 349 551 q 521 445 463 513 q 578 269 578 377 q 496 61 578 135 q 261 -12 413 -12 m 315 1317 q 274 1331 290 1317 q 259 1369 259 1344 q 275 1407 259 1393 q 315 1422 290 1422 q 356 1407 340 1422 q 372 1369 372 1393 q 356 1331 372 1344 q 315 1317 341 1317 m 422 1313 l 490 1313 l 355 1119 l 276 1119 l 140 1313 l 208 1313 l 315 1158 l 422 1313 z "},"Ş":{"ha":621,"x_min":42,"x_max":578,"o":"m 578 269 q 517 82 578 153 q 339 -7 455 11 l 339 -74 q 422 -105 391 -78 q 452 -178 452 -132 q 416 -257 452 -229 q 317 -284 380 -284 q 196 -259 252 -284 l 196 -210 q 315 -237 256 -237 q 397 -176 397 -237 q 375 -131 397 -146 q 313 -115 353 -115 l 286 -115 l 286 -12 q 261 -12 278 -12 q 159 -3 213 -12 q 56 24 104 6 l 56 97 q 264 60 165 60 q 436 111 378 60 q 494 263 494 163 q 476 359 494 321 q 417 426 457 398 q 307 478 376 453 l 264 492 q 98 597 154 531 q 42 768 42 663 q 78 914 42 853 q 185 1008 115 975 q 359 1040 256 1040 q 454 1034 406 1040 q 538 1015 503 1027 l 538 941 q 361 967 455 967 q 184 917 242 967 q 126 773 126 867 q 143 681 126 718 q 200 617 161 644 q 306 567 239 590 l 349 551 q 521 445 463 513 q 578 269 578 377 z "},"Ŝ":{"ha":621,"x_min":42,"x_max":578,"o":"m 261 -12 q 159 -3 213 -12 q 56 24 104 6 l 56 97 q 264 60 165 60 q 436 111 378 60 q 494 263 494 163 q 476 359 494 321 q 417 426 457 398 q 307 478 376 453 l 264 492 q 98 597 154 531 q 42 768 42 663 q 78 914 42 853 q 185 1008 115 975 q 359 1040 256 1040 q 454 1034 406 1040 q 538 1015 503 1027 l 538 941 q 361 967 455 967 q 184 917 242 967 q 126 773 126 867 q 143 681 126 718 q 200 617 161 644 q 306 567 239 590 l 349 551 q 521 445 463 513 q 578 269 578 377 q 496 61 578 135 q 261 -12 413 -12 m 490 1119 l 422 1119 l 315 1274 l 208 1119 l 140 1119 l 276 1313 l 355 1313 l 490 1119 z "},"Ș":{"ha":621,"x_min":42,"x_max":578,"o":"m 261 -12 q 159 -3 213 -12 q 56 24 104 6 l 56 97 q 264 60 165 60 q 436 111 378 60 q 494 263 494 163 q 476 359 494 321 q 417 426 457 398 q 307 478 376 453 l 264 492 q 98 597 154 531 q 42 768 42 663 q 78 914 42 853 q 185 1008 115 975 q 359 1040 256 1040 q 454 1034 406 1040 q 538 1015 503 1027 l 538 941 q 361 967 455 967 q 184 917 242 967 q 126 773 126 867 q 143 681 126 718 q 200 617 161 644 q 306 567 239 590 l 349 551 q 521 445 463 513 q 578 269 578 377 q 496 61 578 135 q 261 -12 413 -12 m 313 -119 q 358 -137 342 -119 q 374 -188 374 -154 q 364 -252 374 -217 q 339 -318 355 -287 l 287 -318 q 313 -222 310 -264 q 272 -207 288 -221 q 257 -169 257 -192 q 272 -133 257 -147 q 313 -119 287 -119 z "},"Ṡ":{"ha":621,"x_min":42,"x_max":578,"o":"m 261 -12 q 159 -3 213 -12 q 56 24 104 6 l 56 97 q 264 60 165 60 q 436 111 378 60 q 494 263 494 163 q 476 359 494 321 q 417 426 457 398 q 307 478 376 453 l 264 492 q 98 597 154 531 q 42 768 42 663 q 78 914 42 853 q 185 1008 115 975 q 359 1040 256 1040 q 454 1034 406 1040 q 538 1015 503 1027 l 538 941 q 361 967 455 967 q 184 917 242 967 q 126 773 126 867 q 143 681 126 718 q 200 617 161 644 q 306 567 239 590 l 349 551 q 521 445 463 513 q 578 269 578 377 q 496 61 578 135 q 261 -12 413 -12 m 315 1161 q 271 1176 288 1161 q 254 1217 254 1190 q 271 1258 254 1242 q 315 1273 288 1273 q 360 1258 343 1273 q 376 1217 376 1242 q 360 1176 376 1190 q 315 1161 343 1161 z "},"Ṣ":{"ha":621,"x_min":42,"x_max":578,"o":"m 261 -12 q 159 -3 213 -12 q 56 24 104 6 l 56 97 q 264 60 165 60 q 436 111 378 60 q 494 263 494 163 q 476 359 494 321 q 417 426 457 398 q 307 478 376 453 l 264 492 q 98 597 154 531 q 42 768 42 663 q 78 914 42 853 q 185 1008 115 975 q 359 1040 256 1040 q 454 1034 406 1040 q 538 1015 503 1027 l 538 941 q 361 967 455 967 q 184 917 242 967 q 126 773 126 867 q 143 681 126 718 q 200 617 161 644 q 306 567 239 590 l 349 551 q 521 445 463 513 q 578 269 578 377 q 496 61 578 135 q 261 -12 413 -12 m 315 -231 q 271 -217 288 -231 q 254 -176 254 -202 q 271 -135 254 -150 q 315 -119 288 -119 q 360 -135 343 -119 q 376 -176 376 -150 q 360 -217 376 -202 q 315 -231 343 -231 z "},"Ṩ":{"ha":621,"x_min":42,"x_max":578,"o":"m 261 -12 q 159 -3 213 -12 q 56 24 104 6 l 56 97 q 264 60 165 60 q 436 111 378 60 q 494 263 494 163 q 476 359 494 321 q 417 426 457 398 q 307 478 376 453 l 264 492 q 98 597 154 531 q 42 768 42 663 q 78 914 42 853 q 185 1008 115 975 q 359 1040 256 1040 q 454 1034 406 1040 q 538 1015 503 1027 l 538 941 q 361 967 455 967 q 184 917 242 967 q 126 773 126 867 q 143 681 126 718 q 200 617 161 644 q 306 567 239 590 l 349 551 q 521 445 463 513 q 578 269 578 377 q 496 61 578 135 q 261 -12 413 -12 m 315 -231 q 271 -217 288 -231 q 254 -176 254 -202 q 271 -135 254 -150 q 315 -119 288 -119 q 360 -135 343 -119 q 376 -176 376 -150 q 360 -217 376 -202 q 315 -231 343 -231 m 315 1161 q 271 1176 288 1161 q 254 1217 254 1190 q 271 1258 254 1242 q 315 1273 288 1273 q 360 1258 343 1273 q 376 1217 376 1242 q 360 1176 376 1190 q 315 1161 343 1161 z "},"ẞ":{"ha":999,"x_min":106,"x_max":956,"o":"m 728 551 q 899 445 842 513 q 956 269 956 377 q 874 61 956 135 q 640 -12 792 -12 q 538 -3 592 -12 q 437 23 484 6 l 437 97 q 643 60 543 60 q 815 111 757 60 q 873 263 873 163 q 854 360 873 321 q 795 426 835 399 q 687 478 756 454 l 644 492 q 479 597 535 530 q 424 768 424 663 q 497 960 424 891 q 424 968 462 968 q 243 901 299 968 q 187 694 187 834 l 187 0 l 106 0 l 106 683 q 183 952 106 865 q 424 1040 260 1040 q 578 1013 513 1040 q 740 1040 649 1040 q 833 1034 785 1040 q 916 1016 881 1028 l 916 942 q 742 967 832 967 q 566 917 624 967 q 508 773 508 867 q 525 681 508 718 q 581 616 543 643 q 685 567 619 590 l 728 551 z "},"Ə":{"ha":831,"x_min":56,"x_max":767,"o":"m 341 1040 q 577 988 483 1040 q 719 819 671 935 q 767 512 767 702 q 410 -12 767 -12 q 147 112 238 -12 q 56 512 56 236 l 56 550 l 683 550 q 641 801 679 710 q 528 930 603 892 q 333 968 453 968 q 106 939 208 968 l 106 1013 q 341 1040 217 1040 m 410 59 q 556 98 497 59 q 648 230 615 137 q 684 480 681 322 l 141 480 q 175 230 144 322 q 265 98 207 137 q 410 59 322 59 z "},"T":{"ha":702,"x_min":5,"x_max":697,"o":"m 310 0 l 310 953 l 5 953 l 5 1028 l 697 1028 l 697 953 l 392 953 l 392 0 l 310 0 z "},"Ŧ":{"ha":702,"x_min":5,"x_max":697,"o":"m 697 953 l 392 953 l 392 576 l 593 576 l 593 514 l 392 514 l 392 0 l 310 0 l 310 514 l 110 514 l 110 576 l 310 576 l 310 953 l 5 953 l 5 1028 l 697 1028 l 697 953 z "},"Ť":{"ha":702,"x_min":5,"x_max":697,"o":"m 310 0 l 310 953 l 5 953 l 5 1028 l 697 1028 l 697 953 l 392 953 l 392 0 l 310 0 m 458 1313 l 526 1313 l 391 1119 l 312 1119 l 176 1313 l 244 1313 l 351 1158 l 458 1313 z "},"Ţ":{"ha":702,"x_min":5,"x_max":697,"o":"m 375 0 l 375 -74 q 458 -105 427 -78 q 488 -178 488 -132 q 452 -257 488 -229 q 353 -284 416 -284 q 232 -259 288 -284 l 232 -210 q 351 -237 292 -237 q 433 -176 433 -237 q 411 -131 433 -146 q 349 -115 389 -115 l 322 -115 l 322 0 l 310 0 l 310 953 l 5 953 l 5 1028 l 697 1028 l 697 953 l 392 953 l 392 0 l 375 0 z "},"Ț":{"ha":702,"x_min":5,"x_max":697,"o":"m 310 0 l 310 953 l 5 953 l 5 1028 l 697 1028 l 697 953 l 392 953 l 392 0 l 310 0 m 349 -119 q 394 -137 378 -119 q 410 -188 410 -154 q 400 -252 410 -217 q 375 -318 391 -287 l 323 -318 q 349 -222 346 -264 q 308 -207 324 -221 q 293 -169 293 -192 q 308 -133 293 -147 q 349 -119 323 -119 z "},"Ṭ":{"ha":702,"x_min":5,"x_max":697,"o":"m 310 0 l 310 953 l 5 953 l 5 1028 l 697 1028 l 697 953 l 392 953 l 392 0 l 310 0 m 351 -231 q 307 -217 324 -231 q 290 -176 290 -202 q 307 -135 290 -150 q 351 -119 324 -119 q 396 -135 379 -119 q 413 -176 413 -150 q 396 -217 413 -202 q 351 -231 379 -231 z "},"Ṯ":{"ha":702,"x_min":5,"x_max":697,"o":"m 310 0 l 310 953 l 5 953 l 5 1028 l 697 1028 l 697 953 l 392 953 l 392 0 l 310 0 m 171 -204 l 171 -144 l 533 -144 l 533 -204 l 171 -204 z "},"U":{"ha":847,"x_min":101,"x_max":746,"o":"m 424 -12 q 240 27 312 -12 q 135 147 169 66 q 101 353 101 227 l 101 1028 l 182 1028 l 182 343 q 239 129 182 197 q 424 60 297 60 q 609 129 552 60 q 667 343 667 197 l 667 1028 l 746 1028 l 746 353 q 712 147 746 227 q 608 27 678 66 q 424 -12 537 -12 z "},"Ú":{"ha":847,"x_min":101,"x_max":746,"o":"m 424 -12 q 240 27 312 -12 q 135 147 169 66 q 101 353 101 227 l 101 1028 l 182 1028 l 182 343 q 239 129 182 197 q 424 60 297 60 q 609 129 552 60 q 667 343 667 197 l 667 1028 l 746 1028 l 746 353 q 712 147 746 227 q 608 27 678 66 q 424 -12 537 -12 m 390 1119 l 483 1313 l 567 1313 l 459 1119 l 390 1119 z "},"Ŭ":{"ha":847,"x_min":101,"x_max":746,"o":"m 424 -12 q 240 27 312 -12 q 135 147 169 66 q 101 353 101 227 l 101 1028 l 182 1028 l 182 343 q 239 129 182 197 q 424 60 297 60 q 609 129 552 60 q 667 343 667 197 l 667 1028 l 746 1028 l 746 353 q 712 147 746 227 q 608 27 678 66 q 424 -12 537 -12 m 426 1126 q 297 1169 344 1126 q 243 1296 249 1213 l 301 1296 q 337 1207 308 1234 q 426 1180 366 1180 q 514 1207 485 1180 q 548 1296 543 1234 l 606 1296 q 553 1169 599 1212 q 426 1126 508 1126 z "},"Û":{"ha":847,"x_min":101,"x_max":746,"o":"m 424 -12 q 240 27 312 -12 q 135 147 169 66 q 101 353 101 227 l 101 1028 l 182 1028 l 182 343 q 239 129 182 197 q 424 60 297 60 q 609 129 552 60 q 667 343 667 197 l 667 1028 l 746 1028 l 746 353 q 712 147 746 227 q 608 27 678 66 q 424 -12 537 -12 m 599 1119 l 531 1119 l 424 1274 l 317 1119 l 249 1119 l 385 1313 l 464 1313 l 599 1119 z "},"Ȕ":{"ha":847,"x_min":101,"x_max":746,"o":"m 424 -12 q 240 27 312 -12 q 135 147 169 66 q 101 353 101 227 l 101 1028 l 182 1028 l 182 343 q 239 129 182 197 q 424 60 297 60 q 609 129 552 60 q 667 343 667 197 l 667 1028 l 746 1028 l 746 353 q 712 147 746 227 q 608 27 678 66 q 424 -12 537 -12 m 295 1119 l 224 1313 l 295 1313 l 358 1119 l 295 1119 m 490 1119 l 419 1313 l 490 1313 l 553 1119 l 490 1119 z "},"Ü":{"ha":847,"x_min":101,"x_max":746,"o":"m 424 -12 q 240 27 312 -12 q 135 147 169 66 q 101 353 101 227 l 101 1028 l 182 1028 l 182 343 q 239 129 182 197 q 424 60 297 60 q 609 129 552 60 q 667 343 667 197 l 667 1028 l 746 1028 l 746 353 q 712 147 746 227 q 608 27 678 66 q 424 -12 537 -12 m 292 1161 q 250 1176 265 1161 q 234 1217 234 1191 q 250 1258 234 1242 q 292 1273 266 1273 q 335 1258 319 1273 q 351 1217 351 1242 q 335 1176 351 1191 q 292 1161 319 1161 m 557 1161 q 514 1176 530 1161 q 499 1217 499 1191 q 515 1258 499 1242 q 557 1273 531 1273 q 599 1258 583 1273 q 615 1217 615 1242 q 599 1176 615 1191 q 557 1161 583 1161 z "},"Ụ":{"ha":847,"x_min":101,"x_max":746,"o":"m 424 -12 q 240 27 312 -12 q 135 147 169 66 q 101 353 101 227 l 101 1028 l 182 1028 l 182 343 q 239 129 182 197 q 424 60 297 60 q 609 129 552 60 q 667 343 667 197 l 667 1028 l 746 1028 l 746 353 q 712 147 746 227 q 608 27 678 66 q 424 -12 537 -12 m 424 -231 q 380 -217 397 -231 q 363 -176 363 -202 q 380 -135 363 -150 q 424 -119 397 -119 q 469 -135 452 -119 q 485 -176 485 -150 q 469 -217 485 -202 q 424 -231 452 -231 z "},"Ù":{"ha":847,"x_min":101,"x_max":746,"o":"m 424 -12 q 240 27 312 -12 q 135 147 169 66 q 101 353 101 227 l 101 1028 l 182 1028 l 182 343 q 239 129 182 197 q 424 60 297 60 q 609 129 552 60 q 667 343 667 197 l 667 1028 l 746 1028 l 746 353 q 712 147 746 227 q 608 27 678 66 q 424 -12 537 -12 m 390 1119 l 282 1313 l 367 1313 l 459 1119 l 390 1119 z "},"Ủ":{"ha":847,"x_min":101,"x_max":746,"o":"m 424 -12 q 240 27 312 -12 q 135 147 169 66 q 101 353 101 227 l 101 1028 l 182 1028 l 182 343 q 239 129 182 197 q 424 60 297 60 q 609 129 552 60 q 667 343 667 197 l 667 1028 l 746 1028 l 746 353 q 712 147 746 227 q 608 27 678 66 q 424 -12 537 -12 m 397 1119 q 415 1163 399 1148 q 460 1193 431 1178 q 492 1211 481 1203 q 502 1234 502 1220 q 485 1259 502 1251 q 426 1268 469 1268 q 364 1262 396 1268 q 303 1244 331 1256 l 303 1292 q 362 1309 327 1303 q 430 1315 397 1315 q 526 1295 494 1315 q 559 1239 559 1274 q 544 1198 559 1212 q 501 1169 530 1184 q 466 1146 478 1156 q 452 1119 454 1136 l 397 1119 z "},"Ư":{"ha":848,"x_min":101,"x_max":888,"o":"m 424 -12 q 240 27 312 -12 q 135 147 169 66 q 101 353 101 227 l 101 1028 l 182 1028 l 182 343 q 239 129 182 197 q 424 60 297 60 q 609 129 552 60 q 667 343 667 197 l 667 1028 l 700 1028 q 788 1054 755 1028 q 820 1135 820 1080 q 816 1184 820 1161 q 804 1233 813 1206 l 871 1233 q 884 1184 880 1208 q 888 1131 888 1161 q 849 1022 888 1061 q 746 976 810 982 l 746 353 q 712 147 746 227 q 608 27 678 66 q 424 -12 537 -12 z "},"Ứ":{"ha":848,"x_min":101,"x_max":888,"o":"m 424 -12 q 240 27 312 -12 q 135 147 169 66 q 101 353 101 227 l 101 1028 l 182 1028 l 182 343 q 239 129 182 197 q 424 60 297 60 q 609 129 552 60 q 667 343 667 197 l 667 1028 l 700 1028 q 788 1054 755 1028 q 820 1135 820 1080 q 816 1184 820 1161 q 804 1233 813 1206 l 871 1233 q 884 1184 880 1208 q 888 1131 888 1161 q 849 1022 888 1061 q 746 976 810 982 l 746 353 q 712 147 746 227 q 608 27 678 66 q 424 -12 537 -12 m 390 1119 l 483 1313 l 567 1313 l 459 1119 l 390 1119 z "},"Ự":{"ha":848,"x_min":101,"x_max":888,"o":"m 424 -12 q 240 27 312 -12 q 135 147 169 66 q 101 353 101 227 l 101 1028 l 182 1028 l 182 343 q 239 129 182 197 q 424 60 297 60 q 609 129 552 60 q 667 343 667 197 l 667 1028 l 700 1028 q 788 1054 755 1028 q 820 1135 820 1080 q 816 1184 820 1161 q 804 1233 813 1206 l 871 1233 q 884 1184 880 1208 q 888 1131 888 1161 q 849 1022 888 1061 q 746 976 810 982 l 746 353 q 712 147 746 227 q 608 27 678 66 q 424 -12 537 -12 m 424 -231 q 380 -217 397 -231 q 363 -176 363 -202 q 380 -135 363 -150 q 424 -119 397 -119 q 469 -135 452 -119 q 485 -176 485 -150 q 469 -217 485 -202 q 424 -231 452 -231 z "},"Ừ":{"ha":848,"x_min":101,"x_max":888,"o":"m 424 -12 q 240 27 312 -12 q 135 147 169 66 q 101 353 101 227 l 101 1028 l 182 1028 l 182 343 q 239 129 182 197 q 424 60 297 60 q 609 129 552 60 q 667 343 667 197 l 667 1028 l 700 1028 q 788 1054 755 1028 q 820 1135 820 1080 q 816 1184 820 1161 q 804 1233 813 1206 l 871 1233 q 884 1184 880 1208 q 888 1131 888 1161 q 849 1022 888 1061 q 746 976 810 982 l 746 353 q 712 147 746 227 q 608 27 678 66 q 424 -12 537 -12 m 390 1119 l 282 1313 l 367 1313 l 459 1119 l 390 1119 z "},"Ử":{"ha":848,"x_min":101,"x_max":888,"o":"m 424 -12 q 240 27 312 -12 q 135 147 169 66 q 101 353 101 227 l 101 1028 l 182 1028 l 182 343 q 239 129 182 197 q 424 60 297 60 q 609 129 552 60 q 667 343 667 197 l 667 1028 l 700 1028 q 788 1054 755 1028 q 820 1135 820 1080 q 816 1184 820 1161 q 804 1233 813 1206 l 871 1233 q 884 1184 880 1208 q 888 1131 888 1161 q 849 1022 888 1061 q 746 976 810 982 l 746 353 q 712 147 746 227 q 608 27 678 66 q 424 -12 537 -12 m 397 1119 q 415 1163 399 1148 q 460 1193 431 1178 q 492 1211 481 1203 q 502 1234 502 1220 q 485 1259 502 1251 q 426 1268 469 1268 q 364 1262 396 1268 q 303 1244 331 1256 l 303 1292 q 362 1309 327 1303 q 430 1315 397 1315 q 526 1295 494 1315 q 559 1239 559 1274 q 544 1198 559 1212 q 501 1169 530 1184 q 466 1146 478 1156 q 452 1119 454 1136 l 397 1119 z "},"Ữ":{"ha":848,"x_min":101,"x_max":888,"o":"m 424 -12 q 240 27 312 -12 q 135 147 169 66 q 101 353 101 227 l 101 1028 l 182 1028 l 182 343 q 239 129 182 197 q 424 60 297 60 q 609 129 552 60 q 667 343 667 197 l 667 1028 l 700 1028 q 788 1054 755 1028 q 820 1135 820 1080 q 816 1184 820 1161 q 804 1233 813 1206 l 871 1233 q 884 1184 880 1208 q 888 1131 888 1161 q 849 1022 888 1061 q 746 976 810 982 l 746 353 q 712 147 746 227 q 608 27 678 66 q 424 -12 537 -12 m 518 1166 q 471 1173 492 1166 q 415 1195 449 1180 q 368 1215 387 1208 q 331 1221 349 1221 q 277 1208 300 1221 q 231 1170 253 1196 l 231 1233 q 331 1278 268 1278 q 379 1271 357 1278 q 434 1249 401 1264 q 481 1230 462 1236 q 518 1224 499 1224 q 572 1236 549 1224 q 618 1274 596 1249 l 618 1211 q 518 1166 582 1166 z "},"Ű":{"ha":847,"x_min":101,"x_max":746,"o":"m 424 -12 q 240 27 312 -12 q 135 147 169 66 q 101 353 101 227 l 101 1028 l 182 1028 l 182 343 q 239 129 182 197 q 424 60 297 60 q 609 129 552 60 q 667 343 667 197 l 667 1028 l 746 1028 l 746 353 q 712 147 746 227 q 608 27 678 66 q 424 -12 537 -12 m 295 1119 l 359 1313 l 429 1313 l 358 1119 l 295 1119 m 490 1119 l 553 1313 l 624 1313 l 553 1119 l 490 1119 z "},"Ȗ":{"ha":847,"x_min":101,"x_max":746,"o":"m 424 -12 q 240 27 312 -12 q 135 147 169 66 q 101 353 101 227 l 101 1028 l 182 1028 l 182 343 q 239 129 182 197 q 424 60 297 60 q 609 129 552 60 q 667 343 667 197 l 667 1028 l 746 1028 l 746 353 q 712 147 746 227 q 608 27 678 66 q 424 -12 537 -12 m 243 1135 q 295 1263 249 1219 q 423 1306 341 1306 q 552 1263 506 1306 q 606 1135 599 1219 l 548 1135 q 512 1225 541 1198 q 423 1252 483 1252 q 335 1225 364 1252 q 301 1135 306 1197 l 243 1135 z "},"Ū":{"ha":847,"x_min":101,"x_max":746,"o":"m 424 -12 q 240 27 312 -12 q 135 147 169 66 q 101 353 101 227 l 101 1028 l 182 1028 l 182 343 q 239 129 182 197 q 424 60 297 60 q 609 129 552 60 q 667 343 667 197 l 667 1028 l 746 1028 l 746 353 q 712 147 746 227 q 608 27 678 66 q 424 -12 537 -12 m 244 1187 l 244 1247 l 606 1247 l 606 1187 l 244 1187 z "},"Ṻ":{"ha":847,"x_min":101,"x_max":746,"o":"m 424 -12 q 240 27 312 -12 q 135 147 169 66 q 101 353 101 227 l 101 1028 l 182 1028 l 182 343 q 239 129 182 197 q 424 60 297 60 q 609 129 552 60 q 667 343 667 197 l 667 1028 l 746 1028 l 746 353 q 712 147 746 227 q 608 27 678 66 q 424 -12 537 -12 m 244 1187 l 244 1247 l 606 1247 l 606 1187 l 244 1187 m 292 1361 q 250 1376 265 1361 q 234 1417 234 1391 q 250 1458 234 1442 q 292 1473 266 1473 q 335 1458 319 1473 q 351 1417 351 1442 q 335 1376 351 1391 q 292 1361 319 1361 m 557 1361 q 514 1376 530 1361 q 499 1417 499 1391 q 515 1458 499 1442 q 557 1473 531 1473 q 599 1458 583 1473 q 615 1417 615 1442 q 599 1376 615 1391 q 557 1361 583 1361 z "},"Ų":{"ha":847,"x_min":101,"x_max":746,"o":"m 746 1028 l 746 353 q 703 126 746 213 q 559 6 660 39 q 428 -68 465 -26 q 391 -157 391 -110 q 487 -237 391 -237 q 588 -211 531 -237 l 588 -258 q 483 -284 536 -284 q 373 -252 411 -284 q 335 -162 335 -221 q 424 -12 335 -72 q 178 76 256 -12 q 101 353 101 165 l 101 1028 l 182 1028 l 182 343 q 239 129 182 197 q 424 60 297 60 q 609 129 552 60 q 667 343 667 197 l 667 1028 l 746 1028 z "},"Ů":{"ha":847,"x_min":101,"x_max":746,"o":"m 424 -12 q 240 27 312 -12 q 135 147 169 66 q 101 353 101 227 l 101 1028 l 182 1028 l 182 343 q 239 129 182 197 q 424 60 297 60 q 609 129 552 60 q 667 343 667 197 l 667 1028 l 746 1028 l 746 353 q 712 147 746 227 q 608 27 678 66 q 424 -12 537 -12 m 424 1114 q 357 1131 387 1114 q 309 1178 326 1148 q 292 1245 292 1208 q 309 1313 292 1283 q 357 1360 326 1343 q 424 1377 387 1377 q 492 1360 462 1377 q 540 1313 522 1343 q 557 1245 557 1283 q 540 1178 557 1208 q 492 1131 522 1148 q 424 1114 462 1114 m 424 1159 q 486 1182 463 1159 q 509 1245 509 1206 q 486 1309 509 1285 q 424 1332 463 1332 q 363 1309 387 1332 q 340 1245 340 1285 q 363 1182 340 1206 q 424 1159 387 1159 z "},"Ũ":{"ha":847,"x_min":101,"x_max":746,"o":"m 424 -12 q 240 27 312 -12 q 135 147 169 66 q 101 353 101 227 l 101 1028 l 182 1028 l 182 343 q 239 129 182 197 q 424 60 297 60 q 609 129 552 60 q 667 343 667 197 l 667 1028 l 746 1028 l 746 353 q 712 147 746 227 q 608 27 678 66 q 424 -12 537 -12 m 518 1166 q 471 1173 492 1166 q 415 1195 449 1180 q 368 1215 387 1208 q 331 1221 349 1221 q 277 1208 300 1221 q 231 1170 253 1196 l 231 1233 q 331 1278 268 1278 q 379 1271 357 1278 q 434 1249 401 1264 q 481 1230 462 1236 q 518 1224 499 1224 q 572 1236 549 1224 q 618 1274 596 1249 l 618 1211 q 518 1166 582 1166 z "},"Ṹ":{"ha":847,"x_min":101,"x_max":746,"o":"m 424 -12 q 240 27 312 -12 q 135 147 169 66 q 101 353 101 227 l 101 1028 l 182 1028 l 182 343 q 239 129 182 197 q 424 60 297 60 q 609 129 552 60 q 667 343 667 197 l 667 1028 l 746 1028 l 746 353 q 712 147 746 227 q 608 27 678 66 q 424 -12 537 -12 m 388 1319 l 481 1480 l 569 1480 l 461 1319 l 388 1319 m 518 1166 q 471 1173 492 1166 q 415 1195 449 1180 q 368 1215 387 1208 q 331 1221 349 1221 q 277 1208 300 1221 q 231 1170 253 1196 l 231 1233 q 331 1278 268 1278 q 379 1271 357 1278 q 434 1249 401 1264 q 481 1230 462 1236 q 518 1224 499 1224 q 572 1236 549 1224 q 618 1274 596 1249 l 618 1211 q 518 1166 582 1166 z "},"V":{"ha":781,"x_min":4,"x_max":778,"o":"m 697 1028 l 778 1028 l 450 0 l 332 0 l 4 1028 l 90 1028 l 393 67 l 697 1028 z "},"W":{"ha":1258,"x_min":33,"x_max":1224,"o":"m 1146 1028 l 1224 1028 l 969 0 l 860 0 l 630 931 l 397 0 l 288 0 l 33 1028 l 117 1028 l 347 82 l 581 1028 l 681 1028 l 913 79 l 1146 1028 z "},"Ẃ":{"ha":1258,"x_min":33,"x_max":1224,"o":"m 1146 1028 l 1224 1028 l 969 0 l 860 0 l 630 931 l 397 0 l 288 0 l 33 1028 l 117 1028 l 347 82 l 581 1028 l 681 1028 l 913 79 l 1146 1028 m 595 1119 l 688 1313 l 772 1313 l 665 1119 l 595 1119 z "},"Ŵ":{"ha":1258,"x_min":33,"x_max":1224,"o":"m 1146 1028 l 1224 1028 l 969 0 l 860 0 l 630 931 l 397 0 l 288 0 l 33 1028 l 117 1028 l 347 82 l 581 1028 l 681 1028 l 913 79 l 1146 1028 m 805 1119 l 737 1119 l 630 1274 l 523 1119 l 455 1119 l 590 1313 l 669 1313 l 805 1119 z "},"Ẅ":{"ha":1258,"x_min":33,"x_max":1224,"o":"m 1146 1028 l 1224 1028 l 969 0 l 860 0 l 630 931 l 397 0 l 288 0 l 33 1028 l 117 1028 l 347 82 l 581 1028 l 681 1028 l 913 79 l 1146 1028 m 498 1161 q 455 1176 471 1161 q 440 1217 440 1191 q 456 1258 440 1242 q 498 1273 472 1273 q 540 1258 524 1273 q 556 1217 556 1242 q 540 1176 556 1191 q 498 1161 524 1161 m 763 1161 q 720 1176 735 1161 q 704 1217 704 1191 q 720 1258 704 1242 q 763 1273 736 1273 q 805 1258 789 1273 q 821 1217 821 1242 q 805 1176 821 1191 q 763 1161 789 1161 z "},"Ẁ":{"ha":1258,"x_min":33,"x_max":1224,"o":"m 1146 1028 l 1224 1028 l 969 0 l 860 0 l 630 931 l 397 0 l 288 0 l 33 1028 l 117 1028 l 347 82 l 581 1028 l 681 1028 l 913 79 l 1146 1028 m 595 1119 l 488 1313 l 572 1313 l 665 1119 l 595 1119 z "},"X":{"ha":769,"x_min":13,"x_max":755,"o":"m 432 523 l 755 0 l 663 0 l 385 452 l 106 0 l 13 0 l 338 522 l 24 1028 l 116 1028 l 385 592 l 653 1028 l 744 1028 l 432 523 z "},"Y":{"ha":702,"x_min":-21,"x_max":717,"o":"m 717 1028 l 392 464 l 392 0 l 310 0 l 310 463 l -21 1028 l 69 1028 l 352 542 l 633 1028 l 717 1028 z "},"Ý":{"ha":702,"x_min":-21,"x_max":717,"o":"m 717 1028 l 392 464 l 392 0 l 310 0 l 310 463 l -21 1028 l 69 1028 l 352 542 l 633 1028 l 717 1028 m 317 1119 l 410 1313 l 494 1313 l 386 1119 l 317 1119 z "},"Ŷ":{"ha":702,"x_min":-21,"x_max":717,"o":"m 717 1028 l 392 464 l 392 0 l 310 0 l 310 463 l -21 1028 l 69 1028 l 352 542 l 633 1028 l 717 1028 m 526 1119 l 458 1119 l 351 1274 l 244 1119 l 176 1119 l 312 1313 l 391 1313 l 526 1119 z "},"Ÿ":{"ha":702,"x_min":-21,"x_max":717,"o":"m 717 1028 l 392 464 l 392 0 l 310 0 l 310 463 l -21 1028 l 69 1028 l 352 542 l 633 1028 l 717 1028 m 219 1161 q 177 1176 192 1161 q 161 1217 161 1191 q 177 1258 161 1242 q 219 1273 193 1273 q 262 1258 246 1273 q 278 1217 278 1242 q 262 1176 278 1191 q 219 1161 246 1161 m 484 1161 q 441 1176 457 1161 q 426 1217 426 1191 q 442 1258 426 1242 q 484 1273 458 1273 q 526 1258 510 1273 q 542 1217 542 1242 q 526 1176 542 1191 q 484 1161 510 1161 z "},"Ẏ":{"ha":702,"x_min":-21,"x_max":717,"o":"m 717 1028 l 392 464 l 392 0 l 310 0 l 310 463 l -21 1028 l 69 1028 l 352 542 l 633 1028 l 717 1028 m 351 1161 q 307 1176 324 1161 q 290 1217 290 1190 q 307 1258 290 1242 q 351 1273 324 1273 q 396 1258 379 1273 q 413 1217 413 1242 q 396 1176 413 1190 q 351 1161 379 1161 z "},"Ỵ":{"ha":702,"x_min":-21,"x_max":717,"o":"m 717 1028 l 392 464 l 392 0 l 310 0 l 310 463 l -21 1028 l 69 1028 l 352 542 l 633 1028 l 717 1028 m 351 -231 q 307 -217 324 -231 q 290 -176 290 -202 q 307 -135 290 -150 q 351 -119 324 -119 q 396 -135 379 -119 q 413 -176 413 -150 q 396 -217 413 -202 q 351 -231 379 -231 z "},"Ỳ":{"ha":702,"x_min":-21,"x_max":717,"o":"m 717 1028 l 392 464 l 392 0 l 310 0 l 310 463 l -21 1028 l 69 1028 l 352 542 l 633 1028 l 717 1028 m 317 1119 l 209 1313 l 294 1313 l 386 1119 l 317 1119 z "},"Ỷ":{"ha":702,"x_min":-21,"x_max":717,"o":"m 717 1028 l 392 464 l 392 0 l 310 0 l 310 463 l -21 1028 l 69 1028 l 352 542 l 633 1028 l 717 1028 m 324 1119 q 342 1163 326 1148 q 388 1193 358 1178 q 419 1211 408 1203 q 429 1234 429 1220 q 413 1259 429 1251 q 353 1268 396 1268 q 291 1262 323 1268 q 230 1244 258 1256 l 230 1292 q 289 1309 254 1303 q 357 1315 324 1315 q 453 1295 421 1315 q 486 1239 486 1274 q 472 1198 486 1212 q 428 1169 457 1184 q 393 1146 405 1156 q 379 1119 381 1136 l 324 1119 z "},"Ȳ":{"ha":702,"x_min":-21,"x_max":717,"o":"m 717 1028 l 392 464 l 392 0 l 310 0 l 310 463 l -21 1028 l 69 1028 l 352 542 l 633 1028 l 717 1028 m 171 1187 l 171 1247 l 533 1247 l 533 1187 l 171 1187 z "},"Ỹ":{"ha":702,"x_min":-21,"x_max":717,"o":"m 717 1028 l 392 464 l 392 0 l 310 0 l 310 463 l -21 1028 l 69 1028 l 352 542 l 633 1028 l 717 1028 m 445 1166 q 398 1173 419 1166 q 342 1195 376 1180 q 295 1215 314 1208 q 258 1221 276 1221 q 204 1208 227 1221 q 158 1170 181 1196 l 158 1233 q 258 1278 195 1278 q 306 1271 284 1278 q 361 1249 328 1264 q 408 1230 389 1236 q 445 1224 426 1224 q 499 1236 476 1224 q 545 1274 523 1249 l 545 1211 q 445 1166 509 1166 z "},"Z":{"ha":676,"x_min":36,"x_max":640,"o":"m 141 74 l 640 74 l 640 0 l 36 0 l 36 47 l 528 953 l 43 953 l 43 1028 l 633 1028 l 633 981 l 141 74 z "},"Ź":{"ha":676,"x_min":36,"x_max":640,"o":"m 141 74 l 640 74 l 640 0 l 36 0 l 36 47 l 528 953 l 43 953 l 43 1028 l 633 1028 l 633 981 l 141 74 m 304 1119 l 397 1313 l 481 1313 l 374 1119 l 304 1119 z "},"Ž":{"ha":676,"x_min":36,"x_max":640,"o":"m 141 74 l 640 74 l 640 0 l 36 0 l 36 47 l 528 953 l 43 953 l 43 1028 l 633 1028 l 633 981 l 141 74 m 446 1313 l 514 1313 l 378 1119 l 299 1119 l 164 1313 l 232 1313 l 339 1158 l 446 1313 z "},"Ż":{"ha":676,"x_min":36,"x_max":640,"o":"m 141 74 l 640 74 l 640 0 l 36 0 l 36 47 l 528 953 l 43 953 l 43 1028 l 633 1028 l 633 981 l 141 74 m 339 1161 q 294 1176 311 1161 q 278 1217 278 1190 q 295 1258 278 1242 q 339 1273 312 1273 q 383 1258 367 1273 q 400 1217 400 1242 q 383 1176 400 1190 q 339 1161 367 1161 z "},"Ẓ":{"ha":676,"x_min":36,"x_max":640,"o":"m 141 74 l 640 74 l 640 0 l 36 0 l 36 47 l 528 953 l 43 953 l 43 1028 l 633 1028 l 633 981 l 141 74 m 338 -231 q 294 -217 310 -231 q 277 -176 277 -202 q 294 -135 277 -150 q 338 -119 311 -119 q 383 -135 366 -119 q 399 -176 399 -150 q 383 -217 399 -202 q 338 -231 366 -231 z "},"a":{"ha":608,"x_min":51,"x_max":522,"o":"m 277 763 q 413 739 360 763 q 494 660 467 715 q 522 513 522 606 l 522 0 l 453 0 l 447 83 l 440 83 q 359 12 408 36 q 252 -12 311 -12 q 147 12 192 -12 q 76 81 101 35 q 51 189 51 126 q 110 343 51 288 q 290 410 169 398 l 442 427 l 442 515 q 423 622 442 583 q 366 677 403 661 q 268 692 328 692 q 183 685 229 692 q 92 662 137 677 l 92 733 q 181 755 131 747 q 277 763 232 763 m 270 57 q 363 81 318 57 q 442 160 408 106 l 442 364 l 294 349 q 173 303 213 340 q 134 198 134 266 q 169 92 134 127 q 270 57 204 57 z "},"á":{"ha":608,"x_min":51,"x_max":522,"o":"m 277 763 q 413 739 360 763 q 494 660 467 715 q 522 513 522 606 l 522 0 l 453 0 l 447 83 l 440 83 q 359 12 408 36 q 252 -12 311 -12 q 147 12 192 -12 q 76 81 101 35 q 51 189 51 126 q 110 343 51 288 q 290 410 169 398 l 442 427 l 442 515 q 423 622 442 583 q 366 677 403 661 q 268 692 328 692 q 183 685 229 692 q 92 662 137 677 l 92 733 q 181 755 131 747 q 277 763 232 763 m 270 57 q 363 81 318 57 q 442 160 408 106 l 442 364 l 294 349 q 173 303 213 340 q 134 198 134 266 q 169 92 134 127 q 270 57 204 57 m 266 873 l 375 1122 l 458 1122 l 334 873 l 266 873 z "},"ă":{"ha":608,"x_min":51,"x_max":522,"o":"m 277 763 q 413 739 360 763 q 494 660 467 715 q 522 513 522 606 l 522 0 l 453 0 l 447 83 l 440 83 q 359 12 408 36 q 252 -12 311 -12 q 147 12 192 -12 q 76 81 101 35 q 51 189 51 126 q 110 343 51 288 q 290 410 169 398 l 442 427 l 442 515 q 423 622 442 583 q 366 677 403 661 q 268 692 328 692 q 183 685 229 692 q 92 662 137 677 l 92 733 q 181 755 131 747 q 277 763 232 763 m 270 57 q 363 81 318 57 q 442 160 408 106 l 442 364 l 294 349 q 173 303 213 340 q 134 198 134 266 q 169 92 134 127 q 270 57 204 57 m 301 881 q 181 937 226 881 q 132 1103 135 992 l 190 1103 q 222 975 194 1015 q 301 935 250 935 q 381 975 353 935 q 411 1103 408 1015 l 468 1103 q 420 937 465 992 q 301 881 376 881 z "},"ắ":{"ha":608,"x_min":51,"x_max":522,"o":"m 277 763 q 413 739 360 763 q 494 660 467 715 q 522 513 522 606 l 522 0 l 453 0 l 447 83 l 440 83 q 359 12 408 36 q 252 -12 311 -12 q 147 12 192 -12 q 76 81 101 35 q 51 189 51 126 q 110 343 51 288 q 290 410 169 398 l 442 427 l 442 515 q 423 622 442 583 q 366 677 403 661 q 268 692 328 692 q 183 685 229 692 q 92 662 137 677 l 92 733 q 181 755 131 747 q 277 763 232 763 m 270 57 q 363 81 318 57 q 442 160 408 106 l 442 364 l 294 349 q 173 303 213 340 q 134 198 134 266 q 169 92 134 127 q 270 57 204 57 m 270 1108 l 363 1297 l 438 1297 l 331 1108 l 270 1108 m 301 881 q 180 936 225 881 q 131 1099 135 991 l 188 1099 q 221 973 193 1012 q 301 934 249 934 q 381 973 353 934 q 412 1099 408 1012 l 469 1099 q 422 936 465 990 q 301 881 378 881 z "},"ặ":{"ha":608,"x_min":51,"x_max":522,"o":"m 277 763 q 413 739 360 763 q 494 660 467 715 q 522 513 522 606 l 522 0 l 453 0 l 447 83 l 440 83 q 359 12 408 36 q 252 -12 311 -12 q 147 12 192 -12 q 76 81 101 35 q 51 189 51 126 q 110 343 51 288 q 290 410 169 398 l 442 427 l 442 515 q 423 622 442 583 q 366 677 403 661 q 268 692 328 692 q 183 685 229 692 q 92 662 137 677 l 92 733 q 181 755 131 747 q 277 763 232 763 m 270 57 q 363 81 318 57 q 442 160 408 106 l 442 364 l 294 349 q 173 303 213 340 q 134 198 134 266 q 169 92 134 127 q 270 57 204 57 m 303 -235 q 261 -220 277 -235 q 245 -178 245 -204 q 261 -135 245 -151 q 303 -119 277 -119 q 345 -135 328 -119 q 361 -178 361 -151 q 345 -220 361 -204 q 303 -235 328 -235 m 301 881 q 181 937 226 881 q 132 1103 135 992 l 190 1103 q 222 975 194 1015 q 301 935 250 935 q 381 975 353 935 q 411 1103 408 1015 l 468 1103 q 420 937 465 992 q 301 881 376 881 z "},"ằ":{"ha":608,"x_min":51,"x_max":522,"o":"m 277 763 q 413 739 360 763 q 494 660 467 715 q 522 513 522 606 l 522 0 l 453 0 l 447 83 l 440 83 q 359 12 408 36 q 252 -12 311 -12 q 147 12 192 -12 q 76 81 101 35 q 51 189 51 126 q 110 343 51 288 q 290 410 169 398 l 442 427 l 442 515 q 423 622 442 583 q 366 677 403 661 q 268 692 328 692 q 183 685 229 692 q 92 662 137 677 l 92 733 q 181 755 131 747 q 277 763 232 763 m 270 57 q 363 81 318 57 q 442 160 408 106 l 442 364 l 294 349 q 173 303 213 340 q 134 198 134 266 q 169 92 134 127 q 270 57 204 57 m 270 1108 l 163 1297 l 238 1297 l 331 1108 l 270 1108 m 301 881 q 180 936 225 881 q 131 1099 135 991 l 188 1099 q 221 973 193 1012 q 301 934 249 934 q 381 973 353 934 q 412 1099 408 1012 l 469 1099 q 422 936 465 990 q 301 881 378 881 z "},"ẳ":{"ha":608,"x_min":51,"x_max":522,"o":"m 277 763 q 413 739 360 763 q 494 660 467 715 q 522 513 522 606 l 522 0 l 453 0 l 447 83 l 440 83 q 359 12 408 36 q 252 -12 311 -12 q 147 12 192 -12 q 76 81 101 35 q 51 189 51 126 q 110 343 51 288 q 290 410 169 398 l 442 427 l 442 515 q 423 622 442 583 q 366 677 403 661 q 268 692 328 692 q 183 685 229 692 q 92 662 137 677 l 92 733 q 181 755 131 747 q 277 763 232 763 m 270 57 q 363 81 318 57 q 442 160 408 106 l 442 364 l 294 349 q 173 303 213 340 q 134 198 134 266 q 169 92 134 127 q 270 57 204 57 m 273 1108 q 283 1142 274 1128 q 304 1163 292 1155 q 335 1181 315 1171 q 367 1199 357 1190 q 378 1222 378 1208 q 361 1246 378 1238 q 302 1255 344 1255 q 239 1249 272 1255 q 178 1231 207 1242 l 178 1276 q 238 1294 203 1288 q 306 1300 272 1300 q 402 1280 369 1300 q 435 1226 435 1259 q 427 1194 435 1207 q 408 1174 419 1181 q 377 1156 397 1167 q 342 1135 353 1145 q 328 1108 330 1125 l 273 1108 m 301 881 q 180 936 225 881 q 131 1099 135 991 l 188 1099 q 221 973 193 1012 q 301 934 249 934 q 381 973 353 934 q 412 1099 408 1012 l 469 1099 q 422 936 465 990 q 301 881 378 881 z "},"ẵ":{"ha":608,"x_min":51,"x_max":522,"o":"m 277 763 q 413 739 360 763 q 494 660 467 715 q 522 513 522 606 l 522 0 l 453 0 l 447 83 l 440 83 q 359 12 408 36 q 252 -12 311 -12 q 147 12 192 -12 q 76 81 101 35 q 51 189 51 126 q 110 343 51 288 q 290 410 169 398 l 442 427 l 442 515 q 423 622 442 583 q 366 677 403 661 q 268 692 328 692 q 183 685 229 692 q 92 662 137 677 l 92 733 q 181 755 131 747 q 277 763 232 763 m 270 57 q 363 81 318 57 q 442 160 408 106 l 442 364 l 294 349 q 173 303 213 340 q 134 198 134 266 q 169 92 134 127 q 270 57 204 57 m 387 1156 q 342 1163 364 1156 q 290 1184 320 1170 q 247 1202 265 1196 q 213 1208 230 1208 q 159 1197 183 1208 q 115 1160 136 1185 l 115 1219 q 213 1263 151 1263 q 259 1256 237 1263 q 310 1234 281 1248 q 353 1216 337 1222 q 388 1210 370 1210 q 440 1222 417 1210 q 486 1259 464 1234 l 486 1199 q 387 1156 449 1156 m 301 881 q 180 936 225 881 q 131 1099 135 991 l 188 1099 q 221 973 193 1012 q 301 934 249 934 q 381 973 353 934 q 412 1099 408 1012 l 469 1099 q 422 936 465 990 q 301 881 378 881 z "},"â":{"ha":608,"x_min":51,"x_max":522,"o":"m 277 763 q 413 739 360 763 q 494 660 467 715 q 522 513 522 606 l 522 0 l 453 0 l 447 83 l 440 83 q 359 12 408 36 q 252 -12 311 -12 q 147 12 192 -12 q 76 81 101 35 q 51 189 51 126 q 110 343 51 288 q 290 410 169 398 l 442 427 l 442 515 q 423 622 442 583 q 366 677 403 661 q 268 692 328 692 q 183 685 229 692 q 92 662 137 677 l 92 733 q 181 755 131 747 q 277 763 232 763 m 270 57 q 363 81 318 57 q 442 160 408 106 l 442 364 l 294 349 q 173 303 213 340 q 134 198 134 266 q 169 92 134 127 q 270 57 204 57 m 463 873 l 399 873 l 300 1079 l 201 873 l 137 873 l 260 1122 l 340 1122 l 463 873 z "},"ấ":{"ha":608,"x_min":51,"x_max":597,"o":"m 277 763 q 413 739 360 763 q 494 660 467 715 q 522 513 522 606 l 522 0 l 453 0 l 447 83 l 440 83 q 359 12 408 36 q 252 -12 311 -12 q 147 12 192 -12 q 76 81 101 35 q 51 189 51 126 q 110 343 51 288 q 290 410 169 398 l 442 427 l 442 515 q 423 622 442 583 q 366 677 403 661 q 268 692 328 692 q 183 685 229 692 q 92 662 137 677 l 92 733 q 181 755 131 747 q 277 763 232 763 m 270 57 q 363 81 318 57 q 442 160 408 106 l 442 364 l 294 349 q 173 303 213 340 q 134 198 134 266 q 169 92 134 127 q 270 57 204 57 m 522 1297 l 597 1297 l 490 1108 l 429 1108 l 522 1297 m 260 1122 l 340 1122 l 463 873 l 399 873 l 300 1079 l 201 873 l 137 873 l 260 1122 z "},"ậ":{"ha":608,"x_min":51,"x_max":522,"o":"m 277 763 q 413 739 360 763 q 494 660 467 715 q 522 513 522 606 l 522 0 l 453 0 l 447 83 l 440 83 q 359 12 408 36 q 252 -12 311 -12 q 147 12 192 -12 q 76 81 101 35 q 51 189 51 126 q 110 343 51 288 q 290 410 169 398 l 442 427 l 442 515 q 423 622 442 583 q 366 677 403 661 q 268 692 328 692 q 183 685 229 692 q 92 662 137 677 l 92 733 q 181 755 131 747 q 277 763 232 763 m 270 57 q 363 81 318 57 q 442 160 408 106 l 442 364 l 294 349 q 173 303 213 340 q 134 198 134 266 q 169 92 134 127 q 270 57 204 57 m 303 -235 q 261 -220 277 -235 q 245 -178 245 -204 q 261 -135 245 -151 q 303 -119 277 -119 q 345 -135 328 -119 q 361 -178 361 -151 q 345 -220 361 -204 q 303 -235 328 -235 m 463 873 l 399 873 l 300 1079 l 201 873 l 137 873 l 260 1122 l 340 1122 l 463 873 z "},"ầ":{"ha":608,"x_min":51,"x_max":522,"o":"m 277 763 q 413 739 360 763 q 494 660 467 715 q 522 513 522 606 l 522 0 l 453 0 l 447 83 l 440 83 q 359 12 408 36 q 252 -12 311 -12 q 147 12 192 -12 q 76 81 101 35 q 51 189 51 126 q 110 343 51 288 q 290 410 169 398 l 442 427 l 442 515 q 423 622 442 583 q 366 677 403 661 q 268 692 328 692 q 183 685 229 692 q 92 662 137 677 l 92 733 q 181 755 131 747 q 277 763 232 763 m 270 57 q 363 81 318 57 q 442 160 408 106 l 442 364 l 294 349 q 173 303 213 340 q 134 198 134 266 q 169 92 134 127 q 270 57 204 57 m 494 1108 l 433 1108 l 326 1297 l 401 1297 l 494 1108 m 260 1122 l 340 1122 l 463 873 l 399 873 l 300 1079 l 201 873 l 137 873 l 260 1122 z "},"ẩ":{"ha":608,"x_min":51,"x_max":577,"o":"m 277 763 q 413 739 360 763 q 494 660 467 715 q 522 513 522 606 l 522 0 l 453 0 l 447 83 l 440 83 q 359 12 408 36 q 252 -12 311 -12 q 147 12 192 -12 q 76 81 101 35 q 51 189 51 126 q 110 343 51 288 q 290 410 169 398 l 442 427 l 442 515 q 423 622 442 583 q 366 677 403 661 q 268 692 328 692 q 183 685 229 692 q 92 662 137 677 l 92 733 q 181 755 131 747 q 277 763 232 763 m 270 57 q 363 81 318 57 q 442 160 408 106 l 442 364 l 294 349 q 173 303 213 340 q 134 198 134 266 q 169 92 134 127 q 270 57 204 57 m 448 1300 q 544 1280 511 1300 q 577 1226 577 1259 q 569 1194 577 1207 q 550 1174 561 1181 q 519 1156 539 1167 q 484 1135 496 1145 q 470 1108 472 1125 l 415 1108 q 425 1142 416 1128 q 446 1163 434 1155 q 478 1181 458 1171 q 510 1199 499 1190 q 520 1222 520 1208 q 503 1246 520 1238 q 444 1255 486 1255 q 321 1231 378 1255 l 321 1276 q 380 1294 345 1288 q 448 1300 415 1300 m 260 1122 l 340 1122 l 463 873 l 399 873 l 300 1079 l 201 873 l 137 873 l 260 1122 z "},"ẫ":{"ha":608,"x_min":51,"x_max":522,"o":"m 277 763 q 413 739 360 763 q 494 660 467 715 q 522 513 522 606 l 522 0 l 453 0 l 447 83 l 440 83 q 359 12 408 36 q 252 -12 311 -12 q 147 12 192 -12 q 76 81 101 35 q 51 189 51 126 q 110 343 51 288 q 290 410 169 398 l 442 427 l 442 515 q 423 622 442 583 q 366 677 403 661 q 268 692 328 692 q 183 685 229 692 q 92 662 137 677 l 92 733 q 181 755 131 747 q 277 763 232 763 m 270 57 q 363 81 318 57 q 442 160 408 106 l 442 364 l 294 349 q 173 303 213 340 q 134 198 134 266 q 169 92 134 127 q 270 57 204 57 m 388 1210 q 441 1222 418 1210 q 487 1259 465 1234 l 487 1199 q 444 1167 469 1178 q 388 1156 419 1156 q 341 1163 364 1156 q 290 1185 319 1171 q 247 1203 265 1197 q 213 1209 230 1209 q 159 1197 183 1209 q 113 1159 135 1185 l 113 1219 q 213 1263 151 1263 q 259 1256 237 1263 q 310 1234 281 1248 q 353 1216 336 1222 q 388 1210 371 1210 m 260 1114 l 340 1114 l 463 874 l 399 874 l 300 1074 l 201 874 l 137 874 l 260 1114 z "},"ȁ":{"ha":608,"x_min":51,"x_max":522,"o":"m 277 763 q 413 739 360 763 q 494 660 467 715 q 522 513 522 606 l 522 0 l 453 0 l 447 83 l 440 83 q 359 12 408 36 q 252 -12 311 -12 q 147 12 192 -12 q 76 81 101 35 q 51 189 51 126 q 110 343 51 288 q 290 410 169 398 l 442 427 l 442 515 q 423 622 442 583 q 366 677 403 661 q 268 692 328 692 q 183 685 229 692 q 92 662 137 677 l 92 733 q 181 755 131 747 q 277 763 232 763 m 270 57 q 363 81 318 57 q 442 160 408 106 l 442 364 l 294 349 q 173 303 213 340 q 134 198 134 266 q 169 92 134 127 q 270 57 204 57 m 171 873 l 98 1122 l 170 1122 l 234 873 l 171 873 m 366 873 l 293 1122 l 365 1122 l 429 873 l 366 873 z "},"ä":{"ha":608,"x_min":51,"x_max":522,"o":"m 277 763 q 413 739 360 763 q 494 660 467 715 q 522 513 522 606 l 522 0 l 453 0 l 447 83 l 440 83 q 359 12 408 36 q 252 -12 311 -12 q 147 12 192 -12 q 76 81 101 35 q 51 189 51 126 q 110 343 51 288 q 290 410 169 398 l 442 427 l 442 515 q 423 622 442 583 q 366 677 403 661 q 268 692 328 692 q 183 685 229 692 q 92 662 137 677 l 92 733 q 181 755 131 747 q 277 763 232 763 m 270 57 q 363 81 318 57 q 442 160 408 106 l 442 364 l 294 349 q 173 303 213 340 q 134 198 134 266 q 169 92 134 127 q 270 57 204 57 m 181 930 q 139 945 155 930 q 122 987 122 960 q 139 1030 122 1013 q 181 1046 155 1046 q 222 1030 206 1046 q 238 987 238 1013 q 222 945 238 960 q 181 930 206 930 m 420 930 q 378 945 394 930 q 362 987 362 960 q 378 1030 362 1013 q 420 1046 394 1046 q 462 1030 446 1046 q 478 987 478 1013 q 462 945 478 960 q 420 930 446 930 z "},"ạ":{"ha":608,"x_min":51,"x_max":522,"o":"m 277 763 q 413 739 360 763 q 494 660 467 715 q 522 513 522 606 l 522 0 l 453 0 l 447 83 l 440 83 q 359 12 408 36 q 252 -12 311 -12 q 147 12 192 -12 q 76 81 101 35 q 51 189 51 126 q 110 343 51 288 q 290 410 169 398 l 442 427 l 442 515 q 423 622 442 583 q 366 677 403 661 q 268 692 328 692 q 183 685 229 692 q 92 662 137 677 l 92 733 q 181 755 131 747 q 277 763 232 763 m 270 57 q 363 81 318 57 q 442 160 408 106 l 442 364 l 294 349 q 173 303 213 340 q 134 198 134 266 q 169 92 134 127 q 270 57 204 57 m 303 -235 q 261 -220 277 -235 q 245 -178 245 -204 q 261 -135 245 -151 q 303 -119 277 -119 q 345 -135 328 -119 q 361 -178 361 -151 q 345 -220 361 -204 q 303 -235 328 -235 z "},"à":{"ha":608,"x_min":51,"x_max":522,"o":"m 277 763 q 413 739 360 763 q 494 660 467 715 q 522 513 522 606 l 522 0 l 453 0 l 447 83 l 440 83 q 359 12 408 36 q 252 -12 311 -12 q 147 12 192 -12 q 76 81 101 35 q 51 189 51 126 q 110 343 51 288 q 290 410 169 398 l 442 427 l 442 515 q 423 622 442 583 q 366 677 403 661 q 268 692 328 692 q 183 685 229 692 q 92 662 137 677 l 92 733 q 181 755 131 747 q 277 763 232 763 m 270 57 q 363 81 318 57 q 442 160 408 106 l 442 364 l 294 349 q 173 303 213 340 q 134 198 134 266 q 169 92 134 127 q 270 57 204 57 m 266 873 l 142 1122 l 225 1122 l 334 873 l 266 873 z "},"ả":{"ha":608,"x_min":51,"x_max":522,"o":"m 277 763 q 413 739 360 763 q 494 660 467 715 q 522 513 522 606 l 522 0 l 453 0 l 447 83 l 440 83 q 359 12 408 36 q 252 -12 311 -12 q 147 12 192 -12 q 76 81 101 35 q 51 189 51 126 q 110 343 51 288 q 290 410 169 398 l 442 427 l 442 515 q 423 622 442 583 q 366 677 403 661 q 268 692 328 692 q 183 685 229 692 q 92 662 137 677 l 92 733 q 181 755 131 747 q 277 763 232 763 m 270 57 q 363 81 318 57 q 442 160 408 106 l 442 364 l 294 349 q 173 303 213 340 q 134 198 134 266 q 169 92 134 127 q 270 57 204 57 m 272 873 q 288 932 272 910 q 331 977 303 954 q 360 1006 351 994 q 369 1033 369 1017 q 352 1070 369 1058 q 296 1082 335 1082 q 245 1078 272 1082 q 198 1065 219 1074 l 198 1114 q 246 1126 219 1122 q 299 1131 273 1131 q 395 1106 363 1131 q 426 1037 426 1082 q 419 999 426 1015 q 402 973 413 983 q 375 949 392 963 q 340 914 351 929 q 328 873 328 898 l 272 873 z "},"ȃ":{"ha":608,"x_min":51,"x_max":522,"o":"m 277 763 q 413 739 360 763 q 494 660 467 715 q 522 513 522 606 l 522 0 l 453 0 l 447 83 l 440 83 q 359 12 408 36 q 252 -12 311 -12 q 147 12 192 -12 q 76 81 101 35 q 51 189 51 126 q 110 343 51 288 q 290 410 169 398 l 442 427 l 442 515 q 423 622 442 583 q 366 677 403 661 q 268 692 328 692 q 183 685 229 692 q 92 662 137 677 l 92 733 q 181 755 131 747 q 277 763 232 763 m 270 57 q 363 81 318 57 q 442 160 408 106 l 442 364 l 294 349 q 173 303 213 340 q 134 198 134 266 q 169 92 134 127 q 270 57 204 57 m 132 892 q 179 1060 135 1006 q 299 1115 222 1115 q 419 1060 374 1115 q 468 892 465 1005 l 411 892 q 378 1021 406 981 q 299 1060 350 1060 q 220 1021 247 1060 q 190 892 192 981 l 132 892 z "},"ā":{"ha":608,"x_min":51,"x_max":522,"o":"m 277 763 q 413 739 360 763 q 494 660 467 715 q 522 513 522 606 l 522 0 l 453 0 l 447 83 l 440 83 q 359 12 408 36 q 252 -12 311 -12 q 147 12 192 -12 q 76 81 101 35 q 51 189 51 126 q 110 343 51 288 q 290 410 169 398 l 442 427 l 442 515 q 423 622 442 583 q 366 677 403 661 q 268 692 328 692 q 183 685 229 692 q 92 662 137 677 l 92 733 q 181 755 131 747 q 277 763 232 763 m 270 57 q 363 81 318 57 q 442 160 408 106 l 442 364 l 294 349 q 173 303 213 340 q 134 198 134 266 q 169 92 134 127 q 270 57 204 57 m 115 958 l 115 1018 l 485 1018 l 485 958 l 115 958 z "},"ą":{"ha":608,"x_min":51,"x_max":579,"o":"m 488 -237 q 579 -208 535 -237 l 579 -258 q 534 -277 559 -270 q 483 -284 509 -284 q 385 -252 420 -284 q 350 -162 350 -219 q 374 -73 350 -114 q 453 8 399 -32 l 447 83 l 440 83 q 359 12 408 36 q 252 -12 311 -12 q 147 12 192 -12 q 76 81 101 35 q 51 189 51 126 q 110 343 51 288 q 290 410 169 398 l 442 427 l 442 515 q 423 622 442 583 q 366 677 403 661 q 268 692 328 692 q 183 685 229 692 q 92 662 137 677 l 92 733 q 181 755 131 747 q 277 763 232 763 q 413 739 360 763 q 494 660 467 715 q 522 513 522 606 l 522 0 q 432 -77 459 -40 q 406 -157 406 -115 q 427 -217 406 -196 q 488 -237 449 -237 m 270 57 q 363 81 318 57 q 442 160 408 106 l 442 364 l 294 349 q 173 303 213 340 q 134 198 134 266 q 169 92 134 127 q 270 57 204 57 z "},"å":{"ha":608,"x_min":51,"x_max":522,"o":"m 277 763 q 413 739 360 763 q 494 660 467 715 q 522 513 522 606 l 522 0 l 453 0 l 447 83 l 440 83 q 359 12 408 36 q 252 -12 311 -12 q 147 12 192 -12 q 76 81 101 35 q 51 189 51 126 q 110 343 51 288 q 290 410 169 398 l 442 427 l 442 515 q 423 622 442 583 q 366 677 403 661 q 268 692 328 692 q 183 685 229 692 q 92 662 137 677 l 92 733 q 181 755 131 747 q 277 763 232 763 m 270 57 q 363 81 318 57 q 442 160 408 106 l 442 364 l 294 349 q 173 303 213 340 q 134 198 134 266 q 169 92 134 127 q 270 57 204 57 m 300 870 q 232 887 263 870 q 185 934 202 904 q 168 1001 168 964 q 185 1069 168 1039 q 232 1116 202 1099 q 300 1133 263 1133 q 368 1116 338 1133 q 415 1069 398 1099 q 433 1001 433 1039 q 415 934 433 964 q 368 887 398 904 q 300 870 338 870 m 300 915 q 361 939 338 915 q 385 1001 385 962 q 361 1065 385 1042 q 300 1088 338 1088 q 239 1065 263 1088 q 215 1001 215 1042 q 239 939 215 962 q 300 915 263 915 z "},"ǻ":{"ha":608,"x_min":51,"x_max":523,"o":"m 277 763 q 413 739 360 763 q 494 660 467 715 q 522 513 522 606 l 522 0 l 453 0 l 447 83 l 440 83 q 359 12 408 36 q 252 -12 311 -12 q 147 12 192 -12 q 76 81 101 35 q 51 189 51 126 q 110 343 51 288 q 290 410 169 398 l 442 427 l 442 515 q 423 622 442 583 q 366 677 403 661 q 268 692 328 692 q 183 685 229 692 q 92 662 137 677 l 92 733 q 181 755 131 747 q 277 763 232 763 m 270 57 q 363 81 318 57 q 442 160 408 106 l 442 364 l 294 349 q 173 303 213 340 q 134 198 134 266 q 169 92 134 127 q 270 57 204 57 m 400 1091 q 424 1050 415 1074 q 433 1001 433 1027 q 415 934 433 964 q 368 887 398 904 q 300 870 338 870 q 232 887 263 870 q 185 934 202 904 q 168 1001 168 964 q 185 1069 168 1039 q 232 1116 202 1099 q 300 1133 263 1133 q 356 1122 330 1133 l 447 1236 l 523 1236 l 400 1091 m 300 915 q 361 939 338 915 q 385 1001 385 962 q 361 1065 385 1042 q 300 1088 338 1088 q 239 1065 263 1088 q 215 1001 215 1042 q 239 939 215 962 q 300 915 263 915 z "},"ã":{"ha":608,"x_min":51,"x_max":522,"o":"m 277 763 q 413 739 360 763 q 494 660 467 715 q 522 513 522 606 l 522 0 l 453 0 l 447 83 l 440 83 q 359 12 408 36 q 252 -12 311 -12 q 147 12 192 -12 q 76 81 101 35 q 51 189 51 126 q 110 343 51 288 q 290 410 169 398 l 442 427 l 442 515 q 423 622 442 583 q 366 677 403 661 q 268 692 328 692 q 183 685 229 692 q 92 662 137 677 l 92 733 q 181 755 131 747 q 277 763 232 763 m 270 57 q 363 81 318 57 q 442 160 408 106 l 442 364 l 294 349 q 173 303 213 340 q 134 198 134 266 q 169 92 134 127 q 270 57 204 57 m 386 944 q 343 952 363 944 q 290 975 322 960 q 248 994 265 988 q 214 1001 231 1001 q 161 988 185 1001 q 115 949 138 975 l 115 1014 q 214 1059 153 1059 q 258 1051 238 1059 q 310 1028 279 1044 q 353 1009 335 1016 q 387 1003 370 1003 q 440 1016 416 1003 q 485 1055 463 1028 l 485 990 q 442 956 467 968 q 386 944 417 944 z "},"æ":{"ha":981,"x_min":51,"x_max":933,"o":"m 933 347 l 522 347 q 548 176 524 239 q 620 85 573 113 q 743 58 668 58 q 899 86 807 58 l 899 15 q 736 -13 813 -13 q 582 19 644 -13 q 486 124 519 52 q 385 19 442 50 q 257 -12 327 -12 q 149 11 196 -12 q 77 80 103 35 q 51 188 51 124 q 114 350 51 291 q 310 409 176 409 l 443 409 l 443 518 q 423 623 443 585 q 365 677 403 661 q 267 692 327 692 q 183 685 229 692 q 92 662 137 677 l 92 733 q 182 755 133 747 q 276 763 231 763 q 419 733 365 763 q 495 635 473 702 q 692 765 552 765 q 870 674 808 765 q 933 376 933 583 l 933 347 m 690 700 q 568 635 612 700 q 522 409 524 569 l 853 409 q 831 585 851 522 q 775 675 810 649 q 690 700 740 700 m 272 57 q 380 89 331 57 q 462 192 429 120 q 443 348 446 258 l 313 348 q 177 307 219 348 q 134 195 134 267 q 170 92 134 126 q 272 57 206 57 z "},"ǽ":{"ha":981,"x_min":51,"x_max":933,"o":"m 933 347 l 522 347 q 548 176 524 239 q 620 85 573 113 q 743 58 668 58 q 899 86 807 58 l 899 15 q 736 -13 813 -13 q 582 19 644 -13 q 486 124 519 52 q 385 19 442 50 q 257 -12 327 -12 q 149 11 196 -12 q 77 80 103 35 q 51 188 51 124 q 114 350 51 291 q 310 409 176 409 l 443 409 l 443 518 q 423 623 443 585 q 365 677 403 661 q 267 692 327 692 q 183 685 229 692 q 92 662 137 677 l 92 733 q 182 755 133 747 q 276 763 231 763 q 419 733 365 763 q 495 635 473 702 q 692 765 552 765 q 870 674 808 765 q 933 376 933 583 l 933 347 m 690 700 q 568 635 612 700 q 522 409 524 569 l 853 409 q 831 585 851 522 q 775 675 810 649 q 690 700 740 700 m 272 57 q 380 89 331 57 q 462 192 429 120 q 443 348 446 258 l 313 348 q 177 307 219 348 q 134 195 134 267 q 170 92 134 126 q 272 57 206 57 m 448 873 l 557 1122 l 640 1122 l 516 873 l 448 873 z "},"b":{"ha":655,"x_min":93,"x_max":599,"o":"m 272 -12 q 178 -5 227 -12 q 93 15 129 3 l 93 1122 l 174 1122 l 174 681 l 179 681 q 251 740 206 717 q 351 763 295 763 q 530 676 462 763 q 599 390 599 589 q 272 -12 599 -12 m 273 57 q 454 133 394 57 q 515 381 515 208 q 491 570 515 502 q 428 664 468 638 q 331 690 388 690 q 240 666 283 690 q 174 597 197 642 l 174 70 q 221 61 193 65 q 273 57 249 57 z "},"c":{"ha":502,"x_min":56,"x_max":489,"o":"m 335 -13 q 182 25 243 -13 q 88 150 120 64 q 56 376 56 236 q 92 602 56 517 q 195 725 127 688 q 366 763 263 763 q 489 749 431 763 l 489 676 q 376 691 430 691 q 242 663 293 691 q 166 566 192 634 q 141 379 141 498 q 164 189 141 258 q 232 89 187 119 q 349 60 278 60 q 489 88 413 60 l 489 15 q 335 -13 413 -13 z "},"ć":{"ha":502,"x_min":56,"x_max":489,"o":"m 335 -13 q 182 25 243 -13 q 88 150 120 64 q 56 376 56 236 q 92 602 56 517 q 195 725 127 688 q 366 763 263 763 q 489 749 431 763 l 489 676 q 376 691 430 691 q 242 663 293 691 q 166 566 192 634 q 141 379 141 498 q 164 189 141 258 q 232 89 187 119 q 349 60 278 60 q 489 88 413 60 l 489 15 q 335 -13 413 -13 m 265 873 l 374 1122 l 458 1122 l 333 873 l 265 873 z "},"č":{"ha":502,"x_min":56,"x_max":489,"o":"m 335 -13 q 182 25 243 -13 q 88 150 120 64 q 56 376 56 236 q 92 602 56 517 q 195 725 127 688 q 366 763 263 763 q 489 749 431 763 l 489 676 q 376 691 430 691 q 242 663 293 691 q 166 566 192 634 q 141 379 141 498 q 164 189 141 258 q 232 89 187 119 q 349 60 278 60 q 489 88 413 60 l 489 15 q 335 -13 413 -13 m 398 1122 l 463 1122 l 339 873 l 260 873 l 136 1122 l 201 1122 l 299 916 l 398 1122 z "},"ç":{"ha":502,"x_min":56,"x_max":489,"o":"m 376 691 q 242 663 293 691 q 166 566 192 634 q 141 379 141 498 q 164 189 141 258 q 232 89 187 119 q 349 60 278 60 q 489 88 413 60 l 489 15 q 335 -13 413 -13 l 331 -13 l 331 -76 q 401 -109 376 -83 q 425 -180 425 -136 q 392 -256 425 -227 q 298 -284 359 -284 q 243 -278 271 -284 q 195 -261 216 -272 l 195 -212 q 299 -237 243 -237 q 372 -178 372 -237 q 297 -115 372 -115 l 278 -115 l 278 -9 q 112 99 167 8 q 56 376 56 191 q 92 602 56 517 q 195 725 127 688 q 366 763 263 763 q 489 749 431 763 l 489 676 q 376 691 430 691 z "},"ḉ":{"ha":502,"x_min":56,"x_max":489,"o":"m 458 1122 l 333 873 l 265 873 l 374 1122 l 458 1122 m 376 691 q 242 663 293 691 q 166 566 192 634 q 141 379 141 498 q 164 189 141 258 q 232 89 187 119 q 349 60 278 60 q 489 88 413 60 l 489 15 q 335 -13 413 -13 l 331 -13 l 331 -76 q 401 -109 376 -83 q 425 -180 425 -136 q 392 -256 425 -227 q 298 -284 359 -284 q 243 -278 271 -284 q 195 -261 216 -272 l 195 -212 q 299 -237 243 -237 q 372 -178 372 -237 q 297 -115 372 -115 l 278 -115 l 278 -9 q 112 99 167 8 q 56 376 56 191 q 92 602 56 517 q 195 725 127 688 q 366 763 263 763 q 489 749 431 763 l 489 676 q 376 691 430 691 z "},"ĉ":{"ha":502,"x_min":56,"x_max":489,"o":"m 335 -13 q 182 25 243 -13 q 88 150 120 64 q 56 376 56 236 q 92 602 56 517 q 195 725 127 688 q 366 763 263 763 q 489 749 431 763 l 489 676 q 376 691 430 691 q 242 663 293 691 q 166 566 192 634 q 141 379 141 498 q 164 189 141 258 q 232 89 187 119 q 349 60 278 60 q 489 88 413 60 l 489 15 q 335 -13 413 -13 m 463 873 l 398 873 l 299 1079 l 201 873 l 136 873 l 260 1122 l 339 1122 l 463 873 z "},"ċ":{"ha":502,"x_min":56,"x_max":489,"o":"m 335 -13 q 182 25 243 -13 q 88 150 120 64 q 56 376 56 236 q 92 602 56 517 q 195 725 127 688 q 366 763 263 763 q 489 749 431 763 l 489 676 q 376 691 430 691 q 242 663 293 691 q 166 566 192 634 q 141 379 141 498 q 164 189 141 258 q 232 89 187 119 q 349 60 278 60 q 489 88 413 60 l 489 15 q 335 -13 413 -13 m 299 928 q 255 944 271 928 q 238 987 238 960 q 255 1030 238 1014 q 299 1047 271 1047 q 344 1030 328 1047 q 360 987 360 1014 q 344 944 360 960 q 299 928 328 928 z "},"d":{"ha":655,"x_min":56,"x_max":562,"o":"m 308 -13 q 126 74 196 -13 q 56 361 56 162 q 140 665 56 567 q 388 763 224 763 q 481 758 435 763 l 481 1122 l 562 1122 l 562 0 l 492 0 l 485 75 l 479 75 q 408 11 453 36 q 308 -13 364 -13 m 324 60 q 414 85 371 60 q 481 156 457 110 l 481 685 q 435 691 463 689 q 384 694 408 694 q 201 618 262 694 q 140 369 140 542 q 163 181 140 249 q 227 86 187 113 q 324 60 267 60 z "},"ð":{"ha":650,"x_min":56,"x_max":592,"o":"m 445 923 q 553 669 513 806 q 592 401 592 533 q 326 -13 592 -13 q 56 375 56 -13 q 125 670 56 578 q 322 763 194 763 q 461 714 406 763 q 370 909 427 817 l 125 865 l 114 921 l 336 960 q 188 1122 274 1047 l 283 1122 q 413 974 351 1066 l 567 1002 l 578 947 l 445 923 m 326 56 q 461 130 413 56 q 510 372 510 204 q 488 565 510 494 q 425 665 465 636 q 325 694 385 694 q 225 666 265 694 q 162 567 184 637 q 140 377 140 497 q 162 185 140 256 q 225 85 184 114 q 326 56 265 56 z "},"ď":{"ha":655,"x_min":56,"x_max":694,"o":"m 308 -13 q 126 74 196 -13 q 56 361 56 162 q 140 665 56 567 q 388 763 224 763 q 481 758 435 763 l 481 1122 l 562 1122 l 562 0 l 492 0 l 485 75 l 479 75 q 408 11 453 36 q 308 -13 364 -13 m 324 60 q 414 85 371 60 q 481 156 457 110 l 481 685 q 435 691 463 689 q 384 694 408 694 q 201 618 262 694 q 140 369 140 542 q 163 181 140 249 q 227 86 187 113 q 324 60 267 60 m 615 819 q 629 1122 629 935 l 694 1122 q 687 966 694 1044 q 665 819 680 887 l 615 819 z "},"đ":{"ha":655,"x_min":56,"x_max":651,"o":"m 651 910 l 562 910 l 562 0 l 492 0 l 485 75 l 479 75 q 408 11 453 36 q 308 -13 364 -13 q 126 74 196 -13 q 56 361 56 162 q 140 665 56 567 q 388 763 224 763 q 481 758 435 763 l 481 910 l 281 910 l 281 972 l 481 972 l 481 1122 l 562 1122 l 562 972 l 651 972 l 651 910 m 481 685 q 435 691 463 689 q 384 694 408 694 q 201 618 262 694 q 140 369 140 542 q 163 181 140 249 q 227 86 187 113 q 324 60 267 60 q 414 85 371 60 q 481 156 457 110 l 481 685 z "},"ḍ":{"ha":655,"x_min":56,"x_max":562,"o":"m 308 -13 q 126 74 196 -13 q 56 361 56 162 q 140 665 56 567 q 388 763 224 763 q 481 758 435 763 l 481 1122 l 562 1122 l 562 0 l 492 0 l 485 75 l 479 75 q 408 11 453 36 q 308 -13 364 -13 m 324 60 q 414 85 371 60 q 481 156 457 110 l 481 685 q 435 691 463 689 q 384 694 408 694 q 201 618 262 694 q 140 369 140 542 q 163 181 140 249 q 227 86 187 113 q 324 60 267 60 m 326 -235 q 285 -220 301 -235 q 269 -178 269 -204 q 285 -135 269 -151 q 326 -119 301 -119 q 368 -135 352 -119 q 385 -178 385 -151 q 368 -220 385 -204 q 326 -235 352 -235 z "},"ḏ":{"ha":655,"x_min":56,"x_max":562,"o":"m 308 -13 q 126 74 196 -13 q 56 361 56 162 q 140 665 56 567 q 388 763 224 763 q 481 758 435 763 l 481 1122 l 562 1122 l 562 0 l 492 0 l 485 75 l 479 75 q 408 11 453 36 q 308 -13 364 -13 m 324 60 q 414 85 371 60 q 481 156 457 110 l 481 685 q 435 691 463 689 q 384 694 408 694 q 201 618 262 694 q 140 369 140 542 q 163 181 140 249 q 227 86 187 113 q 324 60 267 60 m 160 -207 l 160 -147 l 494 -147 l 494 -207 l 160 -207 z "},"ǳ":{"ha":1184,"x_min":56,"x_max":1152,"o":"m 308 -13 q 126 74 196 -13 q 56 361 56 162 q 140 665 56 567 q 388 763 224 763 q 481 758 435 763 l 481 1122 l 562 1122 l 562 0 l 492 0 l 485 75 l 479 75 q 408 11 453 36 q 308 -13 364 -13 m 324 60 q 414 85 371 60 q 481 156 457 110 l 481 685 q 435 691 463 689 q 384 694 408 694 q 201 618 262 694 q 140 369 140 542 q 163 181 140 249 q 227 86 187 113 q 324 60 267 60 m 787 69 l 1152 69 l 1152 0 l 691 0 l 691 49 l 1049 683 l 698 683 l 698 752 l 1145 752 l 1145 703 l 787 69 z "},"ǆ":{"ha":1184,"x_min":56,"x_max":1152,"o":"m 308 -13 q 126 74 196 -13 q 56 361 56 162 q 140 665 56 567 q 388 763 224 763 q 481 758 435 763 l 481 1122 l 562 1122 l 562 0 l 492 0 l 485 75 l 479 75 q 408 11 453 36 q 308 -13 364 -13 m 324 60 q 414 85 371 60 q 481 156 457 110 l 481 685 q 435 691 463 689 q 384 694 408 694 q 201 618 262 694 q 140 369 140 542 q 163 181 140 249 q 227 86 187 113 q 324 60 267 60 m 787 69 l 1152 69 l 1152 0 l 691 0 l 691 49 l 1049 683 l 698 683 l 698 752 l 1145 752 l 1145 703 l 787 69 m 1021 1122 l 1085 1122 l 962 873 l 883 873 l 759 1122 l 824 1122 l 922 916 l 1021 1122 z "},"e":{"ha":605,"x_min":56,"x_max":557,"o":"m 557 347 l 140 347 q 167 175 142 238 q 240 85 192 113 q 365 58 288 58 q 523 86 431 58 l 523 15 q 357 -13 437 -13 q 189 25 255 -13 q 90 149 123 64 q 56 376 56 235 q 124 670 56 578 q 313 763 192 763 q 494 672 431 763 q 557 376 557 581 l 557 347 m 313 699 q 188 634 233 699 q 140 409 142 569 l 476 409 q 455 583 475 519 q 399 673 435 647 q 313 699 364 699 z "},"é":{"ha":605,"x_min":56,"x_max":557,"o":"m 557 347 l 140 347 q 167 175 142 238 q 240 85 192 113 q 365 58 288 58 q 523 86 431 58 l 523 15 q 357 -13 437 -13 q 189 25 255 -13 q 90 149 123 64 q 56 376 56 235 q 124 670 56 578 q 313 763 192 763 q 494 672 431 763 q 557 376 557 581 l 557 347 m 313 699 q 188 634 233 699 q 140 409 142 569 l 476 409 q 455 583 475 519 q 399 673 435 647 q 313 699 364 699 m 276 873 l 385 1122 l 468 1122 l 344 873 l 276 873 z "},"ĕ":{"ha":605,"x_min":56,"x_max":557,"o":"m 557 347 l 140 347 q 167 175 142 238 q 240 85 192 113 q 365 58 288 58 q 523 86 431 58 l 523 15 q 357 -13 437 -13 q 189 25 255 -13 q 90 149 123 64 q 56 376 56 235 q 124 670 56 578 q 313 763 192 763 q 494 672 431 763 q 557 376 557 581 l 557 347 m 313 699 q 188 634 233 699 q 140 409 142 569 l 476 409 q 455 583 475 519 q 399 673 435 647 q 313 699 364 699 m 311 881 q 190 937 235 881 q 142 1103 145 992 l 199 1103 q 232 975 204 1015 q 311 935 260 935 q 390 975 363 935 q 421 1103 418 1015 l 478 1103 q 430 937 474 992 q 311 881 386 881 z "},"ě":{"ha":605,"x_min":56,"x_max":557,"o":"m 557 347 l 140 347 q 167 175 142 238 q 240 85 192 113 q 365 58 288 58 q 523 86 431 58 l 523 15 q 357 -13 437 -13 q 189 25 255 -13 q 90 149 123 64 q 56 376 56 235 q 124 670 56 578 q 313 763 192 763 q 494 672 431 763 q 557 376 557 581 l 557 347 m 313 699 q 188 634 233 699 q 140 409 142 569 l 476 409 q 455 583 475 519 q 399 673 435 647 q 313 699 364 699 m 408 1122 l 473 1122 l 349 873 l 270 873 l 147 1122 l 211 1122 l 310 916 l 408 1122 z "},"ḝ":{"ha":605,"x_min":56,"x_max":557,"o":"m 311 881 q 190 937 235 881 q 142 1103 145 992 l 199 1103 q 232 975 204 1015 q 311 935 260 935 q 390 975 363 935 q 421 1103 418 1015 l 478 1103 q 430 937 474 992 q 311 881 386 881 m 557 347 l 140 347 q 167 175 142 238 q 240 85 192 113 q 365 58 288 58 q 523 86 431 58 l 523 15 q 357 -13 437 -13 l 339 -13 l 339 -76 q 409 -109 385 -83 q 433 -180 433 -136 q 400 -256 433 -227 q 306 -284 367 -284 q 252 -278 279 -284 q 203 -261 224 -272 l 203 -212 q 308 -237 251 -237 q 380 -178 380 -237 q 306 -115 380 -115 l 286 -115 l 286 -8 q 113 101 169 10 q 56 376 56 192 q 124 670 56 578 q 313 763 192 763 q 494 672 431 763 q 557 376 557 581 l 557 347 m 313 699 q 188 634 233 699 q 140 409 142 569 l 476 409 q 455 583 475 519 q 399 673 435 647 q 313 699 364 699 z "},"ê":{"ha":605,"x_min":56,"x_max":557,"o":"m 557 347 l 140 347 q 167 175 142 238 q 240 85 192 113 q 365 58 288 58 q 523 86 431 58 l 523 15 q 357 -13 437 -13 q 189 25 255 -13 q 90 149 123 64 q 56 376 56 235 q 124 670 56 578 q 313 763 192 763 q 494 672 431 763 q 557 376 557 581 l 557 347 m 313 699 q 188 634 233 699 q 140 409 142 569 l 476 409 q 455 583 475 519 q 399 673 435 647 q 313 699 364 699 m 473 873 l 408 873 l 310 1079 l 211 873 l 147 873 l 270 1122 l 349 1122 l 473 873 z "},"ế":{"ha":605,"x_min":56,"x_max":607,"o":"m 557 347 l 140 347 q 167 175 142 238 q 240 85 192 113 q 365 58 288 58 q 523 86 431 58 l 523 15 q 357 -13 437 -13 q 189 25 255 -13 q 90 149 123 64 q 56 376 56 235 q 124 670 56 578 q 313 763 192 763 q 494 672 431 763 q 557 376 557 581 l 557 347 m 313 699 q 188 634 233 699 q 140 409 142 569 l 476 409 q 455 583 475 519 q 399 673 435 647 q 313 699 364 699 m 531 1297 l 607 1297 l 499 1108 l 439 1108 l 531 1297 m 270 1122 l 349 1122 l 473 873 l 408 873 l 310 1079 l 211 873 l 147 873 l 270 1122 z "},"ệ":{"ha":605,"x_min":56,"x_max":557,"o":"m 557 347 l 140 347 q 167 175 142 238 q 240 85 192 113 q 365 58 288 58 q 523 86 431 58 l 523 15 q 357 -13 437 -13 q 189 25 255 -13 q 90 149 123 64 q 56 376 56 235 q 124 670 56 578 q 313 763 192 763 q 494 672 431 763 q 557 376 557 581 l 557 347 m 313 699 q 188 634 233 699 q 140 409 142 569 l 476 409 q 455 583 475 519 q 399 673 435 647 q 313 699 364 699 m 310 -235 q 268 -220 284 -235 q 252 -178 252 -204 q 268 -135 252 -151 q 310 -119 284 -119 q 352 -135 335 -119 q 368 -178 368 -151 q 352 -220 368 -204 q 310 -235 335 -235 m 473 873 l 408 873 l 310 1079 l 211 873 l 147 873 l 270 1122 l 349 1122 l 473 873 z "},"ề":{"ha":605,"x_min":56,"x_max":557,"o":"m 557 347 l 140 347 q 167 175 142 238 q 240 85 192 113 q 365 58 288 58 q 523 86 431 58 l 523 15 q 357 -13 437 -13 q 189 25 255 -13 q 90 149 123 64 q 56 376 56 235 q 124 670 56 578 q 313 763 192 763 q 494 672 431 763 q 557 376 557 581 l 557 347 m 313 699 q 188 634 233 699 q 140 409 142 569 l 476 409 q 455 583 475 519 q 399 673 435 647 q 313 699 364 699 m 503 1108 l 443 1108 l 335 1297 l 411 1297 l 503 1108 m 270 1122 l 349 1122 l 473 873 l 408 873 l 310 1079 l 211 873 l 147 873 l 270 1122 z "},"ể":{"ha":605,"x_min":56,"x_max":587,"o":"m 557 347 l 140 347 q 167 175 142 238 q 240 85 192 113 q 365 58 288 58 q 523 86 431 58 l 523 15 q 357 -13 437 -13 q 189 25 255 -13 q 90 149 123 64 q 56 376 56 235 q 124 670 56 578 q 313 763 192 763 q 494 672 431 763 q 557 376 557 581 l 557 347 m 313 699 q 188 634 233 699 q 140 409 142 569 l 476 409 q 455 583 475 519 q 399 673 435 647 q 313 699 364 699 m 458 1300 q 554 1280 521 1300 q 587 1226 587 1259 q 579 1194 587 1207 q 560 1174 571 1181 q 529 1156 549 1167 q 494 1135 506 1145 q 480 1108 482 1125 l 424 1108 q 435 1142 426 1128 q 456 1163 444 1155 q 488 1181 467 1171 q 519 1199 509 1190 q 530 1222 530 1208 q 513 1246 530 1238 q 453 1255 496 1255 q 331 1231 388 1255 l 331 1276 q 390 1294 355 1288 q 458 1300 424 1300 m 270 1122 l 349 1122 l 473 873 l 408 873 l 310 1079 l 211 873 l 147 873 l 270 1122 z "},"ễ":{"ha":605,"x_min":56,"x_max":557,"o":"m 557 347 l 140 347 q 167 175 142 238 q 240 85 192 113 q 365 58 288 58 q 523 86 431 58 l 523 15 q 357 -13 437 -13 q 189 25 255 -13 q 90 149 123 64 q 56 376 56 235 q 124 670 56 578 q 313 763 192 763 q 494 672 431 763 q 557 376 557 581 l 557 347 m 313 699 q 188 634 233 699 q 140 409 142 569 l 476 409 q 455 583 475 519 q 399 673 435 647 q 313 699 364 699 m 398 1210 q 451 1222 428 1210 q 497 1259 474 1234 l 497 1199 q 454 1167 479 1178 q 397 1156 428 1156 q 351 1163 374 1156 q 300 1185 328 1171 q 257 1203 274 1197 q 222 1209 240 1209 q 169 1197 192 1209 q 123 1159 145 1185 l 123 1219 q 222 1263 161 1263 q 268 1256 247 1263 q 319 1234 290 1248 q 363 1216 346 1222 q 398 1210 381 1210 m 270 1114 l 349 1114 l 473 874 l 408 874 l 310 1074 l 211 874 l 147 874 l 270 1114 z "},"ȅ":{"ha":605,"x_min":56,"x_max":557,"o":"m 557 347 l 140 347 q 167 175 142 238 q 240 85 192 113 q 365 58 288 58 q 523 86 431 58 l 523 15 q 357 -13 437 -13 q 189 25 255 -13 q 90 149 123 64 q 56 376 56 235 q 124 670 56 578 q 313 763 192 763 q 494 672 431 763 q 557 376 557 581 l 557 347 m 313 699 q 188 634 233 699 q 140 409 142 569 l 476 409 q 455 583 475 519 q 399 673 435 647 q 313 699 364 699 m 181 873 l 108 1122 l 180 1122 l 244 873 l 181 873 m 376 873 l 303 1122 l 374 1122 l 439 873 l 376 873 z "},"ë":{"ha":605,"x_min":56,"x_max":557,"o":"m 557 347 l 140 347 q 167 175 142 238 q 240 85 192 113 q 365 58 288 58 q 523 86 431 58 l 523 15 q 357 -13 437 -13 q 189 25 255 -13 q 90 149 123 64 q 56 376 56 235 q 124 670 56 578 q 313 763 192 763 q 494 672 431 763 q 557 376 557 581 l 557 347 m 313 699 q 188 634 233 699 q 140 409 142 569 l 476 409 q 455 583 475 519 q 399 673 435 647 q 313 699 364 699 m 190 930 q 148 945 165 930 q 132 987 132 960 q 148 1030 132 1013 q 190 1046 165 1046 q 232 1030 216 1046 q 248 987 248 1013 q 232 945 248 960 q 190 930 216 930 m 430 930 q 388 945 403 930 q 372 987 372 960 q 388 1030 372 1013 q 430 1046 403 1046 q 472 1030 456 1046 q 488 987 488 1013 q 472 945 488 960 q 430 930 456 930 z "},"ė":{"ha":605,"x_min":56,"x_max":557,"o":"m 557 347 l 140 347 q 167 175 142 238 q 240 85 192 113 q 365 58 288 58 q 523 86 431 58 l 523 15 q 357 -13 437 -13 q 189 25 255 -13 q 90 149 123 64 q 56 376 56 235 q 124 670 56 578 q 313 763 192 763 q 494 672 431 763 q 557 376 557 581 l 557 347 m 313 699 q 188 634 233 699 q 140 409 142 569 l 476 409 q 455 583 475 519 q 399 673 435 647 q 313 699 364 699 m 310 928 q 265 944 281 928 q 249 987 249 960 q 265 1030 249 1014 q 310 1047 281 1047 q 355 1030 338 1047 q 371 987 371 1014 q 355 944 371 960 q 310 928 338 928 z "},"ẹ":{"ha":605,"x_min":56,"x_max":557,"o":"m 557 347 l 140 347 q 167 175 142 238 q 240 85 192 113 q 365 58 288 58 q 523 86 431 58 l 523 15 q 357 -13 437 -13 q 189 25 255 -13 q 90 149 123 64 q 56 376 56 235 q 124 670 56 578 q 313 763 192 763 q 494 672 431 763 q 557 376 557 581 l 557 347 m 313 699 q 188 634 233 699 q 140 409 142 569 l 476 409 q 455 583 475 519 q 399 673 435 647 q 313 699 364 699 m 310 -235 q 268 -220 284 -235 q 252 -178 252 -204 q 268 -135 252 -151 q 310 -119 284 -119 q 352 -135 335 -119 q 368 -178 368 -151 q 352 -220 368 -204 q 310 -235 335 -235 z "},"è":{"ha":605,"x_min":56,"x_max":557,"o":"m 557 347 l 140 347 q 167 175 142 238 q 240 85 192 113 q 365 58 288 58 q 523 86 431 58 l 523 15 q 357 -13 437 -13 q 189 25 255 -13 q 90 149 123 64 q 56 376 56 235 q 124 670 56 578 q 313 763 192 763 q 494 672 431 763 q 557 376 557 581 l 557 347 m 313 699 q 188 634 233 699 q 140 409 142 569 l 476 409 q 455 583 475 519 q 399 673 435 647 q 313 699 364 699 m 276 873 l 152 1122 l 235 1122 l 344 873 l 276 873 z "},"ẻ":{"ha":605,"x_min":56,"x_max":557,"o":"m 557 347 l 140 347 q 167 175 142 238 q 240 85 192 113 q 365 58 288 58 q 523 86 431 58 l 523 15 q 357 -13 437 -13 q 189 25 255 -13 q 90 149 123 64 q 56 376 56 235 q 124 670 56 578 q 313 763 192 763 q 494 672 431 763 q 557 376 557 581 l 557 347 m 313 699 q 188 634 233 699 q 140 409 142 569 l 476 409 q 455 583 475 519 q 399 673 435 647 q 313 699 364 699 m 281 873 q 297 932 282 910 q 341 977 313 954 q 370 1006 361 994 q 379 1033 379 1017 q 362 1070 379 1058 q 306 1082 345 1082 q 255 1078 281 1082 q 208 1065 228 1074 l 208 1114 q 256 1126 228 1122 q 308 1131 283 1131 q 405 1106 373 1131 q 436 1037 436 1082 q 429 999 436 1015 q 412 973 422 983 q 385 949 402 963 q 350 914 361 929 q 338 873 338 898 l 281 873 z "},"ȇ":{"ha":605,"x_min":56,"x_max":557,"o":"m 557 347 l 140 347 q 167 175 142 238 q 240 85 192 113 q 365 58 288 58 q 523 86 431 58 l 523 15 q 357 -13 437 -13 q 189 25 255 -13 q 90 149 123 64 q 56 376 56 235 q 124 670 56 578 q 313 763 192 763 q 494 672 431 763 q 557 376 557 581 l 557 347 m 313 699 q 188 634 233 699 q 140 409 142 569 l 476 409 q 455 583 475 519 q 399 673 435 647 q 313 699 364 699 m 142 892 q 189 1060 145 1006 q 308 1115 232 1115 q 429 1060 384 1115 q 478 892 474 1005 l 421 892 q 388 1021 416 981 q 308 1060 360 1060 q 230 1021 257 1060 q 199 892 202 981 l 142 892 z "},"ē":{"ha":605,"x_min":56,"x_max":557,"o":"m 557 347 l 140 347 q 167 175 142 238 q 240 85 192 113 q 365 58 288 58 q 523 86 431 58 l 523 15 q 357 -13 437 -13 q 189 25 255 -13 q 90 149 123 64 q 56 376 56 235 q 124 670 56 578 q 313 763 192 763 q 494 672 431 763 q 557 376 557 581 l 557 347 m 313 699 q 188 634 233 699 q 140 409 142 569 l 476 409 q 455 583 475 519 q 399 673 435 647 q 313 699 364 699 m 125 958 l 125 1018 l 494 1018 l 494 958 l 125 958 z "},"ḗ":{"ha":605,"x_min":56,"x_max":557,"o":"m 557 347 l 140 347 q 167 175 142 238 q 240 85 192 113 q 365 58 288 58 q 523 86 431 58 l 523 15 q 357 -13 437 -13 q 189 25 255 -13 q 90 149 123 64 q 56 376 56 235 q 124 670 56 578 q 313 763 192 763 q 494 672 431 763 q 557 376 557 581 l 557 347 m 313 699 q 188 634 233 699 q 140 409 142 569 l 476 409 q 455 583 475 519 q 399 673 435 647 q 313 699 364 699 m 125 958 l 125 1018 l 494 1018 l 494 958 l 125 958 m 275 1150 l 368 1344 l 452 1344 l 344 1150 l 275 1150 z "},"ḕ":{"ha":605,"x_min":56,"x_max":557,"o":"m 557 347 l 140 347 q 167 175 142 238 q 240 85 192 113 q 365 58 288 58 q 523 86 431 58 l 523 15 q 357 -13 437 -13 q 189 25 255 -13 q 90 149 123 64 q 56 376 56 235 q 124 670 56 578 q 313 763 192 763 q 494 672 431 763 q 557 376 557 581 l 557 347 m 313 699 q 188 634 233 699 q 140 409 142 569 l 476 409 q 455 583 475 519 q 399 673 435 647 q 313 699 364 699 m 125 958 l 125 1018 l 494 1018 l 494 958 l 125 958 m 275 1150 l 167 1344 l 252 1344 l 344 1150 l 275 1150 z "},"ę":{"ha":605,"x_min":56,"x_max":557,"o":"m 557 347 l 140 347 q 167 175 142 238 q 240 85 192 113 q 365 58 288 58 q 523 86 431 58 l 523 15 q 386 -64 424 -21 q 349 -157 349 -108 q 371 -217 349 -196 q 431 -237 392 -237 q 523 -208 478 -237 l 523 -258 q 478 -277 503 -270 q 427 -284 453 -284 q 329 -252 364 -284 q 294 -162 294 -219 q 378 -12 294 -70 q 357 -13 372 -13 q 189 25 255 -13 q 90 149 123 64 q 56 376 56 235 q 124 670 56 578 q 313 763 192 763 q 494 672 431 763 q 557 376 557 581 l 557 347 m 313 697 q 188 633 233 697 q 140 408 142 568 l 476 408 q 455 582 475 518 q 399 671 435 645 q 313 697 364 697 z "},"ẽ":{"ha":605,"x_min":56,"x_max":557,"o":"m 557 347 l 140 347 q 167 175 142 238 q 240 85 192 113 q 365 58 288 58 q 523 86 431 58 l 523 15 q 357 -13 437 -13 q 189 25 255 -13 q 90 149 123 64 q 56 376 56 235 q 124 670 56 578 q 313 763 192 763 q 494 672 431 763 q 557 376 557 581 l 557 347 m 313 699 q 188 634 233 699 q 140 409 142 569 l 476 409 q 455 583 475 519 q 399 673 435 647 q 313 699 364 699 m 396 944 q 352 952 373 944 q 300 975 332 960 q 257 994 274 988 q 224 1001 240 1001 q 171 988 194 1001 q 125 949 147 975 l 125 1014 q 224 1059 163 1059 q 268 1051 247 1059 q 319 1028 289 1044 q 363 1009 345 1016 q 397 1003 380 1003 q 449 1016 426 1003 q 494 1055 473 1028 l 494 990 q 452 956 477 968 q 396 944 426 944 z "},"ə":{"ha":605,"x_min":48,"x_max":549,"o":"m 248 765 q 416 727 350 765 q 515 603 482 688 q 549 376 549 517 q 481 82 549 174 q 292 -11 413 -11 q 111 80 174 -11 q 48 376 48 172 l 48 406 l 465 406 q 438 577 463 514 q 365 667 413 640 q 240 694 317 694 q 82 666 174 694 l 82 738 q 248 765 168 765 m 292 53 q 417 118 372 53 q 465 343 463 183 l 128 343 q 150 169 130 233 q 206 80 170 106 q 292 53 241 53 z "},"f":{"ha":409,"x_min":6,"x_max":444,"o":"m 362 1065 q 253 1030 289 1065 q 218 919 218 995 l 218 752 l 419 752 l 419 683 l 218 683 l 218 0 l 138 0 l 138 683 l 6 683 l 6 752 l 138 752 l 138 917 q 194 1081 138 1025 q 358 1136 249 1136 q 444 1129 408 1136 l 444 1057 q 362 1065 399 1065 z "},"g":{"ha":655,"x_min":56,"x_max":562,"o":"m 277 -319 q 185 -312 233 -319 q 100 -290 137 -304 l 100 -218 q 274 -249 188 -249 q 390 -227 344 -249 q 458 -155 435 -205 q 481 -20 481 -104 l 481 72 l 476 72 q 405 12 449 35 q 303 -12 360 -12 q 125 75 194 -12 q 56 361 56 163 q 385 763 56 763 q 478 755 428 763 q 562 735 527 747 l 562 -10 q 491 -247 562 -174 q 277 -319 421 -319 m 324 60 q 414 85 371 60 q 481 154 458 110 l 481 682 q 381 694 426 694 q 200 618 261 694 q 140 369 140 542 q 163 181 140 249 q 227 86 187 113 q 324 60 267 60 z "},"ǵ":{"ha":655,"x_min":56,"x_max":562,"o":"m 277 -319 q 185 -312 233 -319 q 100 -290 137 -304 l 100 -218 q 274 -249 188 -249 q 390 -227 344 -249 q 458 -155 435 -205 q 481 -20 481 -104 l 481 72 l 476 72 q 405 12 449 35 q 303 -12 360 -12 q 125 75 194 -12 q 56 361 56 163 q 385 763 56 763 q 478 755 428 763 q 562 735 527 747 l 562 -10 q 491 -247 562 -174 q 277 -319 421 -319 m 324 60 q 414 85 371 60 q 481 154 458 110 l 481 682 q 381 694 426 694 q 200 618 261 694 q 140 369 140 542 q 163 181 140 249 q 227 86 187 113 q 324 60 267 60 m 306 873 l 415 1122 l 499 1122 l 374 873 l 306 873 z "},"ğ":{"ha":655,"x_min":56,"x_max":562,"o":"m 277 -319 q 185 -312 233 -319 q 100 -290 137 -304 l 100 -218 q 274 -249 188 -249 q 390 -227 344 -249 q 458 -155 435 -205 q 481 -20 481 -104 l 481 72 l 476 72 q 405 12 449 35 q 303 -12 360 -12 q 125 75 194 -12 q 56 361 56 163 q 385 763 56 763 q 478 755 428 763 q 562 735 527 747 l 562 -10 q 491 -247 562 -174 q 277 -319 421 -319 m 324 60 q 414 85 371 60 q 481 154 458 110 l 481 682 q 381 694 426 694 q 200 618 261 694 q 140 369 140 542 q 163 181 140 249 q 227 86 187 113 q 324 60 267 60 m 342 881 q 221 937 266 881 q 172 1103 176 992 l 230 1103 q 263 975 235 1015 q 342 935 290 935 q 421 975 393 935 q 451 1103 449 1015 l 508 1103 q 461 937 505 992 q 342 881 417 881 z "},"ǧ":{"ha":655,"x_min":56,"x_max":562,"o":"m 277 -319 q 185 -312 233 -319 q 100 -290 137 -304 l 100 -218 q 274 -249 188 -249 q 390 -227 344 -249 q 458 -155 435 -205 q 481 -20 481 -104 l 481 72 l 476 72 q 405 12 449 35 q 303 -12 360 -12 q 125 75 194 -12 q 56 361 56 163 q 385 763 56 763 q 478 755 428 763 q 562 735 527 747 l 562 -10 q 491 -247 562 -174 q 277 -319 421 -319 m 324 60 q 414 85 371 60 q 481 154 458 110 l 481 682 q 381 694 426 694 q 200 618 261 694 q 140 369 140 542 q 163 181 140 249 q 227 86 187 113 q 324 60 267 60 m 439 1122 l 503 1122 l 380 873 l 301 873 l 177 1122 l 242 1122 l 340 916 l 439 1122 z "},"ĝ":{"ha":655,"x_min":56,"x_max":562,"o":"m 277 -319 q 185 -312 233 -319 q 100 -290 137 -304 l 100 -218 q 274 -249 188 -249 q 390 -227 344 -249 q 458 -155 435 -205 q 481 -20 481 -104 l 481 72 l 476 72 q 405 12 449 35 q 303 -12 360 -12 q 125 75 194 -12 q 56 361 56 163 q 385 763 56 763 q 478 755 428 763 q 562 735 527 747 l 562 -10 q 491 -247 562 -174 q 277 -319 421 -319 m 324 60 q 414 85 371 60 q 481 154 458 110 l 481 682 q 381 694 426 694 q 200 618 261 694 q 140 369 140 542 q 163 181 140 249 q 227 86 187 113 q 324 60 267 60 m 503 873 l 439 873 l 340 1079 l 242 873 l 177 873 l 301 1122 l 380 1122 l 503 873 z "},"ģ":{"ha":655,"x_min":56,"x_max":562,"o":"m 277 -319 q 185 -312 233 -319 q 100 -290 137 -304 l 100 -218 q 274 -249 188 -249 q 390 -227 344 -249 q 458 -155 435 -205 q 481 -20 481 -104 l 481 72 l 476 72 q 405 12 449 35 q 303 -12 360 -12 q 125 75 194 -12 q 56 361 56 163 q 385 763 56 763 q 478 755 428 763 q 562 735 527 747 l 562 -10 q 491 -247 562 -174 q 277 -319 421 -319 m 324 60 q 414 85 371 60 q 481 154 458 110 l 481 682 q 381 694 426 694 q 200 618 261 694 q 140 369 140 542 q 163 181 140 249 q 227 86 187 113 q 324 60 267 60 m 343 1031 q 384 1016 369 1031 q 399 979 399 1002 q 384 943 399 956 q 343 929 369 929 q 298 947 313 929 q 282 998 282 964 q 291 1061 282 1026 q 317 1128 301 1097 l 369 1128 q 343 1031 347 1074 z "},"ġ":{"ha":655,"x_min":56,"x_max":562,"o":"m 277 -319 q 185 -312 233 -319 q 100 -290 137 -304 l 100 -218 q 274 -249 188 -249 q 390 -227 344 -249 q 458 -155 435 -205 q 481 -20 481 -104 l 481 72 l 476 72 q 405 12 449 35 q 303 -12 360 -12 q 125 75 194 -12 q 56 361 56 163 q 385 763 56 763 q 478 755 428 763 q 562 735 527 747 l 562 -10 q 491 -247 562 -174 q 277 -319 421 -319 m 324 60 q 414 85 371 60 q 481 154 458 110 l 481 682 q 381 694 426 694 q 200 618 261 694 q 140 369 140 542 q 163 181 140 249 q 227 86 187 113 q 324 60 267 60 m 340 928 q 295 944 312 928 q 279 987 279 960 q 295 1030 279 1014 q 340 1047 312 1047 q 385 1030 369 1047 q 401 987 401 1014 q 385 944 401 960 q 340 928 369 928 z "},"ḡ":{"ha":655,"x_min":56,"x_max":562,"o":"m 277 -319 q 185 -312 233 -319 q 100 -290 137 -304 l 100 -218 q 274 -249 188 -249 q 390 -227 344 -249 q 458 -155 435 -205 q 481 -20 481 -104 l 481 72 l 476 72 q 405 12 449 35 q 303 -12 360 -12 q 125 75 194 -12 q 56 361 56 163 q 385 763 56 763 q 478 755 428 763 q 562 735 527 747 l 562 -10 q 491 -247 562 -174 q 277 -319 421 -319 m 324 60 q 414 85 371 60 q 481 154 458 110 l 481 682 q 381 694 426 694 q 200 618 261 694 q 140 369 140 542 q 163 181 140 249 q 227 86 187 113 q 324 60 267 60 m 156 958 l 156 1018 l 525 1018 l 525 958 l 156 958 z "},"h":{"ha":663,"x_min":93,"x_max":576,"o":"m 93 1122 l 174 1122 l 174 667 l 179 667 q 269 739 217 715 q 379 763 320 763 q 576 528 576 763 l 576 0 l 496 0 l 496 527 q 460 651 496 614 q 360 688 425 688 q 257 661 308 688 q 174 578 205 635 l 174 0 l 93 0 l 93 1122 z "},"ħ":{"ha":663,"x_min":3,"x_max":576,"o":"m 379 763 q 576 528 576 763 l 576 0 l 496 0 l 496 527 q 460 651 496 614 q 360 688 425 688 q 257 661 308 688 q 174 578 205 635 l 174 0 l 93 0 l 93 910 l 3 910 l 3 972 l 93 972 l 93 1122 l 174 1122 l 174 972 l 374 972 l 374 910 l 174 910 l 174 667 l 179 667 q 269 739 217 715 q 379 763 320 763 z "},"ḫ":{"ha":663,"x_min":93,"x_max":576,"o":"m 93 1122 l 174 1122 l 174 667 l 179 667 q 269 739 217 715 q 379 763 320 763 q 576 528 576 763 l 576 0 l 496 0 l 496 527 q 460 651 496 614 q 360 688 425 688 q 257 661 308 688 q 174 578 205 635 l 174 0 l 93 0 l 93 1122 m 336 -286 q 214 -240 260 -286 q 167 -109 168 -193 l 224 -109 q 256 -201 227 -171 q 336 -232 285 -232 q 416 -201 388 -232 q 446 -109 444 -171 l 503 -109 q 457 -240 501 -194 q 336 -286 412 -286 z "},"ĥ":{"ha":663,"x_min":93,"x_max":576,"o":"m 93 1122 l 174 1122 l 174 667 l 179 667 q 269 739 217 715 q 379 763 320 763 q 576 528 576 763 l 576 0 l 496 0 l 496 527 q 460 651 496 614 q 360 688 425 688 q 257 661 308 688 q 174 578 205 635 l 174 0 l 93 0 l 93 1122 m 510 1185 l 442 1185 l 335 1341 l 228 1185 l 160 1185 l 295 1379 l 374 1379 l 510 1185 z "},"ḥ":{"ha":663,"x_min":93,"x_max":576,"o":"m 93 1122 l 174 1122 l 174 667 l 179 667 q 269 739 217 715 q 379 763 320 763 q 576 528 576 763 l 576 0 l 496 0 l 496 527 q 460 651 496 614 q 360 688 425 688 q 257 661 308 688 q 174 578 205 635 l 174 0 l 93 0 l 93 1122 m 335 -235 q 293 -220 309 -235 q 277 -178 277 -204 q 293 -135 277 -151 q 335 -119 309 -119 q 377 -135 360 -119 q 393 -178 393 -151 q 377 -220 393 -204 q 335 -235 360 -235 z "},"i":{"ha":267,"x_min":72,"x_max":194,"o":"m 93 0 l 93 752 l 174 752 l 174 0 l 93 0 m 133 928 q 89 944 105 928 q 72 987 72 960 q 89 1030 72 1014 q 133 1047 105 1047 q 178 1030 162 1047 q 194 987 194 1014 q 178 944 194 960 q 133 928 162 928 z "},"ı":{"ha":267,"x_min":93,"x_max":174,"o":"m 93 0 l 93 752 l 174 752 l 174 0 l 93 0 z "},"í":{"ha":267,"x_min":93,"x_max":292,"o":"m 93 0 l 93 752 l 174 752 l 174 0 l 93 0 m 99 873 l 208 1122 l 292 1122 l 167 873 l 99 873 z "},"ĭ":{"ha":267,"x_min":-35,"x_max":301,"o":"m 93 0 l 93 752 l 174 752 l 174 0 l 93 0 m 135 881 q 14 937 59 881 q -35 1103 -31 992 l 23 1103 q 56 975 28 1015 q 135 935 83 935 q 214 975 186 935 q 244 1103 242 1015 l 301 1103 q 254 937 298 992 q 135 881 210 881 z "},"î":{"ha":267,"x_min":-30,"x_max":297,"o":"m 93 0 l 93 752 l 174 752 l 174 0 l 93 0 m 297 873 l 232 873 l 133 1079 l 35 873 l -30 873 l 94 1122 l 173 1122 l 297 873 z "},"ȉ":{"ha":267,"x_min":-69,"x_max":263,"o":"m 93 0 l 93 752 l 174 752 l 174 0 l 93 0 m 4 873 l -69 1122 l 3 1122 l 67 873 l 4 873 m 199 873 l 126 1122 l 198 1122 l 263 873 l 199 873 z "},"ï":{"ha":267,"x_min":-44,"x_max":311,"o":"m 93 0 l 93 752 l 174 752 l 174 0 l 93 0 m 14 930 q -28 945 -12 930 q -44 987 -44 960 q -28 1030 -44 1013 q 14 1046 -12 1046 q 56 1030 40 1046 q 72 987 72 1013 q 56 945 72 960 q 14 930 40 930 m 253 930 q 211 945 227 930 q 195 987 195 960 q 211 1030 195 1013 q 253 1046 227 1046 q 295 1030 279 1046 q 311 987 311 1013 q 295 945 311 960 q 253 930 279 930 z "},"ḯ":{"ha":267,"x_min":-44,"x_max":311,"o":"m 93 0 l 93 752 l 174 752 l 174 0 l 93 0 m 14 930 q -28 945 -12 930 q -44 987 -44 960 q -28 1030 -44 1013 q 14 1046 -12 1046 q 56 1030 40 1046 q 72 987 72 1013 q 56 945 72 960 q 14 930 40 930 m 253 930 q 211 945 227 930 q 195 987 195 960 q 211 1030 195 1013 q 253 1046 227 1046 q 295 1030 279 1046 q 311 987 311 1013 q 295 945 311 960 q 253 930 279 930 m 99 1150 l 192 1344 l 276 1344 l 168 1150 l 99 1150 z "},"ị":{"ha":267,"x_min":72,"x_max":194,"o":"m 93 0 l 93 752 l 174 752 l 174 0 l 93 0 m 133 928 q 89 944 105 928 q 72 987 72 960 q 89 1030 72 1014 q 133 1047 105 1047 q 178 1030 162 1047 q 194 987 194 1014 q 178 944 194 960 q 133 928 162 928 m 133 -235 q 92 -220 108 -235 q 76 -178 76 -204 q 92 -135 76 -151 q 133 -119 108 -119 q 175 -135 159 -119 q 192 -178 192 -151 q 175 -220 192 -204 q 133 -235 159 -235 z "},"ì":{"ha":267,"x_min":-24,"x_max":174,"o":"m 93 0 l 93 752 l 174 752 l 174 0 l 93 0 m 99 873 l -24 1122 l 58 1122 l 167 873 l 99 873 z "},"ỉ":{"ha":267,"x_min":31,"x_max":260,"o":"m 93 0 l 93 752 l 174 752 l 174 0 l 93 0 m 105 873 q 121 932 106 910 q 165 977 136 954 q 194 1006 185 994 q 203 1033 203 1017 q 186 1070 203 1058 q 129 1082 169 1082 q 78 1078 105 1082 q 31 1065 52 1074 l 31 1114 q 79 1126 52 1122 q 132 1131 106 1131 q 228 1106 197 1131 q 260 1037 260 1082 q 253 999 260 1015 q 236 973 246 983 q 208 949 226 963 q 173 914 185 929 q 161 873 162 898 l 105 873 z "},"ȋ":{"ha":267,"x_min":-35,"x_max":301,"o":"m 93 0 l 93 752 l 174 752 l 174 0 l 93 0 m -35 892 q 12 1060 -31 1006 q 132 1115 56 1115 q 253 1060 208 1115 q 301 892 298 1005 l 244 892 q 211 1021 240 981 q 132 1060 183 1060 q 53 1021 81 1060 q 23 892 26 981 l -35 892 z "},"ī":{"ha":267,"x_min":-51,"x_max":318,"o":"m 93 0 l 93 752 l 174 752 l 174 0 l 93 0 m -51 958 l -51 1018 l 318 1018 l 318 958 l -51 958 z "},"į":{"ha":267,"x_min":2,"x_max":231,"o":"m 133 928 q 89 944 105 928 q 72 987 72 960 q 89 1030 72 1014 q 133 1047 105 1047 q 178 1030 162 1047 q 194 987 194 1014 q 178 944 194 960 q 133 928 162 928 m 140 -237 q 231 -208 187 -237 l 231 -258 q 186 -277 211 -270 q 135 -284 161 -284 q 37 -252 72 -284 q 2 -162 2 -219 q 24 -77 2 -117 q 94 0 46 -38 l 93 0 l 93 752 l 174 752 l 174 0 q 84 -77 111 -40 q 58 -157 58 -115 q 79 -217 58 -196 q 140 -237 101 -237 z "},"ĩ":{"ha":267,"x_min":-51,"x_max":318,"o":"m 93 0 l 93 752 l 174 752 l 174 0 l 93 0 m 219 944 q 176 952 197 944 q 124 975 156 960 q 81 994 98 988 q 47 1001 64 1001 q -6 988 18 1001 q -51 949 -29 975 l -51 1014 q 47 1059 -14 1059 q 92 1051 71 1059 q 143 1028 113 1044 q 186 1009 169 1016 q 220 1003 203 1003 q 273 1016 249 1003 q 318 1055 297 1028 l 318 990 q 275 956 301 968 q 219 944 250 944 z "},"j":{"ha":267,"x_min":-22,"x_max":194,"o":"m -22 -283 q 67 -97 41 -185 q 93 117 93 -8 l 93 752 l 174 752 l 174 124 q 159 -42 174 31 q 115 -181 145 -115 q 35 -321 85 -247 l -22 -283 m 133 928 q 89 944 105 928 q 72 987 72 960 q 89 1030 72 1014 q 133 1047 105 1047 q 178 1030 162 1047 q 194 987 194 1014 q 178 944 194 960 q 133 928 162 928 z "},"ȷ":{"ha":267,"x_min":-22,"x_max":174,"o":"m -22 -283 q 67 -97 41 -185 q 93 117 93 -8 l 93 752 l 174 752 l 174 124 q 159 -42 174 31 q 115 -181 145 -115 q 35 -321 85 -247 l -22 -283 z "},"ĵ":{"ha":267,"x_min":-30,"x_max":297,"o":"m -22 -283 q 67 -97 41 -185 q 93 117 93 -8 l 93 752 l 174 752 l 174 124 q 159 -42 174 31 q 115 -181 145 -115 q 35 -321 85 -247 l -22 -283 m 297 873 l 232 873 l 133 1079 l 35 873 l -30 873 l 94 1122 l 173 1122 l 297 873 z "},"k":{"ha":605,"x_min":93,"x_max":624,"o":"m 531 0 l 281 350 l 174 350 l 174 0 l 93 0 l 93 1122 l 174 1122 l 174 419 l 281 419 l 510 752 l 601 752 l 349 386 l 624 0 l 531 0 z "},"ķ":{"ha":605,"x_min":93,"x_max":624,"o":"m 531 0 l 281 350 l 174 350 l 174 0 l 93 0 l 93 1122 l 174 1122 l 174 419 l 281 419 l 510 752 l 601 752 l 349 386 l 624 0 l 531 0 m 332 -119 q 377 -137 361 -119 q 392 -188 392 -154 q 383 -252 392 -217 q 358 -318 374 -287 l 306 -318 q 332 -222 328 -264 q 291 -207 306 -221 q 276 -169 276 -192 q 291 -133 276 -147 q 332 -119 306 -119 z "},"ĸ":{"ha":605,"x_min":93,"x_max":624,"o":"m 531 0 l 281 350 l 174 350 l 174 0 l 93 0 l 93 752 l 174 752 l 174 419 l 281 419 l 510 752 l 601 752 l 349 386 l 624 0 l 531 0 z "},"l":{"ha":267,"x_min":93,"x_max":174,"o":"m 93 0 l 93 1122 l 174 1122 l 174 0 l 93 0 z "},"ĺ":{"ha":267,"x_min":93,"x_max":276,"o":"m 93 0 l 93 1122 l 174 1122 l 174 0 l 93 0 m 99 1185 l 192 1379 l 276 1379 l 168 1185 l 99 1185 z "},"ľ":{"ha":267,"x_min":93,"x_max":306,"o":"m 93 0 l 93 1122 l 174 1122 l 174 0 l 93 0 m 227 819 q 241 1122 241 935 l 306 1122 q 299 966 306 1044 q 276 819 292 887 l 227 819 z "},"ļ":{"ha":267,"x_min":75,"x_max":192,"o":"m 93 0 l 93 1122 l 174 1122 l 174 0 l 93 0 m 131 -119 q 176 -137 160 -119 q 192 -188 192 -154 q 182 -252 192 -217 q 157 -318 173 -287 l 105 -318 q 131 -222 128 -264 q 90 -207 106 -221 q 75 -169 75 -192 q 90 -133 75 -147 q 131 -119 105 -119 z "},"ŀ":{"ha":311,"x_min":93,"x_max":347,"o":"m 93 0 l 93 1122 l 174 1122 l 174 0 l 93 0 m 285 492 q 241 507 257 492 q 224 550 224 523 q 241 593 224 577 q 285 610 257 610 q 330 593 314 610 q 347 550 347 577 q 330 507 347 523 q 285 492 314 492 z "},"ḷ":{"ha":267,"x_min":76,"x_max":192,"o":"m 93 0 l 93 1122 l 174 1122 l 174 0 l 93 0 m 133 -235 q 92 -220 108 -235 q 76 -178 76 -204 q 92 -135 76 -151 q 133 -119 108 -119 q 175 -135 159 -119 q 192 -178 192 -151 q 175 -220 192 -204 q 133 -235 159 -235 z "},"ǉ":{"ha":533,"x_min":93,"x_max":461,"o":"m 93 0 l 93 1122 l 174 1122 l 174 0 l 93 0 m 245 -283 q 334 -97 308 -185 q 360 117 360 -8 l 360 752 l 440 752 l 440 124 q 426 -42 440 31 q 382 -181 412 -115 q 301 -321 352 -247 l 245 -283 m 400 928 q 355 944 372 928 q 339 987 339 960 q 355 1030 339 1014 q 400 1047 372 1047 q 445 1030 428 1047 q 461 987 461 1014 q 445 944 461 960 q 400 928 428 928 z "},"ḻ":{"ha":267,"x_min":-33,"x_max":301,"o":"m 93 0 l 93 1122 l 174 1122 l 174 0 l 93 0 m -33 -207 l -33 -147 l 301 -147 l 301 -207 l -33 -207 z "},"ł":{"ha":277,"x_min":-1,"x_max":278,"o":"m 278 578 l 179 492 l 179 0 l 99 0 l 99 423 l 34 367 l -1 414 l 99 499 l 99 1122 l 179 1122 l 179 569 l 244 624 l 278 578 z "},"m":{"ha":1026,"x_min":93,"x_max":939,"o":"m 745 763 q 886 708 833 763 q 939 528 939 653 l 939 0 l 858 0 l 858 526 q 728 689 858 689 q 634 663 682 689 q 555 578 586 637 q 557 531 557 556 l 557 0 l 477 0 l 477 526 q 443 651 477 614 q 349 689 410 689 q 253 661 303 689 q 174 575 204 634 l 174 0 l 93 0 l 93 752 l 162 752 l 169 666 l 175 666 q 264 739 214 715 q 370 763 313 763 q 538 655 497 763 q 635 738 581 712 q 745 763 689 763 z "},"ṃ":{"ha":1026,"x_min":93,"x_max":939,"o":"m 745 763 q 886 708 833 763 q 939 528 939 653 l 939 0 l 858 0 l 858 526 q 728 689 858 689 q 634 663 682 689 q 555 578 586 637 q 557 531 557 556 l 557 0 l 477 0 l 477 526 q 443 651 477 614 q 349 689 410 689 q 253 661 303 689 q 174 575 204 634 l 174 0 l 93 0 l 93 752 l 162 752 l 169 666 l 175 666 q 264 739 214 715 q 370 763 313 763 q 538 655 497 763 q 635 738 581 712 q 745 763 689 763 m 517 -235 q 476 -220 492 -235 q 460 -178 460 -204 q 476 -135 460 -151 q 517 -119 492 -119 q 559 -135 543 -119 q 576 -178 576 -151 q 559 -220 576 -204 q 517 -235 543 -235 z "},"n":{"ha":663,"x_min":93,"x_max":576,"o":"m 93 752 l 162 752 l 169 667 l 175 667 q 265 738 213 713 q 377 763 317 763 q 576 532 576 763 l 576 0 l 496 0 l 496 528 q 460 652 496 615 q 360 689 425 689 q 257 662 309 689 q 174 578 205 635 l 174 0 l 93 0 l 93 752 z "},"ń":{"ha":663,"x_min":93,"x_max":576,"o":"m 93 752 l 162 752 l 169 667 l 175 667 q 265 738 213 713 q 377 763 317 763 q 576 532 576 763 l 576 0 l 496 0 l 496 528 q 460 652 496 615 q 360 689 425 689 q 257 662 309 689 q 174 578 205 635 l 174 0 l 93 0 l 93 752 m 301 873 l 410 1122 l 493 1122 l 369 873 l 301 873 z "},"ŉ":{"ha":663,"x_min":7,"x_max":576,"o":"m 93 752 l 162 752 l 169 667 l 175 667 q 265 738 213 713 q 377 763 317 763 q 576 532 576 763 l 576 0 l 496 0 l 496 528 q 460 652 496 615 q 360 689 425 689 q 257 662 309 689 q 174 578 205 635 l 174 0 l 93 0 l 93 752 m 63 1128 q 108 1110 92 1128 q 124 1059 124 1093 q 114 995 124 1031 q 89 929 105 960 l 37 929 q 63 1026 60 983 q 22 1040 38 1026 q 7 1077 7 1054 q 22 1114 7 1100 q 63 1128 37 1128 z "},"ň":{"ha":663,"x_min":93,"x_max":576,"o":"m 93 752 l 162 752 l 169 667 l 175 667 q 265 738 213 713 q 377 763 317 763 q 576 532 576 763 l 576 0 l 496 0 l 496 528 q 460 652 496 615 q 360 689 425 689 q 257 662 309 689 q 174 578 205 635 l 174 0 l 93 0 l 93 752 m 433 1122 l 498 1122 l 374 873 l 295 873 l 172 1122 l 236 1122 l 335 916 l 433 1122 z "},"ņ":{"ha":663,"x_min":93,"x_max":576,"o":"m 93 752 l 162 752 l 169 667 l 175 667 q 265 738 213 713 q 377 763 317 763 q 576 532 576 763 l 576 0 l 496 0 l 496 528 q 460 652 496 615 q 360 689 425 689 q 257 662 309 689 q 174 578 205 635 l 174 0 l 93 0 l 93 752 m 333 -119 q 377 -137 362 -119 q 393 -188 393 -154 q 384 -252 393 -217 q 358 -318 374 -287 l 306 -318 q 333 -222 329 -264 q 292 -207 307 -221 q 276 -169 276 -192 q 291 -133 276 -147 q 333 -119 306 -119 z "},"ṅ":{"ha":663,"x_min":93,"x_max":576,"o":"m 93 752 l 162 752 l 169 667 l 175 667 q 265 738 213 713 q 377 763 317 763 q 576 532 576 763 l 576 0 l 496 0 l 496 528 q 460 652 496 615 q 360 689 425 689 q 257 662 309 689 q 174 578 205 635 l 174 0 l 93 0 l 93 752 m 335 928 q 290 944 306 928 q 274 987 274 960 q 290 1030 274 1014 q 335 1047 306 1047 q 380 1030 363 1047 q 396 987 396 1014 q 380 944 396 960 q 335 928 363 928 z "},"ṇ":{"ha":663,"x_min":93,"x_max":576,"o":"m 93 752 l 162 752 l 169 667 l 175 667 q 265 738 213 713 q 377 763 317 763 q 576 532 576 763 l 576 0 l 496 0 l 496 528 q 460 652 496 615 q 360 689 425 689 q 257 662 309 689 q 174 578 205 635 l 174 0 l 93 0 l 93 752 m 335 -235 q 293 -220 309 -235 q 277 -178 277 -204 q 293 -135 277 -151 q 335 -119 309 -119 q 377 -135 360 -119 q 393 -178 393 -151 q 377 -220 393 -204 q 335 -235 360 -235 z "},"ŋ":{"ha":663,"x_min":93,"x_max":576,"o":"m 381 -283 q 470 -97 444 -185 q 496 117 496 -8 l 496 528 q 460 652 496 615 q 360 690 425 690 q 257 663 309 690 q 174 579 205 636 l 174 0 l 93 0 l 93 752 l 162 752 l 169 667 l 175 667 q 267 739 215 715 q 377 763 319 763 q 576 528 576 763 l 576 101 q 542 -118 573 -23 q 438 -321 510 -214 l 381 -283 z "},"ǌ":{"ha":930,"x_min":93,"x_max":858,"o":"m 93 752 l 162 752 l 169 667 l 175 667 q 265 738 213 713 q 377 763 317 763 q 576 532 576 763 l 576 0 l 496 0 l 496 528 q 460 652 496 615 q 360 689 425 689 q 257 662 309 689 q 174 578 205 635 l 174 0 l 93 0 l 93 752 m 642 -283 q 730 -97 704 -185 q 756 117 756 -8 l 756 752 l 837 752 l 837 124 q 823 -42 837 31 q 778 -181 808 -115 q 698 -321 749 -247 l 642 -283 m 797 928 q 752 944 768 928 q 735 987 735 960 q 752 1030 735 1014 q 797 1047 768 1047 q 841 1030 825 1047 q 858 987 858 1014 q 841 944 858 960 q 797 928 825 928 z "},"ṉ":{"ha":663,"x_min":93,"x_max":576,"o":"m 93 752 l 162 752 l 169 667 l 175 667 q 265 738 213 713 q 377 763 317 763 q 576 532 576 763 l 576 0 l 496 0 l 496 528 q 460 652 496 615 q 360 689 425 689 q 257 662 309 689 q 174 578 205 635 l 174 0 l 93 0 l 93 752 m 168 -207 l 168 -147 l 502 -147 l 502 -207 l 168 -207 z "},"ñ":{"ha":663,"x_min":93,"x_max":576,"o":"m 93 752 l 162 752 l 169 667 l 175 667 q 265 738 213 713 q 377 763 317 763 q 576 532 576 763 l 576 0 l 496 0 l 496 528 q 460 652 496 615 q 360 689 425 689 q 257 662 309 689 q 174 578 205 635 l 174 0 l 93 0 l 93 752 m 421 944 q 377 952 398 944 q 325 975 357 960 q 282 994 299 988 q 249 1001 265 1001 q 196 988 219 1001 q 150 949 172 975 l 150 1014 q 249 1059 188 1059 q 293 1051 272 1059 q 344 1028 314 1044 q 388 1009 370 1016 q 422 1003 405 1003 q 474 1016 451 1003 q 519 1055 498 1028 l 519 990 q 477 956 502 968 q 421 944 451 944 z "},"o":{"ha":650,"x_min":56,"x_max":594,"o":"m 325 -13 q 56 375 56 -13 q 126 671 56 578 q 325 763 195 763 q 594 376 594 763 q 524 80 594 172 q 325 -13 455 -13 m 325 56 q 425 84 385 56 q 488 183 466 113 q 510 373 510 253 q 488 566 510 495 q 425 666 465 637 q 325 694 385 694 q 225 666 265 694 q 162 567 184 637 q 140 378 140 497 q 162 185 140 256 q 225 85 184 114 q 325 56 265 56 z "},"ó":{"ha":650,"x_min":56,"x_max":594,"o":"m 325 -13 q 56 375 56 -13 q 126 671 56 578 q 325 763 195 763 q 594 376 594 763 q 524 80 594 172 q 325 -13 455 -13 m 325 56 q 425 84 385 56 q 488 183 466 113 q 510 373 510 253 q 488 566 510 495 q 425 666 465 637 q 325 694 385 694 q 225 666 265 694 q 162 567 184 637 q 140 378 140 497 q 162 185 140 256 q 225 85 184 114 q 325 56 265 56 m 291 873 l 400 1122 l 483 1122 l 359 873 l 291 873 z "},"ŏ":{"ha":650,"x_min":56,"x_max":594,"o":"m 325 -13 q 56 375 56 -13 q 126 671 56 578 q 325 763 195 763 q 594 376 594 763 q 524 80 594 172 q 325 -13 455 -13 m 325 56 q 425 84 385 56 q 488 183 466 113 q 510 373 510 253 q 488 566 510 495 q 425 666 465 637 q 325 694 385 694 q 225 666 265 694 q 162 567 184 637 q 140 378 140 497 q 162 185 140 256 q 225 85 184 114 q 325 56 265 56 m 326 881 q 206 937 251 881 q 157 1103 160 992 l 215 1103 q 247 975 219 1015 q 326 935 275 935 q 406 975 378 935 q 436 1103 433 1015 l 493 1103 q 445 937 490 992 q 326 881 401 881 z "},"ô":{"ha":650,"x_min":56,"x_max":594,"o":"m 325 -13 q 56 375 56 -13 q 126 671 56 578 q 325 763 195 763 q 594 376 594 763 q 524 80 594 172 q 325 -13 455 -13 m 325 56 q 425 84 385 56 q 488 183 466 113 q 510 373 510 253 q 488 566 510 495 q 425 666 465 637 q 325 694 385 694 q 225 666 265 694 q 162 567 184 637 q 140 378 140 497 q 162 185 140 256 q 225 85 184 114 q 325 56 265 56 m 488 873 l 424 873 l 325 1079 l 226 873 l 162 873 l 285 1122 l 365 1122 l 488 873 z "},"ố":{"ha":650,"x_min":56,"x_max":622,"o":"m 325 -13 q 56 375 56 -13 q 126 671 56 578 q 325 763 195 763 q 594 376 594 763 q 524 80 594 172 q 325 -13 455 -13 m 325 56 q 425 84 385 56 q 488 183 466 113 q 510 373 510 253 q 488 566 510 495 q 425 666 465 637 q 325 694 385 694 q 225 666 265 694 q 162 567 184 637 q 140 378 140 497 q 162 185 140 256 q 225 85 184 114 q 325 56 265 56 m 547 1297 l 622 1297 l 515 1108 l 454 1108 l 547 1297 m 285 1122 l 365 1122 l 488 873 l 424 873 l 325 1079 l 226 873 l 162 873 l 285 1122 z "},"ộ":{"ha":650,"x_min":56,"x_max":594,"o":"m 325 -13 q 56 375 56 -13 q 126 671 56 578 q 325 763 195 763 q 594 376 594 763 q 524 80 594 172 q 325 -13 455 -13 m 325 56 q 425 84 385 56 q 488 183 466 113 q 510 373 510 253 q 488 566 510 495 q 425 666 465 637 q 325 694 385 694 q 225 666 265 694 q 162 567 184 637 q 140 378 140 497 q 162 185 140 256 q 225 85 184 114 q 325 56 265 56 m 325 -235 q 283 -220 299 -235 q 267 -178 267 -204 q 283 -135 267 -151 q 325 -119 299 -119 q 367 -135 351 -119 q 383 -178 383 -151 q 367 -220 383 -204 q 325 -235 351 -235 m 488 873 l 424 873 l 325 1079 l 226 873 l 162 873 l 285 1122 l 365 1122 l 488 873 z "},"ồ":{"ha":650,"x_min":56,"x_max":594,"o":"m 325 -13 q 56 375 56 -13 q 126 671 56 578 q 325 763 195 763 q 594 376 594 763 q 524 80 594 172 q 325 -13 455 -13 m 325 56 q 425 84 385 56 q 488 183 466 113 q 510 373 510 253 q 488 566 510 495 q 425 666 465 637 q 325 694 385 694 q 225 666 265 694 q 162 567 184 637 q 140 378 140 497 q 162 185 140 256 q 225 85 184 114 q 325 56 265 56 m 519 1108 l 458 1108 l 351 1297 l 426 1297 l 519 1108 m 285 1122 l 365 1122 l 488 873 l 424 873 l 325 1079 l 226 873 l 162 873 l 285 1122 z "},"ổ":{"ha":650,"x_min":56,"x_max":602,"o":"m 325 -13 q 56 375 56 -13 q 126 671 56 578 q 325 763 195 763 q 594 376 594 763 q 524 80 594 172 q 325 -13 455 -13 m 325 56 q 425 84 385 56 q 488 183 466 113 q 510 373 510 253 q 488 566 510 495 q 425 666 465 637 q 325 694 385 694 q 225 666 265 694 q 162 567 184 637 q 140 378 140 497 q 162 185 140 256 q 225 85 184 114 q 325 56 265 56 m 473 1300 q 569 1280 536 1300 q 602 1226 602 1259 q 594 1194 602 1207 q 575 1174 586 1181 q 544 1156 564 1167 q 509 1135 521 1145 q 495 1108 497 1125 l 440 1108 q 450 1142 441 1128 q 471 1163 459 1155 q 503 1181 483 1171 q 535 1199 524 1190 q 545 1222 545 1208 q 528 1246 545 1238 q 469 1255 511 1255 q 346 1231 403 1255 l 346 1276 q 405 1294 370 1288 q 473 1300 440 1300 m 285 1122 l 365 1122 l 488 873 l 424 873 l 325 1079 l 226 873 l 162 873 l 285 1122 z "},"ỗ":{"ha":650,"x_min":56,"x_max":594,"o":"m 325 -13 q 56 375 56 -13 q 126 671 56 578 q 325 763 195 763 q 594 376 594 763 q 524 80 594 172 q 325 -13 455 -13 m 325 56 q 425 84 385 56 q 488 183 466 113 q 510 373 510 253 q 488 566 510 495 q 425 666 465 637 q 325 694 385 694 q 225 666 265 694 q 162 567 184 637 q 140 378 140 497 q 162 185 140 256 q 225 85 184 114 q 325 56 265 56 m 413 1210 q 466 1222 443 1210 q 512 1259 490 1234 l 512 1199 q 469 1167 494 1178 q 413 1156 444 1156 q 366 1163 389 1156 q 315 1185 344 1171 q 272 1203 290 1197 q 238 1209 255 1209 q 184 1197 208 1209 q 138 1159 160 1185 l 138 1219 q 238 1263 176 1263 q 284 1256 262 1263 q 335 1234 306 1248 q 378 1216 361 1222 q 413 1210 396 1210 m 285 1114 l 365 1114 l 488 874 l 424 874 l 325 1074 l 226 874 l 162 874 l 285 1114 z "},"ȍ":{"ha":650,"x_min":56,"x_max":594,"o":"m 325 -13 q 56 375 56 -13 q 126 671 56 578 q 325 763 195 763 q 594 376 594 763 q 524 80 594 172 q 325 -13 455 -13 m 325 56 q 425 84 385 56 q 488 183 466 113 q 510 373 510 253 q 488 566 510 495 q 425 666 465 637 q 325 694 385 694 q 225 666 265 694 q 162 567 184 637 q 140 378 140 497 q 162 185 140 256 q 225 85 184 114 q 325 56 265 56 m 196 873 l 123 1122 l 195 1122 l 259 873 l 196 873 m 391 873 l 318 1122 l 390 1122 l 454 873 l 391 873 z "},"ö":{"ha":650,"x_min":56,"x_max":594,"o":"m 325 -13 q 56 375 56 -13 q 126 671 56 578 q 325 763 195 763 q 594 376 594 763 q 524 80 594 172 q 325 -13 455 -13 m 325 56 q 425 84 385 56 q 488 183 466 113 q 510 373 510 253 q 488 566 510 495 q 425 666 465 637 q 325 694 385 694 q 225 666 265 694 q 162 567 184 637 q 140 378 140 497 q 162 185 140 256 q 225 85 184 114 q 325 56 265 56 m 206 930 q 164 945 180 930 q 147 987 147 960 q 164 1030 147 1013 q 206 1046 180 1046 q 247 1030 231 1046 q 263 987 263 1013 q 247 945 263 960 q 206 930 231 930 m 445 930 q 403 945 419 930 q 387 987 387 960 q 403 1030 387 1013 q 445 1046 419 1046 q 487 1030 471 1046 q 503 987 503 1013 q 487 945 503 960 q 445 930 471 930 z "},"ȫ":{"ha":650,"x_min":56,"x_max":594,"o":"m 325 -13 q 56 375 56 -13 q 126 671 56 578 q 325 763 195 763 q 594 376 594 763 q 524 80 594 172 q 325 -13 455 -13 m 325 56 q 425 84 385 56 q 488 183 466 113 q 510 373 510 253 q 488 566 510 495 q 425 666 465 637 q 325 694 385 694 q 225 666 265 694 q 162 567 184 637 q 140 378 140 497 q 162 185 140 256 q 225 85 184 114 q 325 56 265 56 m 206 930 q 164 945 180 930 q 147 987 147 960 q 164 1030 147 1013 q 206 1046 180 1046 q 247 1030 231 1046 q 263 987 263 1013 q 247 945 263 960 q 206 930 231 930 m 445 930 q 403 945 419 930 q 387 987 387 960 q 403 1030 387 1013 q 445 1046 419 1046 q 487 1030 471 1046 q 503 987 503 1013 q 487 945 503 960 q 445 930 471 930 m 140 1211 l 140 1272 l 510 1272 l 510 1211 l 140 1211 z "},"ȱ":{"ha":650,"x_min":56,"x_max":594,"o":"m 325 -13 q 56 375 56 -13 q 126 671 56 578 q 325 763 195 763 q 594 376 594 763 q 524 80 594 172 q 325 -13 455 -13 m 325 56 q 425 84 385 56 q 488 183 466 113 q 510 373 510 253 q 488 566 510 495 q 425 666 465 637 q 325 694 385 694 q 225 666 265 694 q 162 567 184 637 q 140 378 140 497 q 162 185 140 256 q 225 85 184 114 q 325 56 265 56 m 325 928 q 280 944 297 928 q 264 987 264 960 q 280 1030 264 1014 q 325 1047 297 1047 q 370 1030 353 1047 q 386 987 386 1014 q 370 944 386 960 q 325 928 353 928 m 140 1158 l 140 1218 l 510 1218 l 510 1158 l 140 1158 z "},"ọ":{"ha":650,"x_min":56,"x_max":594,"o":"m 325 -13 q 56 375 56 -13 q 126 671 56 578 q 325 763 195 763 q 594 376 594 763 q 524 80 594 172 q 325 -13 455 -13 m 325 56 q 425 84 385 56 q 488 183 466 113 q 510 373 510 253 q 488 566 510 495 q 425 666 465 637 q 325 694 385 694 q 225 666 265 694 q 162 567 184 637 q 140 378 140 497 q 162 185 140 256 q 225 85 184 114 q 325 56 265 56 m 325 -235 q 283 -220 299 -235 q 267 -178 267 -204 q 283 -135 267 -151 q 325 -119 299 -119 q 367 -135 351 -119 q 383 -178 383 -151 q 367 -220 383 -204 q 325 -235 351 -235 z "},"ò":{"ha":650,"x_min":56,"x_max":594,"o":"m 325 -13 q 56 375 56 -13 q 126 671 56 578 q 325 763 195 763 q 594 376 594 763 q 524 80 594 172 q 325 -13 455 -13 m 325 56 q 425 84 385 56 q 488 183 466 113 q 510 373 510 253 q 488 566 510 495 q 425 666 465 637 q 325 694 385 694 q 225 666 265 694 q 162 567 184 637 q 140 378 140 497 q 162 185 140 256 q 225 85 184 114 q 325 56 265 56 m 291 873 l 167 1122 l 250 1122 l 359 873 l 291 873 z "},"ỏ":{"ha":650,"x_min":56,"x_max":594,"o":"m 325 -13 q 56 375 56 -13 q 126 671 56 578 q 325 763 195 763 q 594 376 594 763 q 524 80 594 172 q 325 -13 455 -13 m 325 56 q 425 84 385 56 q 488 183 466 113 q 510 373 510 253 q 488 566 510 495 q 425 666 465 637 q 325 694 385 694 q 225 666 265 694 q 162 567 184 637 q 140 378 140 497 q 162 185 140 256 q 225 85 184 114 q 325 56 265 56 m 297 873 q 313 932 297 910 q 356 977 328 954 q 385 1006 376 994 q 394 1033 394 1017 q 377 1070 394 1058 q 321 1082 360 1082 q 270 1078 297 1082 q 223 1065 244 1074 l 223 1114 q 271 1126 244 1122 q 324 1131 298 1131 q 420 1106 388 1131 q 451 1037 451 1082 q 444 999 451 1015 q 427 973 438 983 q 400 949 417 963 q 365 914 376 929 q 353 873 353 898 l 297 873 z "},"ơ":{"ha":650,"x_min":56,"x_max":611,"o":"m 490 706 q 568 578 542 660 q 594 376 594 497 q 524 80 594 172 q 325 -13 455 -13 q 56 375 56 -13 q 126 671 56 578 q 325 763 195 763 q 386 761 330 763 q 426 759 409 759 q 514 786 481 759 q 547 872 547 814 q 543 920 547 897 q 531 969 539 942 l 595 969 q 607 921 603 944 q 611 868 611 898 q 578 760 611 801 q 490 706 546 719 m 325 56 q 425 84 385 56 q 488 183 466 113 q 510 373 510 253 q 488 566 510 495 q 425 666 465 637 q 325 694 385 694 q 225 666 265 694 q 162 567 184 637 q 140 378 140 497 q 162 185 140 256 q 225 85 184 114 q 325 56 265 56 z "},"ớ":{"ha":650,"x_min":56,"x_max":611,"o":"m 478 1122 l 356 873 l 290 873 l 397 1122 l 478 1122 m 490 706 q 568 578 542 660 q 594 376 594 497 q 524 80 594 172 q 325 -13 455 -13 q 56 375 56 -13 q 126 671 56 578 q 325 763 195 763 q 386 761 330 763 q 426 759 409 759 q 514 786 481 759 q 547 872 547 814 q 543 920 547 897 q 531 969 539 942 l 595 969 q 607 921 603 944 q 611 868 611 898 q 578 760 611 801 q 490 706 546 719 m 325 56 q 425 84 385 56 q 488 183 466 113 q 510 373 510 253 q 488 566 510 495 q 425 666 465 637 q 325 694 385 694 q 225 666 265 694 q 162 567 184 637 q 140 378 140 497 q 162 185 140 256 q 225 85 184 114 q 325 56 265 56 z "},"ợ":{"ha":650,"x_min":56,"x_max":611,"o":"m 490 706 q 568 578 542 660 q 594 376 594 497 q 524 80 594 172 q 325 -13 455 -13 q 56 375 56 -13 q 126 671 56 578 q 325 763 195 763 q 386 761 330 763 q 426 759 409 759 q 514 786 481 759 q 547 872 547 814 q 543 920 547 897 q 531 969 539 942 l 595 969 q 607 921 603 944 q 611 868 611 898 q 578 760 611 801 q 490 706 546 719 m 325 56 q 425 84 385 56 q 488 183 466 113 q 510 373 510 253 q 488 566 510 495 q 425 666 465 637 q 325 694 385 694 q 225 666 265 694 q 162 567 184 637 q 140 378 140 497 q 162 185 140 256 q 225 85 184 114 q 325 56 265 56 m 325 -235 q 283 -220 299 -235 q 267 -178 267 -204 q 283 -135 267 -151 q 325 -119 299 -119 q 367 -135 351 -119 q 383 -178 383 -151 q 367 -220 383 -204 q 325 -235 351 -235 z "},"ờ":{"ha":650,"x_min":56,"x_max":611,"o":"m 490 706 q 568 578 542 660 q 594 376 594 497 q 524 80 594 172 q 325 -13 455 -13 q 56 375 56 -13 q 126 671 56 578 q 325 763 195 763 q 386 761 330 763 q 426 759 409 759 q 514 786 481 759 q 547 872 547 814 q 543 920 547 897 q 531 969 539 942 l 595 969 q 607 921 603 944 q 611 868 611 898 q 578 760 611 801 q 490 706 546 719 m 325 56 q 425 84 385 56 q 488 183 466 113 q 510 373 510 253 q 488 566 510 495 q 425 666 465 637 q 325 694 385 694 q 225 666 265 694 q 162 567 184 637 q 140 378 140 497 q 162 185 140 256 q 225 85 184 114 q 325 56 265 56 m 289 873 l 165 1122 l 248 1122 l 357 873 l 289 873 z "},"ở":{"ha":650,"x_min":56,"x_max":611,"o":"m 490 706 q 568 578 542 660 q 594 376 594 497 q 524 80 594 172 q 325 -13 455 -13 q 56 375 56 -13 q 126 671 56 578 q 325 763 195 763 q 386 761 330 763 q 426 759 409 759 q 514 786 481 759 q 547 872 547 814 q 543 920 547 897 q 531 969 539 942 l 595 969 q 607 921 603 944 q 611 868 611 898 q 578 760 611 801 q 490 706 546 719 m 325 56 q 425 84 385 56 q 488 183 466 113 q 510 373 510 253 q 488 566 510 495 q 425 666 465 637 q 325 694 385 694 q 225 666 265 694 q 162 567 184 637 q 140 378 140 497 q 162 185 140 256 q 225 85 184 114 q 325 56 265 56 m 294 873 q 310 932 295 910 q 354 977 326 954 q 383 1006 374 994 q 392 1033 392 1017 q 375 1070 392 1058 q 319 1082 358 1082 q 268 1078 294 1082 q 221 1065 242 1074 l 221 1114 q 269 1126 242 1122 q 322 1131 296 1131 q 418 1106 386 1131 q 449 1037 449 1082 q 442 999 449 1015 q 425 973 435 983 q 398 949 415 963 q 363 914 374 929 q 351 873 351 898 l 294 873 z "},"ỡ":{"ha":650,"x_min":56,"x_max":611,"o":"m 234 1001 q 183 988 206 1001 q 138 949 160 975 l 138 1014 q 180 1047 156 1035 q 235 1059 205 1059 q 278 1051 258 1059 q 328 1028 299 1044 q 369 1009 353 1016 q 403 1003 386 1003 q 454 1016 431 1003 q 499 1055 477 1028 l 499 990 q 457 956 481 968 q 403 944 432 944 q 359 952 379 944 q 309 975 339 960 q 267 994 283 988 q 234 1001 251 1001 m 490 706 q 568 578 542 660 q 594 376 594 497 q 524 80 594 172 q 325 -13 455 -13 q 56 375 56 -13 q 126 671 56 578 q 325 763 195 763 q 386 761 330 763 q 426 759 409 759 q 514 786 481 759 q 547 872 547 814 q 543 920 547 897 q 531 969 539 942 l 595 969 q 607 921 603 944 q 611 868 611 898 q 578 760 611 801 q 490 706 546 719 m 325 56 q 425 84 385 56 q 488 183 466 113 q 510 373 510 253 q 488 566 510 495 q 425 666 465 637 q 325 694 385 694 q 225 666 265 694 q 162 567 184 637 q 140 378 140 497 q 162 185 140 256 q 225 85 184 114 q 325 56 265 56 z "},"ő":{"ha":650,"x_min":56,"x_max":594,"o":"m 325 -13 q 56 375 56 -13 q 126 671 56 578 q 325 763 195 763 q 594 376 594 763 q 524 80 594 172 q 325 -13 455 -13 m 325 56 q 425 84 385 56 q 488 183 466 113 q 510 373 510 253 q 488 566 510 495 q 425 666 465 637 q 325 694 385 694 q 225 666 265 694 q 162 567 184 637 q 140 378 140 497 q 162 185 140 256 q 225 85 184 114 q 325 56 265 56 m 197 873 l 263 1122 l 332 1122 l 259 873 l 197 873 m 391 873 l 457 1122 l 526 1122 l 453 873 l 391 873 z "},"ȏ":{"ha":650,"x_min":56,"x_max":594,"o":"m 325 -13 q 56 375 56 -13 q 126 671 56 578 q 325 763 195 763 q 594 376 594 763 q 524 80 594 172 q 325 -13 455 -13 m 325 56 q 425 84 385 56 q 488 183 466 113 q 510 373 510 253 q 488 566 510 495 q 425 666 465 637 q 325 694 385 694 q 225 666 265 694 q 162 567 184 637 q 140 378 140 497 q 162 185 140 256 q 225 85 184 114 q 325 56 265 56 m 157 892 q 204 1060 160 1006 q 324 1115 247 1115 q 444 1060 399 1115 q 493 892 490 1005 l 436 892 q 403 1021 431 981 q 324 1060 375 1060 q 245 1021 272 1060 q 215 892 217 981 l 157 892 z "},"ō":{"ha":650,"x_min":56,"x_max":594,"o":"m 325 -13 q 56 375 56 -13 q 126 671 56 578 q 325 763 195 763 q 594 376 594 763 q 524 80 594 172 q 325 -13 455 -13 m 325 56 q 425 84 385 56 q 488 183 466 113 q 510 373 510 253 q 488 566 510 495 q 425 666 465 637 q 325 694 385 694 q 225 666 265 694 q 162 567 184 637 q 140 378 140 497 q 162 185 140 256 q 225 85 184 114 q 325 56 265 56 m 140 958 l 140 1018 l 510 1018 l 510 958 l 140 958 z "},"ṓ":{"ha":650,"x_min":56,"x_max":594,"o":"m 325 -13 q 56 375 56 -13 q 126 671 56 578 q 325 763 195 763 q 594 376 594 763 q 524 80 594 172 q 325 -13 455 -13 m 325 56 q 425 84 385 56 q 488 183 466 113 q 510 373 510 253 q 488 566 510 495 q 425 666 465 637 q 325 694 385 694 q 225 666 265 694 q 162 567 184 637 q 140 378 140 497 q 162 185 140 256 q 225 85 184 114 q 325 56 265 56 m 140 958 l 140 1018 l 510 1018 l 510 958 l 140 958 m 290 1150 l 383 1344 l 467 1344 l 360 1150 l 290 1150 z "},"ṑ":{"ha":650,"x_min":56,"x_max":594,"o":"m 325 -13 q 56 375 56 -13 q 126 671 56 578 q 325 763 195 763 q 594 376 594 763 q 524 80 594 172 q 325 -13 455 -13 m 325 56 q 425 84 385 56 q 488 183 466 113 q 510 373 510 253 q 488 566 510 495 q 425 666 465 637 q 325 694 385 694 q 225 666 265 694 q 162 567 184 637 q 140 378 140 497 q 162 185 140 256 q 225 85 184 114 q 325 56 265 56 m 140 958 l 140 1018 l 510 1018 l 510 958 l 140 958 m 290 1150 l 183 1344 l 267 1344 l 360 1150 l 290 1150 z "},"ǫ":{"ha":650,"x_min":56,"x_max":594,"o":"m 422 1 q 316 -68 349 -26 q 283 -156 283 -110 q 305 -217 283 -196 q 365 -237 327 -237 q 446 -216 406 -237 l 457 -258 q 361 -284 415 -284 q 264 -252 299 -284 q 228 -162 228 -220 q 248 -80 228 -118 q 308 -12 268 -42 q 56 375 56 1 q 126 671 56 578 q 325 763 195 763 q 594 376 594 763 q 550 124 594 213 q 422 1 507 34 m 140 378 q 162 185 140 256 q 225 85 184 114 q 325 56 265 56 q 425 84 385 56 q 488 183 466 113 q 510 373 510 253 q 488 566 510 495 q 425 666 465 637 q 325 694 385 694 q 225 666 265 694 q 162 567 184 637 q 140 378 140 497 z "},"ø":{"ha":650,"x_min":56,"x_max":594,"o":"m 535 653 q 594 376 594 557 q 524 80 594 172 q 325 -13 455 -13 q 151 50 217 -13 l 110 -16 l 60 15 l 114 99 q 56 375 56 196 q 126 671 56 578 q 325 763 195 763 q 497 701 433 763 l 539 768 l 588 738 l 535 653 m 325 696 q 223 667 265 696 q 160 568 182 638 q 138 378 138 498 q 164 173 138 247 l 458 635 q 401 682 434 667 q 325 696 368 696 m 325 55 q 427 84 385 55 q 490 183 468 113 q 513 373 513 253 q 485 580 513 504 l 192 117 q 248 69 215 84 q 325 55 281 55 z "},"ǿ":{"ha":650,"x_min":56,"x_max":594,"o":"m 535 653 q 594 376 594 557 q 524 80 594 172 q 325 -13 455 -13 q 151 50 217 -13 l 110 -16 l 60 15 l 114 99 q 56 375 56 196 q 126 671 56 578 q 325 763 195 763 q 497 701 433 763 l 539 768 l 588 738 l 535 653 m 325 696 q 223 667 265 696 q 160 568 182 638 q 138 378 138 498 q 164 173 138 247 l 458 635 q 401 682 434 667 q 325 696 368 696 m 325 55 q 427 84 385 55 q 490 183 468 113 q 513 373 513 253 q 485 580 513 504 l 192 117 q 248 69 215 84 q 325 55 281 55 m 291 873 l 400 1122 l 483 1122 l 359 873 l 291 873 z "},"õ":{"ha":650,"x_min":56,"x_max":594,"o":"m 325 -13 q 56 375 56 -13 q 126 671 56 578 q 325 763 195 763 q 594 376 594 763 q 524 80 594 172 q 325 -13 455 -13 m 325 56 q 425 84 385 56 q 488 183 466 113 q 510 373 510 253 q 488 566 510 495 q 425 666 465 637 q 325 694 385 694 q 225 666 265 694 q 162 567 184 637 q 140 378 140 497 q 162 185 140 256 q 225 85 184 114 q 325 56 265 56 m 411 944 q 368 952 388 944 q 315 975 347 960 q 273 994 290 988 q 239 1001 256 1001 q 186 988 210 1001 q 140 949 163 975 l 140 1014 q 239 1059 178 1059 q 283 1051 263 1059 q 335 1028 304 1044 q 378 1009 360 1016 q 412 1003 395 1003 q 465 1016 441 1003 q 510 1055 488 1028 l 510 990 q 467 956 492 968 q 411 944 442 944 z "},"ṍ":{"ha":650,"x_min":56,"x_max":594,"o":"m 325 -13 q 56 375 56 -13 q 126 671 56 578 q 325 763 195 763 q 594 376 594 763 q 524 80 594 172 q 325 -13 455 -13 m 325 56 q 425 84 385 56 q 488 183 466 113 q 510 373 510 253 q 488 566 510 495 q 425 666 465 637 q 325 694 385 694 q 225 666 265 694 q 162 567 184 637 q 140 378 140 497 q 162 185 140 256 q 225 85 184 114 q 325 56 265 56 m 411 944 q 368 952 388 944 q 315 975 347 960 q 273 994 290 988 q 239 1001 256 1001 q 186 988 210 1001 q 140 949 163 975 l 140 1014 q 239 1059 178 1059 q 283 1051 263 1059 q 335 1028 304 1044 q 378 1009 360 1016 q 412 1003 395 1003 q 465 1016 441 1003 q 510 1055 488 1028 l 510 990 q 467 956 492 968 q 411 944 442 944 m 290 1150 l 383 1344 l 467 1344 l 360 1150 l 290 1150 z "},"ṏ":{"ha":650,"x_min":56,"x_max":594,"o":"m 325 -13 q 56 375 56 -13 q 126 671 56 578 q 325 763 195 763 q 594 376 594 763 q 524 80 594 172 q 325 -13 455 -13 m 325 56 q 425 84 385 56 q 488 183 466 113 q 510 373 510 253 q 488 566 510 495 q 425 666 465 637 q 325 694 385 694 q 225 666 265 694 q 162 567 184 637 q 140 378 140 497 q 162 185 140 256 q 225 85 184 114 q 325 56 265 56 m 411 944 q 368 952 388 944 q 315 975 347 960 q 273 994 290 988 q 239 1001 256 1001 q 186 988 210 1001 q 140 949 163 975 l 140 1014 q 239 1059 178 1059 q 283 1051 263 1059 q 335 1028 304 1044 q 378 1009 360 1016 q 412 1003 395 1003 q 465 1016 441 1003 q 510 1055 488 1028 l 510 990 q 467 956 492 968 q 411 944 442 944 m 206 1183 q 164 1199 180 1183 q 147 1240 147 1214 q 164 1283 147 1267 q 206 1299 180 1299 q 247 1283 231 1299 q 263 1240 263 1267 q 247 1199 263 1214 q 206 1183 231 1183 m 445 1183 q 403 1199 419 1183 q 387 1240 387 1214 q 403 1283 387 1267 q 445 1299 419 1299 q 487 1283 471 1299 q 503 1240 503 1267 q 487 1199 503 1214 q 445 1183 471 1183 z "},"ȭ":{"ha":650,"x_min":56,"x_max":594,"o":"m 325 -13 q 56 375 56 -13 q 126 671 56 578 q 325 763 195 763 q 594 376 594 763 q 524 80 594 172 q 325 -13 455 -13 m 325 56 q 425 84 385 56 q 488 183 466 113 q 510 373 510 253 q 488 566 510 495 q 425 666 465 637 q 325 694 385 694 q 225 666 265 694 q 162 567 184 637 q 140 378 140 497 q 162 185 140 256 q 225 85 184 114 q 325 56 265 56 m 411 944 q 368 952 388 944 q 315 975 347 960 q 273 994 290 988 q 239 1001 256 1001 q 186 988 210 1001 q 140 949 163 975 l 140 1014 q 239 1059 178 1059 q 283 1051 263 1059 q 335 1028 304 1044 q 378 1009 360 1016 q 412 1003 395 1003 q 465 1016 441 1003 q 510 1055 488 1028 l 510 990 q 467 956 492 968 q 411 944 442 944 m 140 1211 l 140 1272 l 510 1272 l 510 1211 l 140 1211 z "},"œ":{"ha":1049,"x_min":56,"x_max":1001,"o":"m 1001 347 l 589 347 q 616 176 591 239 q 688 85 640 113 q 810 58 735 58 q 967 86 874 58 l 967 15 q 803 -13 881 -13 q 640 25 703 -13 q 544 148 576 63 q 320 -13 486 -13 q 126 80 195 -13 q 56 375 56 173 q 125 671 56 578 q 320 763 194 763 q 547 594 490 763 q 760 765 600 765 q 938 674 876 765 q 1001 376 1001 583 l 1001 347 m 758 700 q 635 635 679 700 q 589 409 592 569 l 921 409 q 898 585 919 521 q 843 675 878 649 q 758 700 808 700 m 322 56 q 421 84 381 56 q 483 183 461 113 q 505 373 505 253 q 483 566 505 495 q 421 666 461 637 q 322 694 381 694 q 224 666 264 694 q 161 567 183 637 q 140 378 140 497 q 161 185 140 256 q 224 85 183 114 q 322 56 264 56 z "},"p":{"ha":655,"x_min":93,"x_max":599,"o":"m 93 752 l 163 752 l 169 676 l 175 676 q 246 739 201 715 q 347 763 290 763 q 529 676 459 763 q 599 390 599 589 q 515 86 599 184 q 266 -12 431 -12 q 174 -7 220 -12 l 174 -306 l 93 -306 l 93 752 m 271 57 q 454 133 393 57 q 515 381 515 208 q 491 570 515 502 q 428 665 468 638 q 331 691 388 691 q 241 666 284 691 q 174 594 197 640 l 174 65 q 220 59 192 62 q 271 57 248 57 z "},"þ":{"ha":655,"x_min":93,"x_max":599,"o":"m 93 1122 l 174 1122 l 174 681 l 179 681 q 252 740 207 717 q 356 763 297 763 q 531 676 463 763 q 599 390 599 589 q 515 86 599 184 q 266 -12 431 -12 q 174 -7 220 -12 l 174 -306 l 93 -306 l 93 1122 m 271 57 q 454 133 393 57 q 515 381 515 208 q 491 570 515 502 q 428 664 468 638 q 333 690 389 690 q 241 666 284 690 q 174 597 197 642 l 174 65 q 220 59 192 62 q 271 57 248 57 z "},"q":{"ha":655,"x_min":56,"x_max":562,"o":"m 481 71 l 476 71 q 405 11 449 35 q 303 -12 360 -12 q 125 75 193 -12 q 56 361 56 162 q 385 763 56 763 q 478 755 428 763 q 562 735 527 747 l 562 -306 l 481 -306 l 481 71 m 324 60 q 415 85 372 60 q 481 153 458 109 l 481 682 q 381 694 426 694 q 200 618 261 694 q 140 369 140 542 q 163 181 140 249 q 227 86 187 113 q 324 60 267 60 z "},"r":{"ha":415,"x_min":93,"x_max":408,"o":"m 93 752 l 162 752 l 168 650 l 175 650 q 259 732 208 704 q 368 759 310 759 q 408 756 384 759 l 408 678 q 364 680 393 680 q 254 648 306 680 q 174 560 202 617 l 174 0 l 93 0 l 93 752 z "},"ŕ":{"ha":415,"x_min":93,"x_max":408,"o":"m 93 752 l 162 752 l 168 650 l 175 650 q 259 732 208 704 q 368 759 310 759 q 408 756 384 759 l 408 678 q 364 680 393 680 q 254 648 306 680 q 174 560 202 617 l 174 0 l 93 0 l 93 752 m 201 873 l 310 1122 l 394 1122 l 269 873 l 201 873 z "},"ř":{"ha":415,"x_min":72,"x_max":408,"o":"m 93 752 l 162 752 l 168 650 l 175 650 q 259 732 208 704 q 368 759 310 759 q 408 756 384 759 l 408 678 q 364 680 393 680 q 254 648 306 680 q 174 560 202 617 l 174 0 l 93 0 l 93 752 m 334 1122 l 399 1122 l 275 873 l 196 873 l 72 1122 l 137 1122 l 235 916 l 334 1122 z "},"ŗ":{"ha":415,"x_min":75,"x_max":408,"o":"m 93 752 l 162 752 l 168 650 l 175 650 q 259 732 208 704 q 368 759 310 759 q 408 756 384 759 l 408 678 q 364 680 393 680 q 254 648 306 680 q 174 560 202 617 l 174 0 l 93 0 l 93 752 m 131 -119 q 176 -137 160 -119 q 192 -188 192 -154 q 182 -252 192 -217 q 157 -318 173 -287 l 105 -318 q 131 -222 128 -264 q 90 -207 106 -221 q 75 -169 75 -192 q 90 -133 75 -147 q 131 -119 105 -119 z "},"ȑ":{"ha":415,"x_min":33,"x_max":408,"o":"m 93 752 l 162 752 l 168 650 l 175 650 q 259 732 208 704 q 368 759 310 759 q 408 756 384 759 l 408 678 q 364 680 393 680 q 254 648 306 680 q 174 560 202 617 l 174 0 l 93 0 l 93 752 m 106 873 l 33 1122 l 106 1122 l 169 873 l 106 873 m 301 873 l 228 1122 l 300 1122 l 365 873 l 301 873 z "},"ṛ":{"ha":415,"x_min":76,"x_max":408,"o":"m 93 752 l 162 752 l 168 650 l 175 650 q 259 732 208 704 q 368 759 310 759 q 408 756 384 759 l 408 678 q 364 680 393 680 q 254 648 306 680 q 174 560 202 617 l 174 0 l 93 0 l 93 752 m 133 -235 q 92 -220 108 -235 q 76 -178 76 -204 q 92 -135 76 -151 q 133 -119 108 -119 q 175 -135 159 -119 q 192 -178 192 -151 q 175 -220 192 -204 q 133 -235 159 -235 z "},"ȓ":{"ha":415,"x_min":67,"x_max":408,"o":"m 93 752 l 162 752 l 168 650 l 175 650 q 259 732 208 704 q 368 759 310 759 q 408 756 384 759 l 408 678 q 364 680 393 680 q 254 648 306 680 q 174 560 202 617 l 174 0 l 93 0 l 93 752 m 67 892 q 114 1060 71 1006 q 234 1115 158 1115 q 355 1060 310 1115 q 403 892 400 1005 l 347 892 q 314 1021 342 981 q 234 1060 285 1060 q 155 1021 183 1060 q 125 892 128 981 l 67 892 z "},"ṟ":{"ha":415,"x_min":-33,"x_max":408,"o":"m 93 752 l 162 752 l 168 650 l 175 650 q 259 732 208 704 q 368 759 310 759 q 408 756 384 759 l 408 678 q 364 680 393 680 q 254 648 306 680 q 174 560 202 617 l 174 0 l 93 0 l 93 752 m -33 -207 l -33 -147 l 301 -147 l 301 -207 l -33 -207 z "},"s":{"ha":516,"x_min":47,"x_max":476,"o":"m 228 -13 q 62 15 141 -13 l 62 86 q 227 58 151 58 q 355 94 310 58 q 399 197 399 130 q 372 286 399 256 q 287 334 344 317 l 216 353 q 86 428 126 379 q 47 554 47 476 q 77 663 47 615 q 163 736 106 710 q 299 763 220 763 q 440 747 374 763 l 440 676 q 370 689 403 685 q 301 693 338 693 q 169 655 214 693 q 125 556 125 616 q 151 473 125 503 q 234 426 178 442 l 305 406 q 438 331 399 381 q 476 201 476 281 q 447 86 476 134 q 361 12 417 38 q 228 -13 306 -13 z "},"ś":{"ha":516,"x_min":47,"x_max":476,"o":"m 228 -13 q 62 15 141 -13 l 62 86 q 227 58 151 58 q 355 94 310 58 q 399 197 399 130 q 372 286 399 256 q 287 334 344 317 l 216 353 q 86 428 126 379 q 47 554 47 476 q 77 663 47 615 q 163 736 106 710 q 299 763 220 763 q 440 747 374 763 l 440 676 q 370 689 403 685 q 301 693 338 693 q 169 655 214 693 q 125 556 125 616 q 151 473 125 503 q 234 426 178 442 l 305 406 q 438 331 399 381 q 476 201 476 281 q 447 86 476 134 q 361 12 417 38 q 228 -13 306 -13 m 228 873 l 338 1122 l 421 1122 l 297 873 l 228 873 z "},"ṥ":{"ha":516,"x_min":47,"x_max":476,"o":"m 228 -13 q 62 15 141 -13 l 62 86 q 227 58 151 58 q 355 94 310 58 q 399 197 399 130 q 372 286 399 256 q 287 334 344 317 l 216 353 q 86 428 126 379 q 47 554 47 476 q 77 663 47 615 q 163 736 106 710 q 299 763 220 763 q 440 747 374 763 l 440 676 q 370 689 403 685 q 301 693 338 693 q 169 655 214 693 q 125 556 125 616 q 151 473 125 503 q 234 426 178 442 l 305 406 q 438 331 399 381 q 476 201 476 281 q 447 86 476 134 q 361 12 417 38 q 228 -13 306 -13 m 218 1094 q 177 1108 192 1094 q 162 1146 162 1122 q 177 1184 162 1170 q 218 1199 193 1199 q 259 1184 243 1199 q 274 1146 274 1170 q 259 1108 274 1122 q 218 1094 244 1094 m 228 873 l 338 1122 l 421 1122 l 297 873 l 228 873 z "},"š":{"ha":516,"x_min":47,"x_max":476,"o":"m 228 -13 q 62 15 141 -13 l 62 86 q 227 58 151 58 q 355 94 310 58 q 399 197 399 130 q 372 286 399 256 q 287 334 344 317 l 216 353 q 86 428 126 379 q 47 554 47 476 q 77 663 47 615 q 163 736 106 710 q 299 763 220 763 q 440 747 374 763 l 440 676 q 370 689 403 685 q 301 693 338 693 q 169 655 214 693 q 125 556 125 616 q 151 473 125 503 q 234 426 178 442 l 305 406 q 438 331 399 381 q 476 201 476 281 q 447 86 476 134 q 361 12 417 38 q 228 -13 306 -13 m 361 1122 l 426 1122 l 302 873 l 223 873 l 99 1122 l 164 1122 l 263 916 l 361 1122 z "},"ṧ":{"ha":516,"x_min":47,"x_max":476,"o":"m 228 -13 q 62 15 141 -13 l 62 86 q 227 58 151 58 q 355 94 310 58 q 399 197 399 130 q 372 286 399 256 q 287 334 344 317 l 216 353 q 86 428 126 379 q 47 554 47 476 q 77 663 47 615 q 163 736 106 710 q 299 763 220 763 q 440 747 374 763 l 440 676 q 370 689 403 685 q 301 693 338 693 q 169 655 214 693 q 125 556 125 616 q 151 473 125 503 q 234 426 178 442 l 305 406 q 438 331 399 381 q 476 201 476 281 q 447 86 476 134 q 361 12 417 38 q 228 -13 306 -13 m 263 1125 q 222 1139 237 1125 q 206 1177 206 1153 q 222 1216 206 1201 q 263 1230 238 1230 q 303 1216 288 1230 q 319 1177 319 1201 q 303 1139 319 1153 q 263 1125 288 1125 m 361 1122 l 426 1122 l 302 873 l 223 873 l 99 1122 l 164 1122 l 263 916 l 361 1122 z "},"ş":{"ha":516,"x_min":47,"x_max":476,"o":"m 476 201 q 428 61 476 115 q 292 -8 380 6 l 292 -76 q 362 -109 338 -83 q 386 -180 386 -136 q 353 -256 386 -227 q 259 -284 320 -284 q 205 -278 232 -284 q 156 -261 177 -272 l 156 -212 q 260 -237 204 -237 q 333 -178 333 -237 q 258 -115 333 -115 l 239 -115 l 239 -13 l 228 -13 q 62 15 141 -13 l 62 86 q 227 58 151 58 q 355 94 310 58 q 399 197 399 130 q 372 286 399 256 q 287 334 344 317 l 216 353 q 86 428 126 379 q 47 554 47 476 q 77 663 47 615 q 163 736 106 710 q 299 763 220 763 q 440 747 374 763 l 440 676 q 370 689 403 685 q 301 693 338 693 q 169 655 214 693 q 125 556 125 616 q 151 473 125 503 q 234 426 178 442 l 305 406 q 438 331 399 381 q 476 201 476 281 z "},"ŝ":{"ha":516,"x_min":47,"x_max":476,"o":"m 228 -13 q 62 15 141 -13 l 62 86 q 227 58 151 58 q 355 94 310 58 q 399 197 399 130 q 372 286 399 256 q 287 334 344 317 l 216 353 q 86 428 126 379 q 47 554 47 476 q 77 663 47 615 q 163 736 106 710 q 299 763 220 763 q 440 747 374 763 l 440 676 q 370 689 403 685 q 301 693 338 693 q 169 655 214 693 q 125 556 125 616 q 151 473 125 503 q 234 426 178 442 l 305 406 q 438 331 399 381 q 476 201 476 281 q 447 86 476 134 q 361 12 417 38 q 228 -13 306 -13 m 426 873 l 361 873 l 263 1079 l 164 873 l 99 873 l 223 1122 l 302 1122 l 426 873 z "}}}
